<?xml version="1.0" encoding="utf-8" ?>
<svg baseProfile="full" height="200mm" version="1.1" viewBox="0,0,200,200" width="200mm" xmlns="http://www.w3.org/2000/svg" xmlns:ev="http://www.w3.org/2001/xml-events" xmlns:xlink="http://www.w3.org/1999/xlink"><defs /><rect fill="#1a1a1a" height="200" width="200" x="0" y="0" /><text alignment-baseline="middle" fill="#e1ed5e" style="dominant-baseline: central; font-size:9.0px; font-family:Arial;" text-anchor="middle" x="100.0" y="100.0">2025</text><line stroke="#e1ed5e" stroke-width="0.3" x1="100.0" x2="100.0" y1="15.0" y2="10.0" /><path d="M 100.0 14.0 a86.0,86.0 0 0,1 42.46469731375804,11.215312516191453" fill="none" id="id61" stroke="none" /><text fill="#e1ed5e" style="font-size:6.75px; font-family:Arial;" text-anchor="middle"><textPath startOffset="22.20632615414155" xlink:href="#id61">January</textPath></text><path d="M 100.0 79.0 l 0.0 -63.0 a84.0,84.0 0 0,0 1.4459219170901134,0.012445506434235476 l -1.084441437817585 62.990665870174325" fill="#4dd2ff" stroke="none" /><path d="M 100.36148047927253 79.00311137660856 l 0.12956558717913016 -7.525922862831779 a28.527038074745946,28.527038074745946 0 0,0 0.4909005589045268,0.01267851313878212 l -0.25909278127852475 7.522577557550638" fill="#ff3605" stroke="none" /><path d="M 100.72285384407766 79.0124445844662 l 1.3079992002733136 -37.97684127174782 a58.9993596641765,58.9993596641765 0 0,0 1.0146742678988778,0.04369400839974597 l -1.961514300561523 37.94869953682388" fill="#47ff2c" stroke="none" /><path d="M 101.08401301168833 79.027996857942 l 1.5848222811639108 -30.660976853411785 a51.70190813725308,51.70190813725308 0 0,0 0.8883814573013809,0.05358959556894534 l -2.1123657873049035 30.629153988462537" fill="#97ff23" stroke="none" /><path d="M 101.44485096284872 79.0497635885617 l 1.5004763626154103 -21.75680075998212 a42.80848019978298,42.80848019978298 0 0,0 0.7346950591661786,0.0570264766523446 l -1.87476161114393 21.72774902114131" fill="#fffb17" stroke="none" /><path d="M 101.80526077348638 79.07773832637324 l 0.7355790655288564 -8.525071788335032 a29.556747370228372,29.556747370228372 0 0,0 0.5065109858803187,0.04809932129904728 l -0.8822151784994193 8.511146922520807" fill="#ff4506" stroke="none" /><path d="M 102.16513564639614 79.11191278185805 l 3.8708107455072756 -37.34354131190727 a58.54361801347414,58.54361801347414 0 0,0 1.0014674708308449,0.11252653911882105 l -4.513044919847846 37.27137881931785" fill="#4bff2c" stroke="none" /><path d="M 102.52436894288641 79.15227682838746 l 4.906190285360555 -40.51820443468917 a61.814159230926606,61.814159230926606 0 0,0 1.055212650188474,0.13699688680030392 l -5.602917664056876 40.42774922472473" fill="#30ff36" stroke="none" /><path d="M 102.88285421437855 79.19881850522331 l 1.1715826473929873 -8.453533017036673 a29.53433221580936,29.53433221580936 0 0,0 0.502971111557081,0.07412486735216882 l -1.316922739378724 8.432113665523534" fill="#ff4506" stroke="none" /><path d="M 103.2404852339499 79.25152402106235 l 5.93791314615362 -38.019814744784945 a59.48071108697227,59.48071108697227 0 0,0 1.010239640134029,0.16669819668937227 l -6.591481992426524 37.911970285155945" fill="#42ff2d" stroke="none" /><path d="M 103.59715602781102 79.31037775812273 l 6.899075485798483 -39.68114380243534 a61.276425065145716,61.276425065145716 0 0,0 1.0376283673589672,0.18961995178123975 l -7.581098974260351 39.55650836930336" fill="#2fff30" stroke="none" /><path d="M 104.307194497241 79.44645832069477 l 1.5656109351864955 -7.470953454863484 a28.633235429692455,28.633235429692455 0 0,0 0.4815254963343274,0.10524282290549256 l -1.6939791556743509 7.442897133862121" fill="#ff3705" stroke="none" /><path d="M 104.66035177308747 79.52364482259891 l 9.87003622285344 -43.36633309100374 a65.47534666307082,65.47534666307082 0 0,0 1.096794097332652,0.25957572684258956 l -10.615054007148615 43.190011452020286" fill="#35ff64" stroke="none" /><path d="M 105.01212808612495 79.60689891045804 l 5.451388228675196 -22.180341227405112 a43.84042842382483,43.84042842382483 0 0,0 0.7312815425288675,0.18641994785336957 l -5.832378659889088 22.083218283382873" fill="#f6ff19" stroke="none" /><path d="M 105.36241919743992 79.69619591428918 l 3.981282444766031 -15.074386352898495 a36.59127107780038,36.59127107780038 0 0,0 0.6075930219436368,0.166078124856569 l -4.240173355933378 15.003621687215631" fill="#ffa90f" stroke="none" /><path d="M 105.71112130821622 79.79150937346287 l 1.0789728356082584 -3.8178864110816715 a24.967422214474105,24.967422214474105 0 0,0 0.41256855936437753,0.12044007585326245 l -1.1445316126960632 3.7987480063097054" fill="#ff0000" stroke="none" /><line stroke="#e1ed5e" stroke-width="0.3" x1="143.23703022742887" x2="145.7803849466894" y1="26.81831364943548" y2="22.513508569990506" /><path d="M 143.74570117128098 25.957352633546492 a86.0,86.0 0 0,1 28.547481713284135,27.462654790039103" fill="none" id="id62" stroke="none" /><text fill="#e1ed5e" style="font-size:6.75px; font-family:Arial;" text-anchor="middle"><textPath startOffset="19.985693538727396" xlink:href="#id62">February</textPath></text><line stroke="#e1ed5e" stroke-width="0.3" x1="172.23445277983987" x2="176.4835382374775" y1="55.19839476539836" y2="52.563006222186495" /><path d="M 173.08426987136738 54.67131705675599 a86.0,86.0 0 0,1 12.851231095245387,41.99856678651699" fill="none" id="id63" stroke="none" /><text fill="#e1ed5e" style="font-size:6.75px; font-family:Arial;" text-anchor="middle"><textPath startOffset="22.20632615414155" xlink:href="#id63">March</textPath></text><line stroke="#e1ed5e" stroke-width="0.3" x1="184.98032266829074" x2="189.97916517819016" y1="98.17113171792111" y2="98.06355123074" /><path d="M 185.9800911702706 98.14961562048488 a86.0,86.0 0 0,1 -9.607161424134198,41.387399972396054" fill="none" id="id64" stroke="none" /><text fill="#e1ed5e" style="font-size:6.75px; font-family:Arial;" text-anchor="middle"><textPath startOffset="21.466115282336823" xlink:href="#id64">April</textPath></text><line stroke="#e1ed5e" stroke-width="0.3" x1="174.80103733775053" x2="179.2010983576182" y1="140.37084112569926" y2="142.7455964860345" /><path d="M 175.68104954172406 140.8457921977663 a86.0,86.0 0 0,1 -30.038265399797805,32.042727171017184" fill="none" id="id65" stroke="none" /><text fill="#e1ed5e" style="font-size:6.75px; font-family:Arial;" text-anchor="middle"><textPath startOffset="22.206326154141568" xlink:href="#id65">May</textPath></text><line stroke="#e1ed5e" stroke-width="0.3" x1="143.8653032363475" x2="146.44561519142675" y1="172.8068346515853" y2="177.08958963109032" /><path d="M 144.38136562736335 173.6633856474863 a86.0,86.0 0 0,1 -40.68145358897372,12.25698825130547" fill="none" id="id66" stroke="none" /><text fill="#e1ed5e" style="font-size:6.75px; font-family:Arial;" text-anchor="middle"><textPath startOffset="21.466115282336833" xlink:href="#id66">June</textPath></text><line stroke="#e1ed5e" stroke-width="0.3" x1="102.19456741930631" x2="102.32365962044197" y1="184.97166512339345" y2="189.96999836594603" /><path d="M 102.22038585953345 185.97133177190398 a86.0,86.0 0 0,1 -42.740103519485714,-10.115201625700543" fill="none" id="id67" stroke="none" /><text fill="#e1ed5e" style="font-size:6.75px; font-family:Arial;" text-anchor="middle"><textPath startOffset="22.20632615414155" xlink:href="#id67">July</textPath></text><line stroke="#e1ed5e" stroke-width="0.3" x1="58.666819895761336" x2="56.23545636021788" y1="174.27360380694188" y2="178.64263932499728" /><path d="M 58.180547188652646 175.14741091055294 a86.0,86.0 0 0,1 -31.652253787137756,-30.449443065178592" fill="none" id="id68" stroke="none" /><text fill="#e1ed5e" style="font-size:6.75px; font-family:Arial;" text-anchor="middle"><textPath startOffset="22.20632615414155" xlink:href="#id68">August</textPath></text><line stroke="#e1ed5e" stroke-width="0.3" x1="26.63291911575756" x2="22.317208475507996" y1="142.92168965132927" y2="145.44649492493687" /><path d="M 25.769776987707644 143.4266507060508 a86.0,86.0 0 0,1 -11.730757126820373,-40.83630448921669" fill="none" id="id69" stroke="none" /><text fill="#e1ed5e" style="font-size:6.75px; font-family:Arial;" text-anchor="middle"><textPath startOffset="21.46611528233685" xlink:href="#id69">September</textPath></text><line stroke="#e1ed5e" stroke-width="0.3" x1="15.007084014347285" x2="10.007500721073583" y1="101.09737516637583" y2="101.16192664675087" /><path d="M 14.007167355692545 101.11028546245083 a86.0,86.0 0 0,1 10.666146001902534,-42.60595125391555" fill="none" id="id70" stroke="none" /><text fill="#e1ed5e" style="font-size:6.75px; font-family:Arial;" text-anchor="middle"><textPath startOffset="22.20632615414155" xlink:href="#id70">October</textPath></text><line stroke="#e1ed5e" stroke-width="0.3" x1="26.266209847984243" x2="21.928928074336255" y1="57.711370442889674" y2="55.22380399835377" /><path d="M 25.398753493254645 57.213857153982495 a86.0,86.0 0 0,1 29.58750427330803,-30.492523968695096" fill="none" id="id71" stroke="none" /><text fill="#e1ed5e" style="font-size:6.75px; font-family:Arial;" text-anchor="middle"><textPath startOffset="21.46611528233685" xlink:href="#id71">November</textPath></text><line stroke="#e1ed5e" stroke-width="0.3" x1="56.762969772571076" x2="54.21961505331055" y1="26.818313649435495" y2="22.513508569990535" /><path d="M 56.25429882871897 25.957352633546506 a86.0,86.0 0 0,1 42.265352541879196,-11.944610805530505" fill="none" id="id72" stroke="none" /><text fill="#e1ed5e" style="font-size:6.75px; font-family:Arial;" text-anchor="middle"><textPath startOffset="22.20632615414155" xlink:href="#id72">December</textPath></text></svg>