<?xml version="1.0" encoding="utf-8" ?>
<svg baseProfile="full" height="200mm" version="1.1" viewBox="0,0,200,200" width="200mm" xmlns="http://www.w3.org/2000/svg" xmlns:ev="http://www.w3.org/2001/xml-events" xmlns:xlink="http://www.w3.org/1999/xlink"><defs /><rect fill="#1a1a1a" height="200" width="200" x="0" y="0" /><text alignment-baseline="middle" fill="#e1ed5e" style="dominant-baseline: central; font-size:9.0px; font-family:Arial;" text-anchor="middle" x="100.0" y="100.0">2024</text><line stroke="#e1ed5e" stroke-width="0.3" x1="100.0" x2="100.0" y1="15.0" y2="10.0" /><path d="M 100.0 14.0 a86.0,86.0 0 0,1 42.35913384403234,11.155469271406648" fill="none" id="id49" stroke="none" /><text fill="#e1ed5e" style="font-size:6.75px; font-family:Arial;" text-anchor="middle"><textPath startOffset="22.145653131862478" xlink:href="#id49">January</textPath></text><line stroke="#e1ed5e" stroke-width="0.3" x1="143.13028292997686" x2="145.6673583964461" y1="26.7553504044142" y2="22.446841604673864" /><path d="M 143.63769802327073 25.89364864446614 a86.0,86.0 0 0,1 29.32050498858742,28.57503671076993" fill="none" id="id50" stroke="none" /><text fill="#e1ed5e" style="font-size:6.75px; font-family:Arial;" text-anchor="middle"><textPath startOffset="20.669276256404974" xlink:href="#id50">February</textPath></text><line stroke="#e1ed5e" stroke-width="0.3" x1="172.87174338648825" x2="177.1583165268699" y1="56.24261187166439" y2="53.66864786411523" /><path d="M 173.72905801456457 55.72781907015455 a86.0,86.0 0 0,1 12.242430191666344,42.057860355516425" fill="none" id="id51" stroke="none" /><text fill="#e1ed5e" style="font-size:6.75px; font-family:Arial;" text-anchor="middle"><textPath startOffset="22.145653131862474" xlink:href="#id51">March</textPath></text><path d="M 120.16314734710363 94.1308016681162 l 17.12605251920634 -4.985144290577184 a38.83685337968802,38.83685337968802 0 0,0 0.18083457554972665,0.6417181134901061 l -17.209105586830646 4.690418253184064" fill="#ffcb13" stroke="none" /><path d="M 120.26092885502905 94.47779374421319 l 31.86751822551942 -8.685633800924338 a54.0299705173585,54.0299705173585 0 0,0 0.23621522120494284,0.8969476700244802 l -32.01192292752909 8.13730562652706" fill="#7aff26" stroke="none" /><path d="M 120.35273937422433 94.82641323984039 l 22.6710578787668 -5.762894258300317 a44.39204598949705,44.39204598949705 0 0,0 0.18139958425529984,0.7401722065215224 l -22.766644989538392 5.3728662271707" fill="#ebff1a" stroke="none" /><path d="M 120.43855184770803 95.1765574152323 l 3.5501635248350296 -0.8378289252669622 a24.647686713669785,24.647686713669785 0 0,0 0.09364846130858404,0.4126323998263586 l -3.5640228477012803 0.7767621915015773" fill="#ff0100" stroke="none" /><path d="M 120.51834098615036 95.52812308129327 l 19.324197275150972 -4.211618854838826 a40.77782429154901,40.77782429154901 0 0,0 0.14319286242193174,0.6852296830886692 l -19.39364784839727 3.879272720464752" fill="#ffe515" stroke="none" /><path d="M 120.77682067341334 96.94652285012252 l 6.094440351338493 -0.8956728580670837 a27.159905280497494,27.159905280497494 0 0,0 0.06383286930636141,0.4618628439925661 l -6.108917737200067 0.790921705874432" fill="#ff2703" stroke="none" /><path d="M 120.82617615685814 97.30363454192243 l 8.10092907431839 -1.0488274549207355 a29.168542764614294,29.168542764614294 0 0,0 0.06002874119678154,0.49712409001834706 l -8.117739901774836 0.9096096879789755" fill="#ff4506" stroke="none" /><path d="M 120.86939407059847 97.66154086499901 l 12.057616821013038 -1.351081114576456 a33.13307642688126,33.13307642688126 0 0,0 0.05848399394602841,0.5657795890254109 l -12.079033207440734 1.1438970032681137" fill="#ff7e0b" stroke="none" /><path d="M 120.9064616781168 98.02013634271609 l 4.318014234058313 -0.4089204373877949 a25.337333610600368,25.337333610600368 0 0,0 0.03728977106678231,0.43336366421661315 l -4.324397627822836 0.3347357257955197" fill="#ff0c01" stroke="none" /><path d="M 120.93736805541906 98.37931529534042 l 17.22298636416279 -1.3331680703647264 a38.27450712477717,38.27450712477717 0 0,0 0.04508379498221157,0.6555084845084714 l -17.243334120310067 1.0373161617019209" fill="#ffc412" stroke="none" /><path d="M 120.96210409425399 98.7389718711861 l 41.0655099037162 -2.470399101150695 a62.139749335298326,62.139749335298326 0 0,0 0.05491499901095866,1.065336310152712 l -41.101866492183724 1.7650909976212525" fill="#31ff3c" stroke="none" /><path d="M 120.98066250479742 99.09900007780936 l 35.312766183626835 -1.5164821214062665 a56.34531331823278,56.34531331823278 0 0,0 0.03320432802732344,0.9667077814157681 l -35.333595198651004 0.9100680754263784" fill="#61ff29" stroke="none" /><path d="M 120.99303781780057 99.45929381324524 l 9.025198965844952 -0.23245711077541975 a30.02819210481472,30.02819210481472 0 0,0 0.008849120038525839,0.5154168786692285 l -9.027859517482144 0.07749331613712486" fill="#ff5107" stroke="none" /><line stroke="#e1ed5e" stroke-width="0.3" x1="184.99686870605535" x2="189.99668451229388" y1="99.2704041080226" y2="99.22748670261217" /><path d="M 185.99683186730306 99.26182062694052 a86.0,86.0 0 0,1 -10.086455211305974,41.156179273409016" fill="none" id="id52" stroke="none" /><text fill="#e1ed5e" style="font-size:6.75px; font-family:Arial;" text-anchor="middle"><textPath startOffset="21.40746469413373" xlink:href="#id52">April</textPath></text><path d="M 120.99922638620191 99.81974689727618 l 4.27663795973167 -0.03670979336527657 a25.276795511542115,25.276795511542115 0 0,0 0.0,0.43392579217820637 l -4.27663795973167 -0.03670979336527606" fill="#ff0b01" stroke="none" /><path d="M 120.99922638620191 100.18025310272382 l 10.701650782434063 0.09186080107541959 a31.70204503242001,31.70204503242001 0 0,0 -0.00934239400691558,0.5441476143820564 l -10.698496956828478 -0.27555533142654703" fill="#ff6909" stroke="none" /><path d="M 120.99303781780057 100.54070618675476 l 32.57435034442506 0.8389997156968309 a53.58515338132206,53.58515338132206 0 0,0 -0.03157776406742319,0.9193521464600761 l -32.55514789336079 -1.3980581267210177" fill="#7fff26" stroke="none" /><path d="M 120.98066250479742 100.90099992219065 l 8.384929231517445 0.3600849393313388 a29.39265746835226,29.39265746835226 0 0,0 -0.02597528591714365,0.5039136074391861 l -8.377512356143729 -0.5039703401472556" fill="#ff4806" stroke="none" /><path d="M 120.96210409425399 101.26102812881392 l 46.88753372095383 2.8206375966352093 a67.9722983777155,67.9722983777155 0 0,0 -0.08006501963670887,1.164127813661354 l -46.83220474015206 -3.6251088344509066" fill="#38ff83" stroke="none" /><path d="M 120.93736805541906 101.62068470465957 l 10.110825888911789 0.7826418691337926 a31.14107136604462,31.14107136604462 0 0,0 -0.04583131910645502,0.5326293998502769 l -10.095900947107593 -0.9560923163597269" fill="#ff6109" stroke="none" /><path d="M 120.9064616781168 101.97986365728391 l 20.170978608553305 1.9102126459173852 a41.26122628024616,41.26122628024616 0 0,0 -0.07283118768958716,0.704575673769378 l -20.135215028382053 -2.2561928419696944" fill="#ffeb16" stroke="none" /><path d="M 120.86939407059847 102.33845913500097 l 42.02353398668731 4.708824635912156 a63.2865278567777,63.2865278567777 0 0,0 -0.13024341437331485,1.078602308833504 l -41.93650848605433 -5.429520621669068" fill="#32ff4b" stroke="none" /><path d="M 120.82617615685814 102.69636545807757 l 42.77281324064488 5.5377970155553 a64.12981275526917,64.12981275526917 0 0,0 -0.15072180532191223,1.090547901325997 l -42.67144691876776 -6.271233225081382" fill="#33ff55" stroke="none" /><path d="M 120.77682067341334 103.0534771498775 l 32.70950151043915 4.807170308487849 a54.060858661508306,54.060858661508306 0 0,0 -0.14281979867926176,0.91700555953156 l -32.62216021962163 -5.367964049950859" fill="#7aff26" stroke="none" /><path d="M 120.7213421655516 103.40968896794604 l 45.273576974323426 7.4497498625083365 a66.8824099744546,66.8824099744546 0 0,0 -0.19614121070647592,1.1312903808565635 l -45.13902094612472 -8.225833276285488" fill="#37ff76" stroke="none" /><path d="M 120.65975698304385 103.76489593502545 l 40.092811205609124 7.306245763472746 a61.7530948214351,61.7530948214351 0 0,0 -0.1990028995056145,1.0412672608345084 l -39.96148201382135 -7.993415589340569" fill="#30ff38" stroke="none" /><path d="M 120.592083275326 104.11899336999214 l 13.668321480926544 2.7340470998540187 a34.939082668891025,34.939082668891025 0 0,0 -0.12268990179527606,0.5871155943347964 l -13.619373868306903 -2.9682791454742246" fill="#ff970d" stroke="none" /><path d="M 120.51834098615036 104.47187691870673 l 45.66196721397958 9.951813228212137 a67.73386177473208,67.73386177473208 0 0,0 -0.25735364163705443,1.1339476299864877 l -45.484402710784856 -10.734195192137642" fill="#38ff80" stroke="none" /><path d="M 120.43855184770803 104.8234425847677 l 19.411056847890197 4.580956562534533 a40.944279655576764,40.944279655576764 0 0,0 -0.16731094820254988,0.68268576366749 l -19.329558373171352 -4.913498150810123" fill="#ffe715" stroke="none" /><path d="M 120.35273937422433 105.17358676015961 l 16.454971863166165 4.18278950094991 a37.97827514875545,37.97827514875545 0 0,0 -0.1660383409308594,0.6304746251023822 l -16.380744041430574 -4.464644630425095" fill="#ffc011" stroke="none" /><path d="M 120.26092885502905 105.52220625578681 l 38.38114901946637 10.46095283864412 a60.781203279272745,60.781203279272745 0 0,0 -0.28301322429375186,1.004314091121339 l -38.195917303098035 -11.118274853668469" fill="#33ff2f" stroke="none" /><path d="M 120.16314734710363 105.8691983318838 l 17.013367372381797 4.952343286627484 a38.71949134078712,38.71949134078712 0 0,0 -0.19124419664066836,0.6365897318127807 l -16.9258468557375 -5.243670622030988" fill="#ffca12" stroke="none" /><path d="M 120.05942366710727 106.21446072829308 l 22.25079890848583 6.893354379700991 a44.29412772932305,44.29412772932305 0 0,0 -0.2312475849049005,0.7243797660894619 l -22.129186607803675 -7.274303179481836" fill="#edff1a" stroke="none" /><path d="M 119.94978838288452 106.5578916946017 l 59.84936514865356 19.67367508380507 a84.0,84.0 0 0,0 -0.46205831371054007,1.3659933021033581 l -59.50282141337066 -20.698170060382587" fill="#4dd2ff" stroke="none" /><path d="M 119.83427380445688 106.89939002012753 l 3.3851152137334486 1.1775187916063938 a24.584069686102076,24.584069686102076 0 0,0 -0.14207231032062848,0.39740153753938606 l -3.364402733368877 -1.2354552855267014" fill="#ff0000" stroke="none" /><path d="M 119.71291397450082 107.23885506374661 l 8.061008556421903 2.960113998520964 a29.58732402037718,29.58732402037718 0 0,0 -0.17917141730628294,0.47527347124983366 l -8.009006455301181 -3.0980557499649564" fill="#ff4b07" stroke="none" /><path d="M 119.58574465831526 107.57618678355244 l 28.30583797327201 10.94930620671775 a51.349757326502555,51.349757326502555 0 0,0 -0.3250716561501528,0.8193929260210161 l -28.11370764215573 -11.433600149952332" fill="#98ff23" stroke="none" /><path d="M 119.4528033332814 107.91128576633889 l 4.23725231198601 1.7232536272470906 a25.574266085313692,25.574266085313692 0 0,0 -0.1688804643323846,0.4052516356233749 l -4.20704600311714 -1.7957377723117434" fill="#ff1001" stroke="none" /><path d="M 119.31412917781788 108.2440532568976 l 18.654023284566474 7.962293303391311 a41.28227549734936,41.28227549734936 0 0,0 -0.2837981835742126,0.6493857829875118 l -18.514591218975294 -8.281341156154667" fill="#ffeb16" stroke="none" /><path d="M 119.16976305983485 108.57439118712176 l 8.293004863787965 3.709355592808984 a30.08478115227407,30.08478115227407 0 0,0 -0.21491354972747223,0.46962489187501466 l -8.228106849205437 -3.8511694668986873" fill="#ff5207" stroke="none" /><path d="M 119.0197475246899 108.90220220490707 l 45.10793515717722 21.11279128672742 a70.80437500924008,70.80437500924008 0 0,0 -0.5246966370772669,1.0964141691475664 l -44.73885926214004 -21.884017957940088" fill="#3cffa3" stroke="none" /><path d="M 118.8641267826498 109.22738970284198 l 16.364405367849358 8.004650696225557 a39.217249951951615,39.217249951951615 0 0,0 -0.30100189289774987,0.6022054189699175 l -16.224583561739873 -8.284387971359221" fill="#ffd013" stroke="none" /><path d="M 118.70294669586154 109.54985784667822 l 3.1638665303148845 1.615492793820337 a24.552445409648428,24.552445409648428 0 0,0 -0.19489021603435427,0.37372768648408206 l -3.135668245305581 -1.6695667234089218" fill="#ff0000" stroke="none" /><path d="M 118.5362547648365 109.86951160357373 l 26.41654396142126 14.065321741700943 a50.927697381577275,50.927697381577275 0 0,0 -0.4174971398867264,0.7681477137087002 l -26.171201471919197 -14.516724288884246" fill="#9dff22" stroke="none" /><line stroke="#e1ed5e" stroke-width="0.3" x1="174.33088141563837" x2="178.70328620479359" y1="141.23008692659167" y2="143.65538615756765" /><path d="M 175.20536237346943 141.71514677278685 a86.0,86.0 0 0,1 -30.301960400862466,31.631185727798858" fill="none" id="id53" stroke="none" /><text fill="#e1ed5e" style="font-size:6.75px; font-family:Arial;" text-anchor="middle"><textPath startOffset="22.145653131862474" xlink:href="#id53">May</textPath></text><path d="M 118.36410011445183 110.18625677009912 l 38.48705783606148 21.348122205849773 a65.01131607430341,65.01131607430341 0 0,0 -0.549706696706935,0.9712790612027987 l -38.114917774333165 -22.005658037151694" fill="#34ff60" stroke="none" /><path d="M 118.18653347947321 110.5 l 22.689107953573693 13.099562584668243 a47.1991251693365,47.1991251693365 0 0,0 -0.41114099296893025,0.6982072900676622 l -22.460893250474996 -13.487121043029454" fill="#c9ff1d" stroke="none" /><path d="M 118.00360718960297 110.81064883170644 l 7.64644260342654 4.591469083216897 a29.919062329058647,29.919062329058647 0 0,0 -0.2681774287516348,0.4380476755495952 l -7.5664972102195005 -4.722053874891049" fill="#ff5007" stroke="none" /><path d="M 117.81537515405839 111.11811171558189 l 32.37934692485923 20.20710724725657 a59.167385168262705,59.167385168262705 0 0,0 -0.5451353458483595,0.85704330824788 l -32.02769388738498 -20.759964230183122" fill="#43ff2d" stroke="none" /><path d="M 117.62189284568427 111.42229804090321 l 3.269390583308165 2.1191794764439327 a24.89613095770731,24.89613095770731 0 0,0 -0.2355358469869317,0.35663129255162773 l -3.2325302974005066 -2.174990647334621" fill="#ff0500" stroke="none" /><path d="M 117.423217284605 111.72311816256416 l 6.902778320166036 4.644497315016245 a29.31983796996957,29.31983796996957 0 0,0 -0.2845563758662696,0.41517625645920875 l -6.822032207484447 -4.762308306545498" fill="#ff4706" stroke="none" /><path d="M 117.21940702142032 112.02048342749411 l 17.506351136525083 12.220792705040258 a42.349943898167,42.349943898167 0 0,0 -0.42125065992525274,0.5925418078503022 l -17.29398537806987 -12.519511739600064" fill="#fff917" stroke="none" /><path d="M 117.01052211995028 112.31430620078461 l 6.9276184313192175 5.015061501575668 a29.552352833842868,29.552352833842868 0 0,0 -0.3010089803669107,0.4083764923162483 l -6.840507431368478 -5.133244303160794" fill="#ff4a06" stroke="none" /><path d="M 116.79662413953412 112.60449989151573 l 7.928490680440172 5.949687216389872 a30.91260522984244,30.91260522984244 0 0,0 -0.3221505966370479,0.42170547217097826 l -7.825188106448819 -6.084913601801728" fill="#ff5e08" stroke="none" /><path d="M 116.57777611688842 112.89097897827486 l 6.549415917619466 5.092865431328924 a29.296512952053554,29.296512952053554 0 0,0 -0.3121244482151744,0.3943590440186056 l -6.46102503876273 -5.204544419262213" fill="#ff4706" stroke="none" /><path d="M 116.1254893667686 113.45245675266167 l 44.71979393502364 37.306842615183264 a79.23796421154358,79.23796421154358 0 0,0 -0.880316563199134,1.0370106979240667 l -44.07278280831739 -38.06902009555689" fill="#47fffe" stroke="none" /><path d="M 115.89218393027572 113.72728997021213 l 34.203876297438235 29.544493702071954 a66.19714882470161,66.19714882470161 0 0,0 -0.7501994770364718,0.853589292648942 l -33.69166575644318 -30.127295272532187" fill="#36ff6e" stroke="none" /><path d="M 115.6541949942343 113.99807769240083 l 6.205065417476598 5.548607758639686 a29.324054594631185,29.324054594631185 0 0,0 -0.3387658602521792,0.37236302346112127 l -6.108901856382539 -5.654308357658479" fill="#ff4706" stroke="none" /><path d="M 115.41159269507618 114.26474011684316 l 19.616250633026493 18.156508732311767 a47.72931159315978,47.72931159315978 0 0,0 -0.5617152819063683,0.5965221637426144 l -19.301679517383864 -18.49057235599888" fill="#c3ff1e" stroke="none" /><path d="M 115.16444852881244 114.52719865689866 l 22.647799854401804 21.6960799465578 a52.36307898297726,52.36307898297726 0 0,0 -0.6273924668809452,0.6437599412795005 l -22.27202058637005 -22.081662579905036" fill="#8dff24" stroke="none" /><path d="M 114.91283532996324 114.78537596483092 l 6.328938245615936 6.27484508137861 a29.91230273902999,29.91230273902999 0 0,0 -0.36465672327191717,0.36154001786941736 l -6.220289602214055 -6.382565109476689" fill="#ff5007" stroke="none" /><path d="M 114.65682725009322 115.03919595460226 l 16.254356220000275 16.67840141234779 a44.28890658227789,44.28890658227789 0 0,0 -0.5490295692527533,0.525957907792831 l -15.96565416488221 -16.954971450446198" fill="#edff1a" stroke="none" /><path d="M 114.39649973595853 115.28858382429668 l 14.115370636499097 14.990034462898844 a41.58992038364005,41.58992038364005 0 0,0 -0.5239740355682639,0.4849825448438411 l -13.855966829616866 -15.230134753875065" fill="#ffef16" stroke="none" /><path d="M 114.13192950727249 115.5334660781643 l 5.57319878790123 6.125921748631666 a29.281754765737887,29.281754765737887 0 0,0 -0.3747157895969046,0.3350731696697739 l -5.467217971480948 -6.220690448184827" fill="#ff4706" stroke="none" /><path d="M 113.86319453409587 115.77377054828091 l 14.947359757609068 17.007351555173862 a43.64229605505294,43.64229605505294 0 0,0 -0.5669768530515723,0.4897411018135776 l -14.653203424794638 -17.26143678945216" fill="#f5ff19" stroke="none" /><path d="M 113.59037401385872 116.0094264158162 l 10.694085912769216 12.597606315345592 a37.52462279103896,37.52462279103896 0 0,0 -0.4946561280691947,0.41265973509016185 l -10.476255450538126 -12.779328234347624" fill="#ffba11" stroke="none" /><path d="M 113.31354834802062 116.24036423190432 l 28.81748914998377 35.15265110478739 a66.45499489169856,66.45499489169856 0 0,0 -0.8884375534233333,0.7156624038432513 l -28.209800826205186 -35.64216180242404" fill="#36ff71" stroke="none" /><path d="M 113.03279911837588 116.46651593811092 l 5.570894074544575 7.038642676435848 a29.976488818928026,29.976488818928026 0 0,0 -0.4062386006009579,0.3158935929395154 l -5.449245529308386 -7.133237320996157" fill="#ff5107" stroke="none" /><path d="M 112.7482090630111 116.68781488649013 l 8.42310484114442 11.026114622355914 a34.87529815284131,34.87529815284131 0 0,0 -0.47886609443893635,0.35935004470330034 l -8.232585757794718 -11.169083694323229" fill="#ff960d" stroke="none" /><path d="M 112.45986205192187 116.90419585922612 l 15.091316802965439 20.47426961453469 a46.43508519930935,46.43508519930935 0 0,0 -0.6457107934810017,0.467444818683783 l -14.73762499911047 -20.73031520459155" fill="#d2ff1c" stroke="none" /><line stroke="#e1ed5e" stroke-width="0.3" x1="143.1302829299769" x2="145.66735839644613" y1="173.24464959558577" y2="177.55315839532614" /><path d="M 143.63769802327073 174.10635135553383 a86.0,86.0 0 0,1 -40.68552437913181,11.842963189579606" fill="none" id="id54" stroke="none" /><text fill="#e1ed5e" style="font-size:6.75px; font-family:Arial;" text-anchor="middle"><textPath startOffset="21.407464694133747" xlink:href="#id54">June</textPath></text><line stroke="#e1ed5e" stroke-width="0.3" x1="101.45913802915013" x2="101.54496967792366" y1="184.9874750549273" y2="189.98673829345242" /><path d="M 101.47630435890484 185.9873277026323 a86.0,86.0 0 0,1 -42.54439059252881,-10.42667462771756" fill="none" id="id55" stroke="none" /><text fill="#e1ed5e" style="font-size:6.75px; font-family:Arial;" text-anchor="middle"><textPath startOffset="22.145653131862474" xlink:href="#id55">July</textPath></text><line stroke="#e1ed5e" stroke-width="0.3" x1="58.13341422392154" x2="55.67067388415222" y1="173.97424548756322" y2="178.32567169271397" /><path d="M 57.64086615596768 174.84453072859336 a86.0,86.0 0 0,1 -31.369924170532247,-30.572349798747897" fill="none" id="id56" stroke="none" /><text fill="#e1ed5e" style="font-size:6.75px; font-family:Arial;" text-anchor="middle"><textPath startOffset="22.145653131862474" xlink:href="#id56">August</textPath></text><line stroke="#e1ed5e" stroke-width="0.3" x1="26.387840678322732" x2="22.057713659400548" y1="142.50000000000003" y2="145.00000000000006" /><path d="M 25.521815274538298 143.00000000000003 a86.0,86.0 0 0,1 -11.493303480769221,-40.785679425670985" fill="none" id="id57" stroke="none" /><text fill="#e1ed5e" style="font-size:6.75px; font-family:Arial;" text-anchor="middle"><textPath startOffset="21.40746469413373" xlink:href="#id57">September</textPath></text><line stroke="#e1ed5e" stroke-width="0.3" x1="15.003131293944662" x2="10.003315487706104" y1="100.72959589197737" y2="100.7725132973878" /><path d="M 14.003168132696942 100.73817937305945 a86.0,86.0 0 0,1 10.791469493833604,-42.45332614584628" fill="none" id="id58" stroke="none" /><text fill="#e1ed5e" style="font-size:6.75px; font-family:Arial;" text-anchor="middle"><textPath startOffset="22.145653131862435" xlink:href="#id58">October</textPath></text><line stroke="#e1ed5e" stroke-width="0.3" x1="26.387840678322718" x2="22.05771365940052" y1="57.49999999999999" y2="54.99999999999999" /><path d="M 25.521815274538284 56.99999999999999 a86.0,86.0 0 0,1 29.574782752854787,-30.34633250058573" fill="none" id="id59" stroke="none" /><text fill="#e1ed5e" style="font-size:6.75px; font-family:Arial;" text-anchor="middle"><textPath startOffset="21.40746469413373" xlink:href="#id59">November</textPath></text><line stroke="#e1ed5e" stroke-width="0.3" x1="56.869717070023135" x2="54.33264160355391" y1="26.7553504044142" y2="22.446841604673864" /><path d="M 56.362301976729285 25.89364864446614 a86.0,86.0 0 0,1 42.16139366436587,-11.88097634709845" fill="none" id="id60" stroke="none" /><text fill="#e1ed5e" style="font-size:6.75px; font-family:Arial;" text-anchor="middle"><textPath startOffset="22.145653131862474" xlink:href="#id60">December</textPath></text></svg>