<?xml version="1.0" encoding="utf-8" ?>
<svg baseProfile="full" height="200mm" version="1.1" viewBox="0,0,200,200" width="200mm" xmlns="http://www.w3.org/2000/svg" xmlns:ev="http://www.w3.org/2001/xml-events" xmlns:xlink="http://www.w3.org/1999/xlink"><defs /><rect fill="#1a1a1a" height="200" width="200" x="0" y="0" /><text alignment-baseline="middle" fill="#e1ed5e" style="dominant-baseline: central; font-size:9.0px; font-family:Arial;" text-anchor="middle" x="100.0" y="100.0">2021</text><line stroke="#e1ed5e" stroke-width="0.3" x1="100.0" x2="100.0" y1="15.0" y2="10.0" /><path d="M 100.0 14.0 a86.0,86.0 0 0,1 42.46469731375804,11.215312516191453" fill="none" id="id13" stroke="none" /><text fill="#e1ed5e" style="font-size:6.75px; font-family:Arial;" text-anchor="middle"><textPath startOffset="22.20632615414155" xlink:href="#id13">January</textPath></text><path d="M 100.0 79.0 l 0.0 -6.507640731438052 a27.50764073143805,27.50764073143805 0 0,0 0.4734988169169881,0.004075553806116073 l -0.11201833764445972 6.506676554240495" fill="#ff1502" stroke="none" /><path d="M 100.36148047927253 79.00311137660856 l 0.9011215132447042 -52.3423784537926 a73.35013469115131,73.35013469115131 0 0,0 1.262227856297667,0.03259962159325867 l -1.801976004737239 52.31911204005698" fill="#3fffbc" stroke="none" /><path d="M 100.72285384407766 79.0124445844662 l 0.4291904579729499 -12.461244543866421 a33.4686334468239,33.4686334468239 0 0,0 0.5755954188914999,0.02478634953459463 l -0.6436267092537813 12.452010467807632" fill="#ff6e0a" stroke="none" /><path d="M 101.08401301168833 79.027996857942 l 0.8962067861651867 -17.338584807314035 a38.36173118453311,38.36173118453311 0 0,0 0.659160403980595,0.03976235565709146 l -1.1945292389853936 17.32058918227664" fill="#ffb410" stroke="none" /><path d="M 101.44485096284872 79.0497635885617 l 0.87745780018844 -12.723075824210936 a33.753297245015986,33.753297245015986 0 0,0 0.5792866413558487,0.044963792414483096 l -1.0963346309066297 12.706086769607989" fill="#ff730a" stroke="none" /><path d="M 101.80526077348638 79.07773832637324 l 1.6787828533152847 -19.456432370392516 a40.528724291469814,40.528724291469814 0 0,0 0.6945366430279635,0.06595462305502145 l -2.013444623433492 19.42465220282232" fill="#ffd213" stroke="none" /><path d="M 102.16513564639614 79.11191278185805 l 1.9009549146797442 -18.33941079935518 a39.437668454963344,39.437668454963344 0 0,0 0.6746344592841429,0.07580304212034089 l -2.216356077473612 18.303971803764234" fill="#ffc312" stroke="none" /><path d="M 102.88285421437855 79.19881850522331 l 2.83330043795524 -20.443627133549548 a41.63902812022215,41.63902812022215 0 0,0 0.70911467050452,0.10450506933867751 l -3.184784088888416 20.391827580049902" fill="#ffe115" stroke="none" /><path d="M 103.2404852339499 79.25152402106235 l 7.717641969883988 -49.41522564230097 a71.01426319416126,71.01426319416126 0 0,0 1.2061292204249692,0.19902165588406937 l -8.567100396447833 49.27505772347727" fill="#3cffa2" stroke="none" /><path d="M 103.95276090670814 79.375362276772 l 2.1331728316315237 -11.130427033612962 a32.3329974975817,32.3329974975817 0 0,0 0.5457095426551587,0.10946420048778961 l -2.324448783753808 11.092058877047965" fill="#ff5e08" stroke="none" /><path d="M 104.307194497241 79.44645832069477 l 2.185633991162474 -10.429647270825473 a31.656197170527676,31.656197170527676 0 0,0 0.5323626836382072,0.116353863008592 l -2.364839398954209 10.39047990972101" fill="#ff5407" stroke="none" /><path d="M 104.66035177308747 79.52364482259891 l 2.7323343670367035 -12.005155766556506 a33.31216536895825,33.31216536895825 0 0,0 0.5580205101327066,0.13206542582881728 l -2.9385785641319337 11.956344428586819" fill="#ff6c0a" stroke="none" /><path d="M 105.01212808612495 79.60689891045804 l 2.53617971196575 -10.319083702298178 a31.626179745629308,31.626179745629308 0 0,0 0.5275414118925544,0.1344820520909302 l -2.7134300125433293 10.27389865403838" fill="#ff5307" stroke="none" /><path d="M 105.71112130821622 79.79150937346287 l 6.136447900046355 -21.713485526899508 a43.56394129040531,43.56394129040531 0 0,0 0.719862561061569,0.21014762150502622 l -6.509300678831352 21.604639576475776" fill="#fffa17" stroke="none" /><path d="M 106.0581310904928 79.89281104454417 l 3.6509977974783148 -12.117813479648225 a33.6558756490705,33.6558756490705 0 0,0 0.5532619318232518,0.17190117535856964 l -3.859045102012285 12.053172169407134" fill="#ff710a" stroke="none" /><path d="M 106.40334571778207 80.00007090966166 l 4.756201530740734 -14.855311199271215 a36.598132062148125,36.598132062148125 0 0,0 0.5983222576559994,0.1972574412944374 l -5.01120661063915 14.771240033717541" fill="#ff9b0e" stroke="none" /><path d="M 106.74666289553966 80.11325718540242 l 5.996903573592938 -17.67672120254122 a39.66626167563666,39.66626167563666 0 0,0 0.6447051876871466,0.22492498086584656 l -6.300290765343358 17.570875368503163" fill="#ffc612" stroke="none" /><path d="M 107.08798089147638 80.2323363322302 l 4.788020494590721 -13.353306141848751 a35.18576487802319,35.18576487802319 0 0,0 0.568363491801714,0.20933307064739093 l -5.017166312165012 13.268909803395037" fill="#ff870c" stroke="none" /><path d="M 107.4271985657038 80.35727306442388 l 3.10856412250055 -8.221225766329159 a29.78929599027431,29.78929599027431 0 0,0 0.47807115483477897,0.18548418079487833 l -3.249618442334996 8.166498881643735" fill="#ff3805" stroke="none" /><path d="M 107.76421540070413 80.48803036053334 l 4.163477945153248 -10.463086231874993 a32.261026689224636,32.261026689224636 0 0,0 0.514204096024906,0.2097567616645061 l -4.342965910766543 10.389868584026908" fill="#ff5d08" stroke="none" /><path d="M 108.09893153111575 80.62456947434976 l 12.205934681909387 -29.200795008743498 a52.649190678462816,52.649190678462816 0 0,0 0.8331514857927583,0.3567119858147011 l -12.70676992549246 28.986363494966007" fill="#93ff23" stroke="none" /><path d="M 108.76106565485865 80.91482961587045 l 10.833998312023327 -23.600862254886636 a46.9687546601499,46.9687546601499 0 0,0 0.7318666625202187,0.3436212113137892 l -11.238643185843143 23.410876060932846" fill="#d8ff1c" stroke="none" /><path d="M 109.73455568895987 81.39251694778311 l 3.115616396636218 -5.955462288162426 a27.721204995885284,27.721204995885284 0 0,0 0.4209068347210548,0.22483385418119609 l -3.2176682778855836 5.900949707479477" fill="#ff1802" stroke="none" /><path d="M 110.05341064243156 81.56283822128135 l 24.53580550820567 -44.99673112094743 a72.25145425748751,72.25145425748751 0 0,0 1.0867854252120979,0.6047949124929185 l -25.3067150224898 44.56772081089433" fill="#3dffb0" stroke="none" /><path d="M 110.36928655335952 81.73862282372117 l 21.384973423939133 -37.66113161109701 a64.30909745735823,64.30909745735823 0 0,0 0.9579093246127287,0.5548829095843547 l -22.03007948101719 37.28744454412261" fill="#33ff50" stroke="none" /><line stroke="#e1ed5e" stroke-width="0.3" x1="143.23703022742887" x2="145.7803849466894" y1="26.81831364943548" y2="22.513508569990506" /><path d="M 143.74570117128098 25.957352633546492 a86.0,86.0 0 0,1 28.547481713284135,27.462654790039103" fill="none" id="id14" stroke="none" /><text fill="#e1ed5e" style="font-size:6.75px; font-family:Arial;" text-anchor="middle"><textPath startOffset="19.985693538727396" xlink:href="#id14">February</textPath></text><path d="M 110.68208982089419 81.91981866633111 l 6.730971487076523 -11.392638245753975 a34.23246701709297,34.23246701709297 0 0,0 0.5047462074021687,0.3041039423159448 l -6.92607976069633 11.275087693979417" fill="#ff7a0b" stroke="none" /><path d="M 111.2981086023043 82.29822771554956 l 33.894325806912875 -53.10531685335132 a84.0,84.0 0 0,0 1.2121318968628794,0.7884043033618879 l -34.803424729560035 52.514013625829904" fill="#4dd2ff" stroke="none" /><path d="M 111.60114157652 82.49532879139004 l 14.34474896750108 -21.644431506151488 a46.96638669828951,46.96638669828951 0 0,0 0.6700432845473606,0.4524162167351506 l -14.71519694645498 21.394303377117666" fill="#d8ff1c" stroke="none" /><path d="M 111.90073688211348 82.69761687909136 l 18.727499228214647 -27.227756545907734 a54.046481716909014,54.046481716909014 0 0,0 0.7619752500684903,0.5338123573032745 l -19.193405617866787 26.901359345840525" fill="#83ff25" stroke="none" /><path d="M 112.19680574252982 82.90503203632743 l 16.96255007290707 -23.77460592550134 a50.20547879916991,50.20547879916991 0 0,0 0.6991822580722764,0.5079856453163253 l -17.369277647333135 23.47910104536834" fill="#b1ff20" stroke="none" /><path d="M 112.77801427241765 83.33499621200491 l 20.83759026774558 -27.176250811853823 a55.24549278890918,55.24549278890918 0 0,0 0.7496746151911222,0.585132928298378 l -21.302297438096133 26.81353949433222" fill="#76ff27" stroke="none" /><path d="M 113.06298171725822 83.55741782278167 l 16.19584293009288 -20.385964251603223 a47.03637583620048,47.03637583620048 0 0,0 0.6296078757809165,0.5090991159219617 l -16.544354204438285 20.104159038417134" fill="#d8ff1c" stroke="none" /><path d="M 113.34407831869373 83.78471172551755 l 10.175486637398567 -12.364919121271598 a37.01348660296891,37.01348660296891 0 0,0 0.488476611565596,0.4090851143508789 l -10.38682078592328 12.1879328495269" fill="#ffa10e" stroke="none" /><path d="M 115.4437574822437 85.77008943001954 l 17.449198106380265 -16.07772777169965 a44.72694343687334,44.72694343687334 0 0,0 0.5168227267030563,0.5706885632315595 l -17.72336447369936 15.774986421198541" fill="#f5ff19" stroke="none" /><path d="M 115.9244219780498 86.31012108654704 l 11.408950969736454 -9.80802678555629 a36.045316602053944,36.045316602053944 0 0,0 0.4004280855597997,0.47398055178298 l -11.576089668783371 9.610187284144203" fill="#ff940d" stroke="none" /><path d="M 116.15771136456269 86.58626213691792 l 19.839899521363638 -16.470600656546754 a46.78569950583547,46.78569950583547 0 0,0 0.5090763279211151,0.6240673841687127 l -20.12047434136116 16.126649102769942" fill="#dbff1b" stroke="none" /><path d="M 116.38621287248628 86.86637796730983 l 24.48826974598742 -19.627456422123306 a52.38331404989907,52.38331404989907 0 0,0 0.5578721158202284,0.7084409342913336 l -24.822495942401613 19.203023093878937" fill="#97ff23" stroke="none" /><path d="M 117.2510076193507 88.02491185347247 l 21.182347554545483 -14.7040964048691 a46.78569950583547,46.78569950583547 0 0,0 0.45354398933154916,0.6655198399552352 l -21.43231600954577 14.337298541643458" fill="#dbff1b" stroke="none" /><path d="M 117.45458315368197 88.32363383020206 l 10.000815737461503 -6.69011602964838 a33.0322054464182,33.0322054464182 0 0,0 0.31208098581512617,0.4753207520421845 l -10.114493358634554 6.516977213628522" fill="#ff6809" stroke="none" /><path d="M 117.65298651832404 88.62581576622439 l 41.71542948178716 -26.878113786831832 a70.62469201504264,70.62469201504264 0 0,0 0.6496543581397546,1.0275971797455237 l -42.17191143617287 26.156068959372103" fill="#3bff9d" stroke="none" /><line stroke="#e1ed5e" stroke-width="0.3" x1="172.23445277983987" x2="176.4835382374775" y1="55.19839476539836" y2="52.563006222186495" /><path d="M 173.08426987136738 54.67131705675599 a86.0,86.0 0 0,1 12.851231095245387,41.99856678651699" fill="none" id="id15" stroke="none" /><text fill="#e1ed5e" style="font-size:6.75px; font-family:Arial;" text-anchor="middle"><textPath startOffset="22.20632615414155" xlink:href="#id15">March</textPath></text><path d="M 118.03404312379186 89.2402003453031 l 4.759639341044906 -2.839782814464552 a26.54243025126619,26.54243025126619 0 0,0 0.23071732659117916,0.394370699264563 l -4.807816342106412 2.757432702846094" fill="#ff0600" stroke="none" /><path d="M 118.21658344932153 89.55222093294921 l 6.446895886414471 -3.6974959699177625 a28.431954185665163,28.431954185665163 0 0,0 0.23983349652924807,0.42663702898483574 l -6.509587024236152 3.585975430998133" fill="#ff2303" stroke="none" /><path d="M 118.73160827565052 90.50648371742162 l 10.524351776273438 -5.333930940757135 a32.79884738402511,32.79884738402511 0 0,0 0.2508955437577589,0.5057901063620397 l -10.614607332984605 5.151981245896145" fill="#ff6509" stroke="none" /><path d="M 118.89224826269711 90.83032412892265 l 18.747523904662483 -9.099431428204568 a41.83912917740298,41.83912917740298 0 0,0 0.30889591217869694,0.6506135693274335 l -18.901378010682937 8.775375443236594" fill="#ffe315" stroke="none" /><path d="M 119.04729006885535 91.15688171328212 l 11.154003280322904 -5.178488384529666 a33.29750101143166,33.29750101143166 0 0,0 0.236884262000881,0.5219430711201171 l -11.241489859287132 4.985723304567486" fill="#ff6c09" stroke="none" /><path d="M 119.196687751892 91.48605970444005 l 10.674235579193729 -4.734139847278607 a32.67695959116569,32.67695959116569 0 0,0 0.22361822225456318,0.5161416880332702 l -10.754144511290974 4.549699014658734" fill="#ff6309" stroke="none" /><path d="M 119.47837535516314 92.15188598940014 l 7.249145478738838 -2.920783646439304 a28.815439033171906,28.815439033171906 0 0,0 0.18140890015123542,0.461665863670264 l -7.298347928771774 2.7955687778732554" fill="#ff2904" stroke="none" /><path d="M 119.61058180528143 92.48833698450437 l 5.421629335656015 -2.0767080226760775 a26.805754116795946,26.805754116795946 0 0,0 0.16133925343412744,0.4323089863733089 l -5.4565731775917685 1.9830758992734354" fill="#ff0a01" stroke="none" /><path d="M 119.7369772167798 92.82701384747503 l 33.36301123534106 -12.12507948756104 a56.49800094750643,56.49800094750643 0 0,0 0.3243171406964934,0.9168882297648367 l -33.566781456847366 11.548993631369589" fill="#67ff28" stroke="none" /><path d="M 119.85752413597 93.16781622104841 l 20.691017670567057 -7.118955733397801 a42.881447460755325,42.881447460755325 0 0,0 0.23413822918256497,0.7000435035795507 l -20.810493193521392 6.761739126895937" fill="#fff116" stroke="none" /><path d="M 119.97218684219823 93.5106431181261 l 16.93514101296256 -5.50256087359323 a38.80666103727832,38.80666103727832 0 0,0 0.20095293243190632,0.6370757111499078 l -17.027349429162673 5.2102349960169025" fill="#ffba11" stroke="none" /><path d="M 120.08093135843002 93.85539295169968 l 18.005148838378563 -5.509433924316091 a39.82921259263302,39.82921259263302 0 0,0 0.19496229415271435,0.657315934934841 l -18.097317029642976 5.1986886026347205" fill="#ffc812" stroke="none" /><path d="M 120.18372546131832 94.20196356495316 l 11.039718814524013 -3.171302148453897 a32.48618948218006,32.48618948218006 0 0,0 0.14976632932204287,0.5387891710301641 l -11.09267191441242 2.9808016740047814" fill="#ff6008" stroke="none" /><path d="M 120.45610955862082 95.25157060432595 l 32.792865857510776 -7.612132099702082 a54.66476802611316,54.66476802611316 0 0,0 0.20487733699460248,0.9184249293380882 l -32.91903758150742 7.046529000814029" fill="#7cff26" stroke="none" /><path d="M 120.53481517161879 95.60439243477599 l 9.650278715954071 -2.065703429802241 a30.86889101953674,30.86889101953674 0 0,0 0.10674860000771368,0.5205440846312666 l -9.684406611876781 1.8992836890075628" fill="#ff4806" stroke="none" /><path d="M 120.6074358757038 95.95851677861258 l 21.300334812886977 -4.177372977184007 a42.70609840877886,42.70609840877886 0 0,0 0.1352650104902017,0.7225910947942996 l -21.369085547287035 3.810103804927144" fill="#ffef16" stroke="none" /><path d="M 120.67395015179393 96.31383870115 l 12.066825064408578 -2.151512566579169 a33.2571315347102,33.2571315347102 0 0,0 0.0956350602170589,0.5644435389914392 l -12.102071986145859 1.9434832392718915" fill="#ff6b09" stroke="none" /><path d="M 120.98425023603335 99.18683210126433 l 7.062644971183019 -0.2736869845781323 a28.067945851129892,28.067945851129892 0 0,0 0.01455297002045294,0.48294222554627964 l -7.066309635659117 0.1520746116068536" fill="#ff1e03" stroke="none" /><line stroke="#e1ed5e" stroke-width="0.3" x1="184.98032266829074" x2="189.97916517819016" y1="98.17113171792111" y2="98.06355123074" /><path d="M 185.9800911702706 98.14961562048488 a86.0,86.0 0 0,1 -9.607161424134198,41.387399972396054" fill="none" id="id16" stroke="none" /><text fill="#e1ed5e" style="font-size:6.75px; font-family:Arial;" text-anchor="middle"><textPath startOffset="21.466115282336823" xlink:href="#id16">April</textPath></text><path d="M 120.99824983174949 100.27111621757518 l 37.442084541960114 0.4834286866993039 a58.44520527574141,58.44520527574141 0 0,0 -0.02164681633317087,1.0058424954709644 l -37.42821566294193 -1.1278609979603833" fill="#52ff2b" stroke="none" /><path d="M 120.9904718944345 100.63252640178507 l 39.26267696926255 1.1831406131656315 a60.280499290400854,60.280499290400854 0 0,0 -0.0401808771776272,1.036889900240421 l -39.23649395923372 -1.8588077604200588" fill="#3eff2d" stroke="none" /><path d="M 120.9764740272857 100.99374915477107 l 20.159635552373395 0.9550518721404031 a41.18224540736229,41.18224540736229 0 0,0 -0.03964016468228949,0.7078017691586984 l -20.140209036803576 -1.3019253576345249" fill="#ffda14" stroke="none" /><path d="M 120.95626037817324 101.35467743843564 l 15.033232216155598 0.9717945922833136 a36.06460937410757,36.06460937410757 0 0,0 -0.045378623337633754,0.6191552619579133 l -15.014277034153626 -1.230422990737997" fill="#ff940d" stroke="none" /><path d="M 120.92983693683757 101.71520430193887 l 23.077987364349905 1.8912456569479983 a44.15535166919342,44.15535166919342 0 0,0 -0.0685993416540548,0.7569880188615511 l -23.042013426418777 -2.28821506435812" fill="#fcff18" stroke="none" /><path d="M 120.89721153311464 102.0752229133903 l 9.662568285183411 0.9595530521302219 a30.71009618519223,30.71009618519223 0 0,0 -0.05676644069478518,0.525586739249044 l -9.644619542987575 -1.1257361132640573" fill="#ff4606" stroke="none" /><path d="M 120.70491114924044 103.5080841355445 l 18.137235361553476 3.0730364972774398 a39.39572939227975,39.39572939227975 0 0,0 -0.11903805650394005,0.6676286377095517 l -18.081650862710347 -3.38478388572021" fill="#ffc212" stroke="none" /><path d="M 120.64145759157962 103.86396538481128 l 11.846310503826064 2.217563053453304 a33.05208108374238,33.05208108374238 0 0,0 -0.10949692839474959,0.5583224788711834 l -11.806383642455652 -2.421149259392432" fill="#ff6809" stroke="none" /><path d="M 120.5718875245553 104.21870165774334 l 12.820224565387864 2.6290588339104186 a34.08702060283917,34.08702060283917 0 0,0 -0.12282034194921615,0.5737757485895225 l -12.773070184714205 -2.84934840191611" fill="#ff770b" stroke="none" /><path d="M 120.49622156327973 104.57218783832717 l 11.763158599482592 2.624062709451981 a33.05228631172184,33.05228631172184 0 0,0 -0.12865119894387994,0.5542259979355363 l -11.716246834608159 -2.826157364736082" fill="#ff6809" stroke="none" /><path d="M 120.32669344350535 105.2749913415812 l 5.5026002715939315 1.4279828083949695 a26.6848698006214,26.6848698006214 0 0,0 -0.1192075699316909,0.44361571402033 l -5.477204625320463 -1.522489455590848" fill="#ff0801" stroke="none" /><path d="M 120.23288151984713 105.62410040840565 l 26.229353730988496 7.2909298107619955 a48.223825128933996,48.223825128933996 0 0,0 -0.2291948964468933,0.7978575020772574 l -26.099966197655505 -7.741344788343834" fill="#c9ff1d" stroke="none" /><path d="M 120.13307415673323 105.97154293290107 l 19.14671258617682 5.6789845078891945 a40.971165912347416,40.971165912347416 0 0,0 -0.20636440251122404,0.6744108075710995 l -19.046121411159465 -6.007722288012351" fill="#ffd814" stroke="none" /><path d="M 120.02730092923936 106.31721596034902 l 6.901592290436954 2.1769707821844753 a28.236793345806117,28.236793345806117 0 0,0 -0.15020326777044843,0.4622781244470388 l -6.863096771650259 -2.295447806609309" fill="#ff2003" stroke="none" /><path d="M 119.9155931802556 106.66101706037122 l 11.406058595764462 3.814897714083845 a33.027120073356485,33.027120073356485 0 0,0 -0.18496629276979043,0.537598627591455 l -11.33870147205144 -4.010669044764601" fill="#ff6809" stroke="none" /><path d="M 119.79798401119884 107.00284435728193 l 16.112987523965884 5.699405742389318 a38.09127241500353,38.09127241500353 0 0,0 -0.22396895289018012,0.6162663675160494 l -16.01249431007048 -5.975919906911498" fill="#ffb010" stroke="none" /><path d="M 119.54520255179757 107.68017299344265 l 8.530695330511861 3.3520868212572656 a30.16565594375348,30.16565594375348 0 0,0 -0.19406196462914505,0.4816458813036539 l -8.471730751625325 -3.4984320704037333" fill="#ff3d05" stroke="none" /><path d="M 119.41010516605496 108.01547362559984 l 12.500732726705667 5.162223110816208 a34.52467619391958,34.52467619391958 0 0,0 -0.23156032221746778,0.5473401999087043 l -12.410021423295891 -5.376637836391076" fill="#ff7e0b" stroke="none" /><path d="M 119.26925614724726 108.34839909993367 l 6.1757706566132455 2.6756506736474175 a27.730471731645196,27.730471731645196 0 0,0 -0.19353085032762002,0.4363609768364121 l -6.128798721554353 -2.7815599869765175" fill="#ff1802" stroke="none" /><path d="M 118.97047184881838 109.00673069616215 l 18.245891885153988 8.662717291932221 a41.19790190996752,41.19790190996752 0 0,0 -0.3096645071807055,0.6380006043895576 l -18.094074121358567 -8.975506852287054" fill="#ffdb14" stroke="none" /><line stroke="#e1ed5e" stroke-width="0.3" x1="174.80103733775053" x2="179.2010983576182" y1="140.37084112569926" y2="142.7455964860345" /><path d="M 175.68104954172406 140.8457921977663 a86.0,86.0 0 0,1 -30.038265399797805,32.042727171017184" fill="none" id="id17" stroke="none" /><text fill="#e1ed5e" style="font-size:6.75px; font-family:Arial;" text-anchor="middle"><textPath startOffset="22.206326154141568" xlink:href="#id17">May</textPath></text><path d="M 118.48025628344425 109.97397251340804 l 18.12906316613055 9.784430201588329 a41.60092244661159,41.60092244661159 0 0,0 -0.3455324887270136,0.6272418337354164 l -17.957954267952026 -10.09504255372155" fill="#ffe015" stroke="none" /><path d="M 118.30583269289576 110.29060199501025 l 11.215682027744386 6.3048822627390395 a33.8663539394216,33.8663539394216 0 0,0 -0.2900379120762844,0.5057055470733658 l -11.105492119515722 -6.49700765567072" fill="#ff740a" stroke="none" /><path d="M 117.94076556474637 110.91462005526583 l 9.501938300371831 5.7806923546745 a32.122195626919414,32.122195626919414 0 0,0 -0.29144829135387035,0.4699074448186672 l -9.401025369349998 -5.94339613085844" fill="#ff5b08" stroke="none" /><line stroke="#e1ed5e" stroke-width="0.3" x1="143.8653032363475" x2="146.44561519142675" y1="172.8068346515853" y2="177.08958963109032" /><path d="M 144.38136562736335 173.6633856474863 a86.0,86.0 0 0,1 -40.68145358897372,12.25698825130547" fill="none" id="id18" stroke="none" /><text fill="#e1ed5e" style="font-size:6.75px; font-family:Arial;" text-anchor="middle"><textPath startOffset="21.466115282336833" xlink:href="#id18">June</textPath></text><path d="M 108.2653958097858 119.30500536409082 l 3.943491808680784 9.210584982475707 a31.01928157926203,31.01928157926203 0 0,0 -0.4926578910746931,0.20593103842495974 l -3.7843624581086295 -9.27710106392064" fill="#ff4a06" stroke="none" /><path d="M 107.93186726928326 119.44442032107085 l 4.067740916156702 9.971783622409994 a31.769539673223715,31.769539673223715 0 0,0 -0.5081294666708391,0.20219520138537792 l -3.8954903734439967 -10.040325668201442" fill="#ff5507" stroke="none" /><path d="M 107.59598834532513 119.57807347666477 l 5.491920106498075 14.155000045407489 a36.18305676540939,36.18305676540939 0 0,0 -0.5825985236336344,0.22028891066422374 l -5.247451362104166 -14.247437206178343" fill="#ff950d" stroke="none" /><path d="M 106.57524785965236 119.94407469862006 l 8.030878564689186 24.359301034497566 a46.64898745389491,46.64898745389491 0 0,0 -0.7647738406426923,0.24485643301189994 l -7.610383378955552 -24.493930314169173" fill="#dcff1b" stroke="none" /><path d="M 106.2309692047433 120.05430185196036 l 3.731500885361152 12.009792161855614 a33.57613639511037,33.57613639511037 0 0,0 -0.5534067175216841,0.16673690432475707 l -3.524219193399222 -12.072244435286096" fill="#ff700a" stroke="none" /><path d="M 105.88484417918355 120.15858648285463 l 1.9207135982724686 6.57942164663096 a27.854044786164213,27.854044786164213 0 0,0 -0.4614073344440448,0.13039832158717793 l -1.807175095723818 -6.611508761556657" fill="#ff1a02" stroke="none" /><path d="M 104.48393922423573 120.51570834832081 l 2.1356238831463825 9.771282467774187 a31.00194233313192,31.00194233313192 0 0,0 -0.5223215195112431,0.1094575528505901 l -1.9671109022057616 -9.806596001351318" fill="#ff4a06" stroke="none" /><path d="M 104.13013068566511 120.58985236759428 l 1.8183533820484223 9.064998310692335 a30.245572096677513,30.245572096677513 0 0,0 -0.5113408385774721,0.09799968871482548 l -1.6620449288992458 -9.09495519775563" fill="#ff3f05" stroke="none" /><path d="M 103.7750983002368 120.6578951692458 l 3.086395322662222 16.88921081138661 a38.16890438901707,38.16890438901707 0 0,0 -0.6473283121873056,0.11254632457446397 l -2.7952180390028665 -16.939835714482083" fill="#ffb110" stroke="none" /><path d="M 103.41894727170886 120.7198165907248 l 1.837824137166441 11.137749728752866 a32.28835978251429,32.28835978251429 0 0,0 -0.549154482724724,0.08576663626925157 l -1.6458337908331997 -11.167734672369223" fill="#ff5d08" stroke="none" /><line stroke="#e1ed5e" stroke-width="0.3" x1="102.19456741930631" x2="102.32365962044197" y1="184.97166512339345" y2="189.96999836594603" /><path d="M 102.22038585953345 185.97133177190398 a86.0,86.0 0 0,1 -42.740103519485714,-10.115201625700543" fill="none" id="id19" stroke="none" /><text fill="#e1ed5e" style="font-size:6.75px; font-family:Arial;" text-anchor="middle"><textPath startOffset="22.20632615414155" xlink:href="#id19">July</textPath></text><path d="M 100.54218724476979 120.99299961872073 l 0.46294236347991896 17.92470950538495 a38.93068672651279,38.93068672651279 0 0,0 -0.6700533087201037,0.011535575366363965 l -0.1543293648671473 -17.930022558030473" fill="#ffbc11" stroke="none" /><path d="M 99.81925306533755 120.99922214144158 l -0.09254212372463727 10.751566089702374 a31.751964351963853,31.751964351963853 0 0,0 -0.5464971353281318,-0.009408443791019409 l 0.27759894894543696 -10.748380168632195" fill="#ff5507" stroke="none" /><path d="M 99.45781275523022 120.99299961872073 l -0.18251439807293482 7.0667923786792155 a28.069148889991112,28.069148889991112 0 0,0 -0.4828958209413368,-0.01663190845934025 l 0.30413057068891464 -7.062603671793782" fill="#ff1e03" stroke="none" /><path d="M 99.09653310690486 120.98055641714683 l -0.47042341778435537 10.924301855665666 a31.93442587544953,31.93442587544953 0 0,0 -0.5489861318762997,-0.028376312274953724 l 0.6583976180741441 -10.91458573662851" fill="#ff5808" stroke="none" /><path d="M 98.01472825383883 120.90594882070398 l -2.304081724726973 24.26318447789505 a45.372339108148566,45.372339108148566 0 0,0 -0.7768768647165462,-0.08052646348571822 l 2.7213911860491127 -24.21992864595357" fill="#edff1a" stroke="none" /><path d="M 97.65516085044442 120.86867818915974 l -1.468607284192655 13.07036041507626 a34.15260919875506,34.15260919875506 0 0,0 -0.5836397558417168,-0.07067064644674748 l 1.693374463085761 -13.043144239904164" fill="#ff780b" stroke="none" /><path d="M 95.16358092515715 120.4354850818985 l -1.6332619217162683 6.901076833824656 a28.091713895193436,28.091713895193436 0 0,0 -0.4695954232781508,-0.11541512984188429 l 1.7518106297376295 -6.871940445668742" fill="#ff1e03" stroke="none" /><path d="M 94.46302465271185 120.25689768951611 l -3.4364447389080395 12.572154493306504 a34.03335033854057,34.03335033854057 0 0,0 -0.5637686584645024,-0.15932665421498884 l 3.652344565477156 -12.511139045752993" fill="#ff770a" stroke="none" /><path d="M 94.11515582081647 120.15858648285463 l -1.7098028299755628 5.856944919393594 a27.10141209116405,27.10141209116405 0 0,0 -0.4466893787028375,-0.13458384555431757 l 1.810367183118646 -5.82664570473355" fill="#ff0f01" stroke="none" /><path d="M 91.40352486487194 119.15986991738527 l -2.319135700183778 5.1689020950821964 a26.665327816147272,26.665327816147272 0 0,0 -0.417162551950364,-0.19149886706930805 l 2.407766247901561 -5.128216157678814" fill="#ff0801" stroke="none" /><path d="M 91.07499286063937 119.00905698771935 l -3.364529891140495 7.165993196298612 a28.91653458767003,28.91653458767003 0 0,0 -0.4487396336883098,-0.2154222940330222 l 3.4873821928290467 -7.107016625766028" fill="#ff2b04" stroke="none" /><path d="M 90.7491055286396 118.85261126421891 l -2.27687700645506 4.640100179720605 a26.16862637268036,26.16862637268036 0 0,0 -0.4026804454115008,-0.20191233483824653 l 2.3564113595493215 -4.600220003973056" fill="#ff0000" stroke="none" /><line stroke="#e1ed5e" stroke-width="0.3" x1="58.666819895761336" x2="56.23545636021788" y1="174.27360380694188" y2="178.64263932499728" /><path d="M 58.180547188652646 175.14741091055294 a86.0,86.0 0 0,1 -31.652253787137756,-30.449443065178592" fill="none" id="id20" stroke="none" /><text fill="#e1ed5e" style="font-size:6.75px; font-family:Arial;" text-anchor="middle"><textPath startOffset="22.20632615414155" xlink:href="#id20">August</textPath></text><path d="M 89.1626897886671 117.98757091392108 l -3.7422278544441485 6.211281913612935 a28.251502763217623,28.251502763217623 0 0,0 -0.414383356392423,-0.2545481024871771 l 3.8485904107688804 -6.14594534429738" fill="#ff2003" stroke="none" /><path d="M 87.65650970185807 116.9893568818739 l -14.865936195120423 20.461205809841786 a46.29144128257808,46.29144128257808 0 0,0 -0.6406185037001773,-0.4739142540119781 l 15.215939669239164 -20.20228160709004" fill="#e1ff1b" stroke="none" /><path d="M 86.79598089348748 116.32954008644616 l -5.233065407094678 6.47178337526031 a29.322797222762713,29.322797222762713 0 0,0 -0.38975564854761485,-0.32074236432522385 l 5.343691184186982 -6.380745892077906" fill="#ff3104" stroke="none" /><path d="M 86.24171649860922 115.8653595955263 l -4.211584899411495 4.856587588814939 a27.428366073333272,27.428366073333272 0 0,0 -0.3540318272121187,-0.3123919249399712 l 4.294559079530201 -4.783372522102679" fill="#ff1402" stroke="none" /><path d="M 85.97065885151581 115.62618273729859 l -11.465036340410578 12.770004738560482 a38.16158731906208,38.16158731906208 0 0,0 -0.4850164213579827,-0.44305100128215863 l 11.683152311235414 -12.57076097069175" fill="#ffb110" stroke="none" /><path d="M 85.70375840098266 115.38237550388516 l -15.200693713569551 16.355541909542534 a43.32856557256993,43.32856557256993 0 0,0 -0.5419457868172312,-0.512443567986147 l 15.479975334777599 -16.091463704810455" fill="#fff717" stroke="none" /><path d="M 85.44109423537348 115.13401014063109 l -3.8108429217566826 3.9613784411151003 a26.496821165731564,26.496821165731564 0 0,0 -0.3259740480979435,-0.3190342145063954 l 3.8784669222304204 -3.895194123686135" fill="#ff0500" stroke="none" /><path d="M 82.44556493220864 111.52570212397912 l -4.636722896633061 3.0443296370203314 a26.546813694275446,26.546813694275446 0 0,0 -0.24751128638927505,-0.38414301298094333 l 4.688439046399381 -2.96406502411794" fill="#ff0601" stroke="none" /><line stroke="#e1ed5e" stroke-width="0.3" x1="26.63291911575756" x2="22.317208475507996" y1="142.92168965132927" y2="145.44649492493687" /><path d="M 25.769776987707644 143.4266507060508 a86.0,86.0 0 0,1 -11.730757126820373,-40.83630448921669" fill="none" id="id21" stroke="none" /><text fill="#e1ed5e" style="font-size:6.75px; font-family:Arial;" text-anchor="middle"><textPath startOffset="21.46611528233685" xlink:href="#id21">September</textPath></text><path d="M 80.32549172779594 107.34259656027581 l -6.444067296515948 2.4049488663679424 a27.8782106955131,27.8782106955131 0 0,0 -0.16391822226097796,-0.4510325475870573 l 6.484509779782151 -2.2936685217747677" fill="#ff1b02" stroke="none" /><path d="M 80.20201598880116 107.00284435728193 l -14.512948989893653 5.133448076526812 a36.3940890453983,36.3940890453983 0 0,0 -0.2038227891051165,-0.5924044324721873 l 14.599162609941997 -4.8828709409653275" fill="#ff980e" stroke="none" /><path d="M 79.50377843672027 104.57218783832718 l -17.225583780811675 3.8425913980074258 a38.6489729231421,38.6489729231421 0 0,0 -0.13925769945440988,-0.6505656105756954 l 17.289175518990525 -3.5455119680155667" fill="#ffb811" stroke="none" /><line stroke="#e1ed5e" stroke-width="0.3" x1="15.007084014347285" x2="10.007500721073583" y1="101.09737516637583" y2="101.16192664675087" /><path d="M 14.007167355692545 101.11028546245083 a86.0,86.0 0 0,1 10.666146001902534,-42.60595125391555" fill="none" id="id22" stroke="none" /><text fill="#e1ed5e" style="font-size:6.75px; font-family:Arial;" text-anchor="middle"><textPath startOffset="22.20632615414155" xlink:href="#id22">October</textPath></text><path d="M 79.00175016825051 100.2711162175752 l -48.56077739300947 0.6269862676553987 a69.56482485084496,69.56482485084496 0 0,0 -0.005153437455986078,-1.1974773730477082 l 48.56437512775496 0.2090005835959849" fill="#3aff91" stroke="none" /><path d="M 79.00019446554 99.90962569577889 l -18.034083051120824 -0.07761108574726867 a39.03425005303393,39.03425005303393 0 0,0 0.00867488415061051,-0.6718793375225174 l 18.030075159852498 0.38802668133025797" fill="#ffbd11" stroke="none" /><path d="M 79.00486145842228 99.54816195383935 l -10.970758968328038 -0.23610257619077607 a31.97329926538204,31.97329926538204 0 0,0 0.016577859602979948,-0.5501384528522394 l 10.965069414269413 0.42491117646800985" fill="#ff5808" stroke="none" /><path d="M 79.01574976396665 99.18683210126434 l -28.357820408231678 -1.098903652725586 a49.379104417572705,49.379104417572705 0 0,0 0.04022372882123659,-0.849059341432772 l 28.334703071176943 1.5868741007813671" fill="#bbff1f" stroke="none" /><path d="M 79.32604984820605 96.31383870115002 l -5.930331045994933 -1.05737687430857 a27.023858578138594,27.023858578138594 0 0,0 0.08559392335653165,-0.4572461611601787 l 5.91125139872854 1.1593011129313213" fill="#ff0d01" stroke="none" /><path d="M 79.71946130924805 94.55025226153421 l -13.801859394411977 -3.708809374753872 a35.291486616912195,35.291486616912195 0 0,0 0.16269918051892043,-0.5853155178196277 l 13.735973443326696 3.945836195992442" fill="#ff890c" stroke="none" /><path d="M 80.14247586403 93.16781622104843 l -5.266857034549578 -1.8121158987954993 a26.569878549219165,26.569878549219165 0 0,0 0.15251985725551892,-0.4311941750062173 l 5.234884096484249 1.9025077002283275" fill="#ff0601" stroke="none" /><path d="M 80.2630227832202 92.82701384747504 l -14.574980093604902 -5.296967678306523 a36.50767265949353,36.50767265949353 0 0,0 0.2197334432687888,-0.588776383365569 l 14.481642061834485 5.547067198701433" fill="#ff9a0e" stroke="none" /><path d="M 80.52162464483688 92.15188598940014 l -10.585890662630092 -4.265205660596514 a32.41284629040204,32.41284629040204 0 0,0 0.21296523116031293,-0.5157121995053037 l 10.51090374458358 4.446792430555129" fill="#ff5f08" stroke="none" /><path d="M 80.803312248108 91.48605970444005 l -6.7786355883805305 -3.0063987824744167 a28.4154119291731,28.4154119291731 0 0,0 0.2021522240357333,-0.4454156293700121 l 6.725881047381445 3.1226364206865" fill="#ff2303" stroke="none" /><path d="M 81.43458229118936 90.18545643968196 l -11.723227808447282 -6.1974436448545 a34.26055722735282,34.26055722735282 0 0,0 0.28010762819992996,-0.5189968940784297 l 11.61481208102888 6.398321522265403" fill="#ff7a0b" stroke="none" /><line stroke="#e1ed5e" stroke-width="0.3" x1="26.266209847984243" x2="21.928928074336255" y1="57.711370442889674" y2="55.22380399835377" /><path d="M 25.398753493254645 57.213857153982495 a86.0,86.0 0 0,1 29.58750427330803,-30.492523968695096" fill="none" id="id23" stroke="none" /><text fill="#e1ed5e" style="font-size:6.75px; font-family:Arial;" text-anchor="middle"><textPath startOffset="21.46611528233685" xlink:href="#id23">November</textPath></text><path d="M 82.95767976084542 87.72973835380427 l -10.825156512569635 -7.793979980793877 a34.339045597892095,34.339045597892095 0 0,0 0.3495018045175559,-0.4767200685839225 l 10.689392095538444 7.9791624930493015" fill="#ff7b0b" stroke="none" /><path d="M 84.31358615837235 86.03803664274999 l -8.15233582328794 -7.256127193245872 a31.913842642269774,31.913842642269774 0 0,0 0.3687665175964573,-0.4072011992149606 l 8.026225665075438 7.395381179730388" fill="#ff5808" stroke="none" /><path d="M 84.5562425177563 85.77008943001954 l -13.077418607404482 -12.049560962318905 a38.782316969898176,38.782316969898176 0 0,0 0.456583623078979,-0.48705157472816846 l 12.868067662355047 12.272881953925124" fill="#ffba11" stroke="none" /><path d="M 86.65592168130627 83.78471172551755 l -10.453597537313142 -12.702870406230183 a37.45115856192499,37.45115856192499 0 0,0 0.5013044472180536,-0.40535333292950776 l 10.233389691530588 12.880929836423824" fill="#ffa70f" stroke="none" /><path d="M 86.93701828274178 83.55741782278169 l -15.083457247612644 -18.98578675822297 a45.24810882046831,45.24810882046831 0 0,0 0.6140113311636719,-0.47924558325959565 l 14.754413361289547 19.24261073070579" fill="#eeff19" stroke="none" /><path d="M 89.00827224532344 82.1063720568725 l -2.7205461654012755 -4.428825201304769 a26.197678722448302,26.197678722448302 0 0,0 0.38627595759584515,-0.23272694238031044 l 2.6439081415877808 4.474998753143699" fill="#ff0000" stroke="none" /><line stroke="#e1ed5e" stroke-width="0.3" x1="56.762969772571076" x2="54.21961505331055" y1="26.818313649435495" y2="22.513508569990535" /><path d="M 56.25429882871897 25.957352633546506 a86.0,86.0 0 0,1 42.265352541879196,-11.944610805530505" fill="none" id="id24" stroke="none" /><text fill="#e1ed5e" style="font-size:6.75px; font-family:Arial;" text-anchor="middle"><textPath startOffset="22.20632615414155" xlink:href="#id24">December</textPath></text><path d="M 89.63071344664047 81.73862282372117 l -10.034687641899376 -17.672114174094126 a41.32236638417649,41.32236638417649 0 0,0 0.6215590534904967,-0.3458969403197551 l 9.729004499336835 17.842226511974065" fill="#ffdc14" stroke="none" /><path d="M 89.94658935756843 81.56283822128135 l -2.84367583170767 -5.215077073858168 a26.93999336044405,26.93999336044405 0 0,0 0.40904525378438816,-0.2184978084373926 l 2.7534855313949764 5.263253608797311" fill="#ff0c01" stroke="none" /><path d="M 90.26544431104013 81.39251694778311 l -9.01709026539614 -17.236056750279506 a40.452238152797676,40.452238152797676 0 0,0 0.6197658752011588,-0.31746815311522447 l 8.71906390260622 17.388717428707235" fill="#ffd113" stroke="none" /><path d="M 90.58718382345135 81.22770947309562 l -6.717265711623572 -13.396465108834928 a35.98622487662538,35.98622487662538 0 0,0 0.5561220935375774,-0.27288669608715327 l 6.485672351075568 13.510106965056911" fill="#ff930d" stroke="none" /><path d="M 90.91171255644093 81.06846463323043 l -4.628682242630395 -9.641867306914705 a31.695340315641786,31.695340315641786 0 0,0 0.4938764738834256,-0.2318816266487854 l 4.462027557447361 9.720113916203497" fill="#ff5407" stroke="none" /><path d="M 91.23893434514133 80.91482961587045 l -4.504114416675058 -9.81179624241093 a31.796221199155255,31.796221199155255 0 0,0 0.4993791579365345,-0.22405687161306337 l 4.334553140271749 9.88787344454052" fill="#ff5607" stroke="none" /><path d="M 92.57280143429618 80.3572730644239 l -1.885223903174442 -4.9858554359206675 a26.330368054177868,26.330368054177868 0 0,0 0.42532029585192627,-0.1566490543878945 l 1.7991212815499464 5.017567758114884" fill="#ff0300" stroke="none" /><path d="M 92.91201910852362 80.23233633223022 l -1.7477024356990845 -4.874165784192093 a26.178026254813453,26.178026254813453 0 0,0 0.42547768851769663,-0.14844081105041323 l 1.6635427431181027 4.903527448414716" fill="#ff0000" stroke="none" /><path d="M 99.27714615592234 79.0124445844662 l -0.18405316410488518 -5.343854795410897 a26.347023437544767,26.347023437544767 0 0,0 0.45338631010594943,-0.01170963077012988 l 0.09204021880405673 5.346231218323386" fill="#ff0300" stroke="none" /></svg>