<?xml version="1.0" encoding="utf-8" ?>
<svg baseProfile="full" height="200mm" version="1.1" viewBox="0,0,200,200" width="200mm" xmlns="http://www.w3.org/2000/svg" xmlns:ev="http://www.w3.org/2001/xml-events" xmlns:xlink="http://www.w3.org/1999/xlink"><defs /><rect fill="#1a1a1a" height="200" width="200" x="0" y="0" /><text alignment-baseline="middle" fill="#e1ed5e" style="dominant-baseline: central; font-size:9.0px; font-family:Arial;" text-anchor="middle" x="100.0" y="100.0">2020</text><line stroke="#e1ed5e" stroke-width="0.3" x1="100.0" x2="100.0" y1="15.0" y2="10.0" /><path d="M 100.0 14.0 a86.0,86.0 0 0,1 42.35913384403234,11.155469271406648" fill="none" id="id1" stroke="none" /><text fill="#e1ed5e" style="font-size:6.75px; font-family:Arial;" text-anchor="middle"><textPath startOffset="22.145653131862478" xlink:href="#id1">January</textPath></text><line stroke="#e1ed5e" stroke-width="0.3" x1="143.13028292997686" x2="145.6673583964461" y1="26.7553504044142" y2="22.446841604673864" /><path d="M 143.63769802327073 25.89364864446614 a86.0,86.0 0 0,1 29.32050498858742,28.57503671076993" fill="none" id="id2" stroke="none" /><text fill="#e1ed5e" style="font-size:6.75px; font-family:Arial;" text-anchor="middle"><textPath startOffset="20.669276256404974" xlink:href="#id2">February</textPath></text><line stroke="#e1ed5e" stroke-width="0.3" x1="172.87174338648825" x2="177.1583165268699" y1="56.24261187166439" y2="53.66864786411523" /><path d="M 173.72905801456457 55.72781907015455 a86.0,86.0 0 0,1 12.242430191666344,42.057860355516425" fill="none" id="id3" stroke="none" /><text fill="#e1ed5e" style="font-size:6.75px; font-family:Arial;" text-anchor="middle"><textPath startOffset="22.145653131862474" xlink:href="#id3">March</textPath></text><line stroke="#e1ed5e" stroke-width="0.3" x1="184.99686870605535" x2="189.99668451229388" y1="99.2704041080226" y2="99.22748670261217" /><path d="M 185.99683186730306 99.26182062694052 a86.0,86.0 0 0,1 -10.086455211305974,41.156179273409016" fill="none" id="id4" stroke="none" /><text fill="#e1ed5e" style="font-size:6.75px; font-family:Arial;" text-anchor="middle"><textPath startOffset="21.40746469413373" xlink:href="#id4">April</textPath></text><line stroke="#e1ed5e" stroke-width="0.3" x1="174.33088141563837" x2="178.70328620479359" y1="141.23008692659167" y2="143.65538615756765" /><path d="M 175.20536237346943 141.71514677278685 a86.0,86.0 0 0,1 -30.301960400862466,31.631185727798858" fill="none" id="id5" stroke="none" /><text fill="#e1ed5e" style="font-size:6.75px; font-family:Arial;" text-anchor="middle"><textPath startOffset="22.145653131862474" xlink:href="#id5">May</textPath></text><line stroke="#e1ed5e" stroke-width="0.3" x1="143.1302829299769" x2="145.66735839644613" y1="173.24464959558577" y2="177.55315839532614" /><path d="M 143.63769802327073 174.10635135553383 a86.0,86.0 0 0,1 -40.68552437913181,11.842963189579606" fill="none" id="id6" stroke="none" /><text fill="#e1ed5e" style="font-size:6.75px; font-family:Arial;" text-anchor="middle"><textPath startOffset="21.407464694133747" xlink:href="#id6">June</textPath></text><line stroke="#e1ed5e" stroke-width="0.3" x1="101.45913802915013" x2="101.54496967792366" y1="184.9874750549273" y2="189.98673829345242" /><path d="M 101.47630435890484 185.9873277026323 a86.0,86.0 0 0,1 -42.54439059252881,-10.42667462771756" fill="none" id="id7" stroke="none" /><text fill="#e1ed5e" style="font-size:6.75px; font-family:Arial;" text-anchor="middle"><textPath startOffset="22.145653131862474" xlink:href="#id7">July</textPath></text><line stroke="#e1ed5e" stroke-width="0.3" x1="58.13341422392154" x2="55.67067388415222" y1="173.97424548756322" y2="178.32567169271397" /><path d="M 57.64086615596768 174.84453072859336 a86.0,86.0 0 0,1 -31.369924170532247,-30.572349798747897" fill="none" id="id8" stroke="none" /><text fill="#e1ed5e" style="font-size:6.75px; font-family:Arial;" text-anchor="middle"><textPath startOffset="22.145653131862474" xlink:href="#id8">August</textPath></text><line stroke="#e1ed5e" stroke-width="0.3" x1="26.387840678322732" x2="22.057713659400548" y1="142.50000000000003" y2="145.00000000000006" /><path d="M 25.521815274538298 143.00000000000003 a86.0,86.0 0 0,1 -11.493303480769221,-40.785679425670985" fill="none" id="id9" stroke="none" /><text fill="#e1ed5e" style="font-size:6.75px; font-family:Arial;" text-anchor="middle"><textPath startOffset="21.40746469413373" xlink:href="#id9">September</textPath></text><line stroke="#e1ed5e" stroke-width="0.3" x1="15.003131293944662" x2="10.003315487706104" y1="100.72959589197737" y2="100.7725132973878" /><path d="M 14.003168132696942 100.73817937305945 a86.0,86.0 0 0,1 10.791469493833604,-42.45332614584628" fill="none" id="id10" stroke="none" /><text fill="#e1ed5e" style="font-size:6.75px; font-family:Arial;" text-anchor="middle"><textPath startOffset="22.145653131862435" xlink:href="#id10">October</textPath></text><line stroke="#e1ed5e" stroke-width="0.3" x1="26.387840678322718" x2="22.05771365940052" y1="57.49999999999999" y2="54.99999999999999" /><path d="M 25.521815274538284 56.99999999999999 a86.0,86.0 0 0,1 29.574782752854787,-30.34633250058573" fill="none" id="id11" stroke="none" /><text fill="#e1ed5e" style="font-size:6.75px; font-family:Arial;" text-anchor="middle"><textPath startOffset="21.40746469413373" xlink:href="#id11">November</textPath></text><path d="M 85.08716467003674 85.21462403516908 l -26.222143324748977 -25.998023788347595 a57.92557435495303,57.92557435495303 0 0,0 0.7061626221895143,-0.7001270804891616 l 25.771988782429485 26.44433087906543" fill="#56ff2b" stroke="none" /><path d="M 85.34317274990677 84.96080404539775 l -9.495734962763938 -9.743460600387861 a34.60529334319433,34.60529334319433 0 0,0 0.4289861900921832,-0.41095906604810123 l 9.327076286806454 9.90503179674153" fill="#ff840c" stroke="none" /><path d="M 85.60350026404147 84.71141617570332 l -25.49605620852611 -27.075928154912585 a58.19078874719264,58.19078874719264 0 0,0 0.733121442203152,-0.6785662620356149 l 25.027504995009004 27.509612163080565" fill="#53ff2b" stroke="none" /><path d="M 85.86807049272753 84.46653392183569 l -24.015853446383176 -26.397629895873898 a56.68747792822701,56.68747792822701 0 0,0 0.7254241838329357,-0.6486787783709046 l 23.55916423572685 26.806004204128204" fill="#63ff29" stroke="none" /><path d="M 86.13680546590413 84.22622945171909 l -4.671676899610053 -5.315510743856068 a28.076667260963983,28.076667260963983 0 0,0 0.3647567127934091,-0.31506816099438684 l 4.579740707053795 5.3949230373151655" fill="#ff2403" stroke="none" /><path d="M 86.68645165197937 83.75963576809568 l -13.517761703893205 -16.48947132144166 a42.322114012074145,42.322114012074145 0 0,0 0.5658048050393946,-0.4557722997190889 l 13.232706128498565 16.719091914954145" fill="#ffee16" stroke="none" /><path d="M 86.96720088162412 83.53348406188908 l -21.06953217860582 -26.620665620355915 a54.949742624887534,54.949742624887534 0 0,0 0.7446738236140857,-0.579062869361669 l 20.60944841035649 26.97842954133839" fill="#76ff27" stroke="none" /><path d="M 87.25179093698888 83.31218511350988 l -25.816651097301122 -33.79482501200076 a63.52751663889548,63.52751663889548 0 0,0 0.8722842640356171,-0.6545783736107891 l 25.232713844354755 34.23302241287555" fill="#32ff48" stroke="none" /><path d="M 87.54013794807813 83.09580414077388 l -37.37958615576562 -50.71258757767834 a84.0,84.0 0 0,0 1.1680759585041285,-0.8455969145076825 l 36.503529186887526 51.3467852635591" fill="#4dd2ff" stroke="none" /><path d="M 87.83215693770416 82.88440491214696 l -8.80726919246818 -12.388527083744753 a36.20011822102961,36.20011822102961 0 0,0 0.5095682212488748,-0.3557181934941312 l 8.59330588004554 12.53789009304401" fill="#ff9b0e" stroke="none" /><path d="M 88.4268655584334 82.4767994020092 l -18.408092196667603 -27.872197788523312 a54.4023542266646,54.4023542266646 0 0,0 0.7836901806004167,-0.5079785067890435 l 17.92691638381016 28.184090137016263" fill="#7dff26" stroke="none" /><path d="M 88.72937992617638 82.28071324371311 l -10.167818600259327 -15.985499669387764 a39.94520347654719,39.94520347654719 0 0,0 0.5817464812344082,-0.3630528300739945 l 9.89190799023522 16.157688296303295" fill="#ffce13" stroke="none" /><path d="M 89.03521579738668 82.08984904055464 l -10.221780599058365 -16.696510411926916 a40.5769828766046,40.5769828766046 0 0,0 0.5971912497565893,-0.3585961867805423 l 9.93365659274434 16.86952059924338" fill="#ffd714" stroke="none" /><line stroke="#e1ed5e" stroke-width="0.3" x1="56.869717070023135" x2="54.33264160355391" y1="26.7553504044142" y2="22.446841604673864" /><path d="M 56.362301976729285 25.89364864446614 a86.0,86.0 0 0,1 42.16139366436587,-11.88097634709845" fill="none" id="id12" stroke="none" /><text fill="#e1ed5e" style="font-size:6.75px; font-family:Arial;" text-anchor="middle"><textPath startOffset="22.145653131862474" xlink:href="#id12">December</textPath></text><path d="M 89.34428304082924 81.90426304109057 l -11.31397195229408 -19.213597845519864 a43.29727121211613,43.29727121211613 0 0,0 0.643701628262559,-0.37164130835518683 l 10.982477856171123 19.404986051151226" fill="#fffa17" stroke="none" /><path d="M 89.65649057296885 81.72400993836675 l -12.462832699220824 -22.020631213958644 a46.30277451090962,46.30277451090962 0 0,0 0.6951056556696062,-0.38556338981329535 l 12.082982855395114 22.231327519205088" fill="#ddff1b" stroke="none" /><path d="M 89.97174638481275 81.54914285379989 l -9.206180353881988 -16.938334937439528 a40.2785099829081,40.2785099829081 0 0,0 0.6103367790482845,-0.324969957487414 l 8.914054759047142 17.093875362649516" fill="#ffd313" stroke="none" /><path d="M 90.28995756902619 81.37971332152246 l -7.845014524149536 -15.043849753994783 a37.96648662230593,37.96648662230593 0 0,0 0.580476444837994,-0.29639540879270393 l 7.58561085759796 15.17630311446032" fill="#ffb310" stroke="none" /><path d="M 90.61103034731259 81.2157712731953 l -6.347079372493081 -12.698410484900052 a35.1963039346073,35.1963039346073 0 0,0 0.5427601091942975,-0.265491167462848 l 6.12815901403673 12.805495402460114" fill="#ff8d0d" stroke="none" /><path d="M 90.93487009805054 81.0573650232925 l -5.4525995290068545 -11.393835904097992 a33.63132369283751,33.63132369283751 0 0,0 0.5229050834834054,-0.24474598209572926 l 5.256205731651926 11.485758117764265" fill="#ff760a" stroke="none" /><path d="M 91.26138138417902 80.90454125486306 l -6.713272987326859 -14.669713030186843 a37.132839631955875,37.132839631955875 0 0,0 0.5819009446089702,-0.2602768910423873 l 6.460458639862271 14.782793672139077" fill="#ffa80f" stroke="none" /><path d="M 91.5904679813234 80.7573450057729 l -2.5967323539852467 -5.941831803376467 a27.48447253813676,27.48447253813676 0 0,0 0.4339470033851269,-0.18522617166125227 l 2.4943502754296887 5.985532624697123" fill="#ff1b02" stroke="none" /><path d="M 91.92203290615298 80.6158196554323 l -6.421781255108394 -15.409937244879634 a37.69447334837461,37.69447334837461 0 0,0 0.5994238672602631,-0.24378046844007348 l 6.15630292665769 15.517904969899" fill="#ffb010" stroke="none" /><path d="M 92.25597844496254 80.48000691201159 l -6.5900624331257225 -16.61126227887982 a38.87072906655547,38.87072906655547 0 0,0 0.6223532042511881,-0.24073958907391058 l 6.303936966381005 16.721941756091773" fill="#ffc011" stroke="none" /><path d="M 92.592206182469 80.34994680014964 l -3.019470860040475 -8.00950519097584 a29.559753365541702,29.559753365541702 0 0,0 0.47634958158703533,-0.17492216448797349 l 2.8815321267993124 8.060158204472536" fill="#ff3a05" stroke="none" /><path d="M 92.93061703081487 80.22567764915836 l -2.757899526780771 -7.714335818488387 a29.19249576870385,29.19249576870385 0 0,0 0.4733274432782998,-0.1646478550514386 l 2.625066311457467 7.760542106108411" fill="#ff3505" stroke="none" /><path d="M 93.27111125876988 80.10723608172694 l -5.509815155667119 -16.288789477736497 a38.19542746487095,38.19542746487095 0 0,0 0.6229078777401201,-0.20476219193575354 l 5.229384540279238 16.38097259107428" fill="#ffb610" stroke="none" /><path d="M 93.61358852112211 79.99465700312896 l -5.459699226392223 -17.1024300649852 a38.952755492413345,38.952755492413345 0 0,0 0.6387498204416255,-0.19788632715543913 l 5.165308773078981 17.19363297994728" fill="#ffc111" stroke="none" /><path d="M 93.95794788825049 79.88797359093562 l -2.6194956321114806 -8.719449014517053 a30.1044246651512,30.1044246651512 0 0,0 0.49620691337398865,-0.1444386006861292 l 2.4694287063558678 8.763131309505702" fill="#ff4306" stroke="none" /><path d="M 94.30408787586887 79.78721728523814 l -2.744087451302136 -9.737798300730567 a31.11705153125677,31.11705153125677 0 0,0 0.5153852033640559,-0.14047052899307058 l 2.5765208470034024 9.783469323867777" fill="#ff5207" stroke="none" /><path d="M 94.6519064749342 79.69241777938228 l -2.355729032734689 -8.945086842169108 a30.2500831287949,30.2500831287949 0 0,0 0.5032961392711062,-0.12793591047847336 l 2.2018276002382047 8.984207984482843" fill="#ff4506" stroke="none" /><path d="M 95.00130118170881 79.60360301121753 l -1.8462645236179123 -7.5333892956746356 a28.756329478004094,28.756329478004094 0 0,0 0.48046054239490243,-0.11338737977896529 l 1.7166718274831039 7.563972819099833" fill="#ff2e04" stroke="none" /><path d="M 95.35216902796891 79.52079915486377 l -9.675893507901597 -42.633772117980755 a64.71797616752364,64.71797616752364 0 0,0 1.0855287393595248,-0.23658593632942057 l 8.942602351922954 42.79358951244389" fill="#34ff57" stroke="none" /><path d="M 95.70440661134978 79.44403061299748 l -2.749882047507677 -13.159181065831216 a34.44343325190912,34.44343325190912 0 0,0 0.5798035573775758,-0.11597694982118059 l 2.5235820045991244 13.204447412315263" fill="#ff820c" stroke="none" /><path d="M 96.05791012581881 79.37332000966035 l -0.975956024704048 -5.106614321013109 a26.199038371250236,26.199038371250236 0 0,0 0.44247090117362053,-0.0806329376750589 l 0.8881503899793889 5.122615432619529" fill="#ff0701" stroke="none" /><path d="M 96.76829788921471 79.25015418208739 l -1.5556523388311736 -9.988403964986158 a31.1088212946447,31.1088212946447 0 0,0 0.5283683595208001,-0.07765195348581304 l 1.3839588737026887 10.013636991770857" fill="#ff5107" stroke="none" /><path d="M 97.12497278360702 79.19773525538626 l -1.1767101069413246 -8.514088156343309 a29.59501854621404,29.59501854621404 0 0,0 0.5038512138964185,-0.0652336270916173 l 1.030381071154112 8.533033379635322" fill="#ff3b05" stroke="none" /><path d="M 97.48249496171623 79.15144685158666 l -1.7763772031354015 -14.71095150476661 a35.81781394617351,35.81781394617351 0 0,0 0.6110588961931509,-0.06847042386533088 l 1.5235824053414513 14.739277689138913" fill="#ff950d" stroke="none" /><path d="M 98.1996594967304 79.07731436759882 l -3.645219510329524 -42.36297619100962 a63.51951760119739,63.51951760119739 0 0,0 1.0871849553710318,-0.08415499138391927 l 2.9174655601832753 42.41930894938859" fill="#32ff48" stroke="none" /><path d="M 98.5590905019552 79.04949213459386 l -0.6179906620997255 -8.98544859662325 a30.006675243451447,30.006675243451447 0 0,0 0.5141938838134467,-0.03093262719416382 l 0.4636524261537951 8.994733201642108" fill="#ff4106" stroke="none" /><path d="M 98.9189461498227 79.02784411241856 l -0.47898126935591084 -9.292108664629767 a30.304445523064842,30.304445523064842 0 0,0 0.519756219842084,-0.022320568453390977 l 0.31939928891300684 9.298961801508986" fill="#ff4606" stroke="none" /><path d="M 99.27912038922189 79.0123766808444 l -0.16248169823126155 -4.730477360919643 a25.7332669863883,25.7332669863883 0 0,0 0.44161556225510545,-0.011374450365448062 l 0.08125282190541215 4.732569528635136" fill="#ff0000" stroke="none" /><path d="M 99.63950707515114 79.00309439819443 l -0.10881880519929543 -6.338149858083455 a27.339083936649548,27.339083936649548 0 0,0 0.469311730048146,-0.004028476760527278 l 1.5526277705088543e-15 6.339083936649548" fill="#ff1902" stroke="none" /></svg>