<?xml version="1.0" encoding="utf-8" ?>
<svg baseProfile="full" height="200mm" version="1.1" viewBox="0,0,200,200" width="200mm" xmlns="http://www.w3.org/2000/svg" xmlns:ev="http://www.w3.org/2001/xml-events" xmlns:xlink="http://www.w3.org/1999/xlink"><defs /><rect fill="#1a1a1a" height="200" width="200" x="0" y="0" /><text alignment-baseline="middle" fill="#e1ed5e" style="dominant-baseline: central; font-size:9.0px; font-family:Arial;" text-anchor="middle" x="100.0" y="100.0">2025</text><line stroke="#e1ed5e" stroke-width="0.3" x1="100.0" x2="100.0" y1="15.0" y2="10.0" /><path d="M 100.0 14.0 a86.0,86.0 0 0,1 42.46469731375804,11.215312516191453" fill="none" id="id61" stroke="none" /><text fill="#e1ed5e" style="font-size:6.75px; font-family:Arial;" text-anchor="middle"><textPath startOffset="22.20632615414155" xlink:href="#id61">January</textPath></text><path d="M 100.0 79.0 l 0.0 -55.80962410635371 a76.80962410635371,76.80962410635371 0 0,0 1.3221514159384518,0.01138017465508135 l -0.9606709366659234 55.80135530830719" fill="#44ffe5" stroke="none" /><path d="M 100.36148047927253 79.00311137660856 l 0.11477788440613111 -6.6669670798104 a27.667955009298154,27.667955009298154 0 0,0 0.4761172380470041,0.012296703576077211 l -0.22952175764800303 6.6640035840919625" fill="#ff3204" stroke="none" /><path d="M 100.72285384407766 79.0124445844662 l 1.1587133920422998 -33.64243231941119 a54.66238062126713,54.66238062126713 0 0,0 0.9400866611806844,0.04048210915526204 l -1.7376408856123158 33.61750248373174" fill="#72ff27" stroke="none" /><path d="M 101.08401301168833 79.027996857942 l 1.4039418378909816 -27.1615490940083 a48.19780876964914,48.19780876964914 0 0,0 0.8281713603266848,0.04995755809278907 l -1.8712752470572784 27.133358266535208" fill="#bbff1f" stroke="none" /><path d="M 101.44485096284872 79.0497635885617 l 1.3292225679053162 -19.273632891610042 a40.31941400445628,40.31941400445628 0 0,0 0.6919767793508312,0.05371071597568648 l -1.6607895366184886 19.247896913445892" fill="#ffe115" stroke="none" /><path d="M 101.80526077348638 79.07773832637324 l 0.6516252563121969 -7.552080190264426 a28.580140544531368,28.580140544531368 0 0,0 0.48977497362886596,0.04651003527566845 l -0.7815253570313071 7.539744610473579" fill="#ff3f05" stroke="none" /><path d="M 102.16513564639614 79.11191278185805 l 3.429023693549139 -33.081412752660874 a54.25865410991303,54.25865410991303 0 0,0 0.9281673894776025,0.10429042091024313 l -3.9979577865364666 33.01748637828003" fill="#76ff27" stroke="none" /><path d="M 102.52436894288641 79.15227682838746 l 4.346232311432012 -35.893742205784065 a57.15591880785524,57.15591880785524 0 0,0 0.9756930986294042,0.1266729667815257 l -4.963440138569263 35.8136109158384" fill="#57ff2a" stroke="none" /><path d="M 102.88285421437855 79.19881850522331 l 1.037866462865545 -7.488706350023281 a28.560283697826428,28.560283697826428 0 0,0 0.486383018004786,0.07168021356204814 l -1.1666184612989867 7.469731652300264" fill="#ff3f05" stroke="none" /><path d="M 103.2404852339499 79.25152402106235 l 5.26020159782555 -33.68050110316908 a55.08879398585905,55.08879398585905 0 0,0 0.9356458992280146,0.1543895902960445 l -5.83917670319244 33.58496524993341" fill="#6dff28" stroke="none" /><path d="M 103.59715602781102 79.31037775812273 l 6.111663643551951 -35.15221777339815 a56.67955782910325,56.67955782910325 0 0,0 0.9597870141790186,0.1753949420370121 l -6.71584577883387 35.041807350010394" fill="#5cff2a" stroke="none" /><path d="M 104.307194497241 79.44645832069477 l 1.3869231395167494 -6.618271492571359 a27.762031746768844,27.762031746768844 0 0,0 0.4668744525548647,0.10204067220402266 l -1.500640316225142 6.593417322271465" fill="#ff3304" stroke="none" /><path d="M 104.66035177308747 79.52364482259891 l 8.743539865294373 -38.41680553460074 a60.399244115329445,60.399244115329445 0 0,0 1.0117630192924327,0.23945161791441713 l -9.40352657154933 38.26060800454545" fill="#36ff2f" stroke="none" /><path d="M 105.01212808612495 79.60689891045804 l 4.829205204764507 -19.648833435748234 a41.23358293272604,41.23358293272604 0 0,0 0.6877979804287042,0.1753350196721401 l -5.1667120738782355 19.56279541990723" fill="#ffed16" stroke="none" /><path d="M 105.36241919743992 79.69619591428918 l 3.5268869318034457 -13.353902158558938 a34.811793304639735,34.811793304639735 0 0,0 0.5780450383445603,0.15800154475739447 l -3.756229859371717 13.29121407297525" fill="#ff980e" stroke="none" /><path d="M 105.71112130821622 79.79150937346287 l 1.8893110988105788 -6.685224069045581 a27.947065371898784,27.947065371898784 0 0,0 0.4618050033319879,0.13481354399959913 l -2.004106319865994 6.651712196127278" fill="#ff3605" stroke="none" /><path d="M 106.0581310904928 79.89281104454417 l 7.786341850299321 -25.843192317419255 a47.99069670395413,47.99069670395413 0 0,0 0.7889090702861185,0.24511788835047543 l -8.230036293296157 25.70533429418626" fill="#beff1f" stroke="none" /><path d="M 106.40334571778207 80.00007090966166 l 6.82032515048136 -21.30230435690507 a43.3674988783392,43.3674988783392 0 0,0 0.7089908248245971,0.2337431279157602 l -7.185998797548375 21.181747504730073" fill="#f6ff19" stroke="none" /><path d="M 106.74666289553966 80.11325718540242 l 2.18998556699176 -6.455292107041339 a27.816658490115405,27.816658490115405 0 0,0 0.4521107680715483,0.15773256955252446 l -2.3007783391265817 6.416638684316607" fill="#ff3405" stroke="none" /><path d="M 107.08798089147638 80.2323363322302 l 21.26394267442914 -59.302991003309366 a84.0,84.0 0 0,0 1.3568706969096942,0.49974692877470117 l -22.28159569711141 58.92818080672834" fill="#4dd2ff" stroke="none" /><path d="M 107.4271985657038 80.35727306442388 l 2.216863855330231 -5.862944282205801 a27.268061981930245,27.268061981930245 0 0,0 0.43760933074966846,0.1697856216620084 l -2.3174563510795667 5.823915956653246" fill="#ff2c04" stroke="none" /><path d="M 107.76421540070413 80.48803036053334 l 12.581340751964602 -31.617713588143726 a55.028957487101096,55.028957487101096 0 0,0 0.8770990338413148,0.3577907185490606 l -13.123723655394304 31.396461983411086" fill="#6eff28" stroke="none" /><path d="M 108.09893153111575 80.62456947434976 l 1.2822393760398185 -3.0675577207022013 a24.324762876854027,24.324762876854027 0 0,0 0.38492922818465575,0.16480660687199872 l -1.3348523620147894 3.0450315858674117" fill="#ff0000" stroke="none" /><path d="M 108.76106565485865 80.91482961587045 l 1.4120880117550163 -3.076102995163096 a24.384730741106832,24.384730741106832 0 0,0 0.37996262905155515,0.17839754908232391 l -1.4648288521061694 3.051340463440769" fill="#ff0100" stroke="none" /><line stroke="#e1ed5e" stroke-width="0.3" x1="143.23703022742887" x2="145.7803849466894" y1="26.81831364943548" y2="22.513508569990506" /><path d="M 143.74570117128098 25.957352633546492 a86.0,86.0 0 0,1 28.547481713284135,27.462654790039103" fill="none" id="id62" stroke="none" /><text fill="#e1ed5e" style="font-size:6.75px; font-family:Arial;" text-anchor="middle"><textPath startOffset="19.985693538727396" xlink:href="#id62">February</textPath></text><line stroke="#e1ed5e" stroke-width="0.3" x1="172.23445277983987" x2="176.4835382374775" y1="55.19839476539836" y2="52.563006222186495" /><path d="M 173.08426987136738 54.67131705675599 a86.0,86.0 0 0,1 12.851231095245387,41.99856678651699" fill="none" id="id63" stroke="none" /><text fill="#e1ed5e" style="font-size:6.75px; font-family:Arial;" text-anchor="middle"><textPath startOffset="22.20632615414155" xlink:href="#id63">March</textPath></text><line stroke="#e1ed5e" stroke-width="0.3" x1="184.98032266829074" x2="189.97916517819016" y1="98.17113171792111" y2="98.06355123074" /><path d="M 185.9800911702706 98.14961562048488 a86.0,86.0 0 0,1 -9.607161424134198,41.387399972396054" fill="none" id="id64" stroke="none" /><text fill="#e1ed5e" style="font-size:6.75px; font-family:Arial;" text-anchor="middle"><textPath startOffset="21.466115282336823" xlink:href="#id64">April</textPath></text><line stroke="#e1ed5e" stroke-width="0.3" x1="174.80103733775053" x2="179.2010983576182" y1="140.37084112569926" y2="142.7455964860345" /><path d="M 175.68104954172406 140.8457921977663 a86.0,86.0 0 0,1 -30.038265399797805,32.042727171017184" fill="none" id="id65" stroke="none" /><text fill="#e1ed5e" style="font-size:6.75px; font-family:Arial;" text-anchor="middle"><textPath startOffset="22.206326154141568" xlink:href="#id65">May</textPath></text><line stroke="#e1ed5e" stroke-width="0.3" x1="143.8653032363475" x2="146.44561519142675" y1="172.8068346515853" y2="177.08958963109032" /><path d="M 144.38136562736335 173.6633856474863 a86.0,86.0 0 0,1 -40.68145358897372,12.25698825130547" fill="none" id="id66" stroke="none" /><text fill="#e1ed5e" style="font-size:6.75px; font-family:Arial;" text-anchor="middle"><textPath startOffset="21.466115282336833" xlink:href="#id66">June</textPath></text><line stroke="#e1ed5e" stroke-width="0.3" x1="102.19456741930631" x2="102.32365962044197" y1="184.97166512339345" y2="189.96999836594603" /><path d="M 102.22038585953345 185.97133177190398 a86.0,86.0 0 0,1 -42.740103519485714,-10.115201625700543" fill="none" id="id67" stroke="none" /><text fill="#e1ed5e" style="font-size:6.75px; font-family:Arial;" text-anchor="middle"><textPath startOffset="22.20632615414155" xlink:href="#id67">July</textPath></text><line stroke="#e1ed5e" stroke-width="0.3" x1="58.666819895761336" x2="56.23545636021788" y1="174.27360380694188" y2="178.64263932499728" /><path d="M 58.180547188652646 175.14741091055294 a86.0,86.0 0 0,1 -31.652253787137756,-30.449443065178592" fill="none" id="id68" stroke="none" /><text fill="#e1ed5e" style="font-size:6.75px; font-family:Arial;" text-anchor="middle"><textPath startOffset="22.20632615414155" xlink:href="#id68">August</textPath></text><line stroke="#e1ed5e" stroke-width="0.3" x1="26.63291911575756" x2="22.317208475507996" y1="142.92168965132927" y2="145.44649492493687" /><path d="M 25.769776987707644 143.4266507060508 a86.0,86.0 0 0,1 -11.730757126820373,-40.83630448921669" fill="none" id="id69" stroke="none" /><text fill="#e1ed5e" style="font-size:6.75px; font-family:Arial;" text-anchor="middle"><textPath startOffset="21.46611528233685" xlink:href="#id69">September</textPath></text><line stroke="#e1ed5e" stroke-width="0.3" x1="15.007084014347285" x2="10.007500721073583" y1="101.09737516637583" y2="101.16192664675087" /><path d="M 14.007167355692545 101.11028546245083 a86.0,86.0 0 0,1 10.666146001902534,-42.60595125391555" fill="none" id="id70" stroke="none" /><text fill="#e1ed5e" style="font-size:6.75px; font-family:Arial;" text-anchor="middle"><textPath startOffset="22.20632615414155" xlink:href="#id70">October</textPath></text><line stroke="#e1ed5e" stroke-width="0.3" x1="26.266209847984243" x2="21.928928074336255" y1="57.711370442889674" y2="55.22380399835377" /><path d="M 25.398753493254645 57.213857153982495 a86.0,86.0 0 0,1 29.58750427330803,-30.492523968695096" fill="none" id="id71" stroke="none" /><text fill="#e1ed5e" style="font-size:6.75px; font-family:Arial;" text-anchor="middle"><textPath startOffset="21.46611528233685" xlink:href="#id71">November</textPath></text><line stroke="#e1ed5e" stroke-width="0.3" x1="56.762969772571076" x2="54.21961505331055" y1="26.818313649435495" y2="22.513508569990535" /><path d="M 56.25429882871897 25.957352633546506 a86.0,86.0 0 0,1 42.265352541879196,-11.944610805530505" fill="none" id="id72" stroke="none" /><text fill="#e1ed5e" style="font-size:6.75px; font-family:Arial;" text-anchor="middle"><textPath startOffset="22.20632615414155" xlink:href="#id72">December</textPath></text></svg>