<?xml version="1.0" encoding="utf-8" ?>
<svg baseProfile="full" height="200mm" version="1.1" viewBox="0,0,200,200" width="200mm" xmlns="http://www.w3.org/2000/svg" xmlns:ev="http://www.w3.org/2001/xml-events" xmlns:xlink="http://www.w3.org/1999/xlink"><defs /><rect fill="#1a1a1a" height="200" width="200" x="0" y="0" /><text alignment-baseline="middle" fill="#e1ed5e" style="dominant-baseline: central; font-size:9.0px; font-family:Arial;" text-anchor="middle" x="100.0" y="100.0">2024</text><line stroke="#e1ed5e" stroke-width="0.3" x1="100.0" x2="100.0" y1="15.0" y2="10.0" /><path d="M 100.0 14.0 a86.0,86.0 0 0,1 42.35913384403234,11.155469271406648" fill="none" id="id49" stroke="none" /><text fill="#e1ed5e" style="font-size:6.75px; font-family:Arial;" text-anchor="middle"><textPath startOffset="22.145653131862478" xlink:href="#id49">January</textPath></text><line stroke="#e1ed5e" stroke-width="0.3" x1="143.13028292997686" x2="145.6673583964461" y1="26.7553504044142" y2="22.446841604673864" /><path d="M 143.63769802327073 25.89364864446614 a86.0,86.0 0 0,1 29.32050498858742,28.57503671076993" fill="none" id="id50" stroke="none" /><text fill="#e1ed5e" style="font-size:6.75px; font-family:Arial;" text-anchor="middle"><textPath startOffset="20.669276256404974" xlink:href="#id50">February</textPath></text><line stroke="#e1ed5e" stroke-width="0.3" x1="172.87174338648825" x2="177.1583165268699" y1="56.24261187166439" y2="53.66864786411523" /><path d="M 173.72905801456457 55.72781907015455 a86.0,86.0 0 0,1 12.242430191666344,42.057860355516425" fill="none" id="id51" stroke="none" /><text fill="#e1ed5e" style="font-size:6.75px; font-family:Arial;" text-anchor="middle"><textPath startOffset="22.145653131862474" xlink:href="#id51">March</textPath></text><path d="M 120.16314734710363 94.1308016681162 l 23.515358267159648 -6.844978075066681 a45.49134131241115,45.49134131241115 0 0,0 0.2118196167179726,0.7516730936395319 l -23.629396375952204 6.440297057524136" fill="#e9ff1a" stroke="none" /><path d="M 120.26092885502905 94.47779374421319 l 43.756499480421816 -11.926028509899293 a66.3526339124762,66.3526339124762 0 0,0 0.2900890366418143,1.1015153222906569 l -43.95477799786836 11.173132683235838" fill="#36ff6b" stroke="none" /><path d="M 120.35273937422433 94.82641323984039 l 31.129067700618016 -7.912887280224772 a53.11903860670806,53.11903860670806 0 0,0 0.21706076628182092,0.8856819985979316 l -31.26031599341613 7.377349457018745" fill="#8cff24" stroke="none" /><path d="M 120.43855184770803 95.1765574152323 l 4.874641549760169 -1.1504021327826086 a26.008548223363633,26.008548223363633 0 0,0 0.09881903118467002,0.43541488473456147 l -4.893671442502506 1.0665529141090209" fill="#ff0200" stroke="none" /><path d="M 120.51834098615036 95.52812308129327 l 26.533576353385136 -5.78286947007735 a48.15644036704501,48.15644036704501 0 0,0 0.16910315005789373,0.8092197890564592 l -26.6289372142674 5.326533229735486" fill="#c7ff1e" stroke="none" /><path d="M 120.77682067341334 96.94652285012252 l 8.368125003636296 -1.2298262033237282 a29.4580132754013,29.4580132754013 0 0,0 0.0692340231681142,0.5009429027544235 l -8.388003543359623 1.085994992369219" fill="#ff3705" stroke="none" /><path d="M 120.82617615685814 97.30363454192243 l 11.123184940943704 -1.4401189845257638 a32.216023623371534,32.216023623371534 0 0,0 0.06630044428626233,0.5490627885328273 l -11.14626747148963 1.2489625190695235" fill="#ff6008" stroke="none" /><path d="M 120.86939407059847 97.66154086499901 l 16.556014824564603 -1.855135993634748 a37.65962653921396,37.65962653921396 0 0,0 0.06647391694488645,0.6430748461655155 l -16.585421133991158 1.5706566251863012" fill="#ffad10" stroke="none" /><path d="M 120.9064616781168 98.02013634271609 l 5.928958328412375 -0.5614785180153846 a26.95548528553662,26.95548528553662 0 0,0 0.03967125707620433,0.4610401415399904 l -5.93772320818632 0.4596173290997322" fill="#ff1101" stroke="none" /><path d="M 120.93736805541906 98.37931529534042 l 23.648455727289925 -1.830540036579151 a44.71919760681442,44.71919760681442 0 0,0 0.052675038508059296,0.7658834993253604 l -23.67639472696305 1.4243131130994566" fill="#f2ff19" stroke="none" /><path d="M 120.96210409425399 98.7389718711861 l 56.38603389347952 -3.3920437801576875 a77.48797021705708,77.48797021705708 0 0,0 0.06847874111738167,1.3284692834344938 l -56.435954224053475 2.423602703346463" fill="#44ffea" stroke="none" /><path d="M 120.98066250479742 99.09900007780936 l 5.871866891481618 -0.25216322940846175 a26.877278884445055,26.877278884445055 0 0,0 0.01583879708895295,0.46112929560136245 l -5.875330375567419 0.15132766924297933" fill="#ff1001" stroke="none" /><path d="M 120.99303781780057 99.45929381324524 l 12.392277022170314 -0.31918109765823216 a33.39638682710864,33.39638682710864 0 0,0 0.00984170591604622,0.5732300298724455 l -12.395930159685026 0.10640415181672021" fill="#ff710a" stroke="none" /><line stroke="#e1ed5e" stroke-width="0.3" x1="184.99686870605535" x2="189.99668451229388" y1="99.2704041080226" y2="99.22748670261217" /><path d="M 185.99683186730306 99.26182062694052 a86.0,86.0 0 0,1 -10.086455211305974,41.156179273409016" fill="none" id="id52" stroke="none" /><text fill="#e1ed5e" style="font-size:6.75px; font-family:Arial;" text-anchor="middle"><textPath startOffset="21.40746469413373" xlink:href="#id52">April</textPath></text><path d="M 120.99922638620191 99.81974689727618 l 5.87214559159167 -0.05040530746532382 a26.872361922077875,26.872361922077875 0 0,0 0.0,0.4613168203783007 l -5.87214559159167 -0.0504053074653231" fill="#ff0f01" stroke="none" /><path d="M 120.99922638620191 100.18025310272382 l 14.694171462848502 0.12613178930604393 a35.69471279773323,35.69471279773323 0 0,0 -0.01051900817688857,0.612679491025772 l -14.689841023072944 -0.378358196300887" fill="#ff920d" stroke="none" /><path d="M 120.99303781780057 100.54070618675476 l 44.72703314497536 1.1520097161053418 a65.74186652719939,65.74186652719939 0 0,0 -0.03874172265169897,1.1279229840767773 l -44.70066673532681 -1.9196389647462297" fill="#35ff64" stroke="none" /><path d="M 120.98066250479742 100.90099992219065 l 11.51313851821879 0.4944237059584404 a32.52374996868237,32.52374996868237 0 0,0 -0.028742338301456623,0.5575936844708727 l -11.502954590460762 -0.6919891838060437" fill="#ff6409" stroke="none" /><path d="M 120.96210409425399 101.26102812881392 l 14.799054072444655 0.8902743437051401 a35.82580823585009,35.82580823585009 0 0,0 -0.04219945637213729,0.613570834143284 l -14.781590654907452 -1.1441886020027676" fill="#ff940d" stroke="none" /><path d="M 120.93736805541906 101.62068470465957 l 13.882924444380484 1.0746261537456443 a34.924453759436716,34.924453759436716 0 0,0 -0.051399444998307425,0.5973394629662746 l -13.862431376684436 -1.3127866640875763" fill="#ff870c" stroke="none" /><path d="M 120.9064616781168 101.97986365728391 l 27.696270815904626 2.6228656419703635 a48.82018765723479,48.82018765723479 0 0,0 -0.08617369309760904,0.8336523102468116 l -27.647164730325354 -3.0979224745001064" fill="#bfff1e" stroke="none" /><path d="M 120.86939407059847 102.33845913500097 l 57.70147301842488 6.465570405469796 a79.0625833834846,79.0625833834846 0 0,0 -0.16271047184550413,1.347476119605685 l -57.58198046031971 -7.45514020199889" fill="#46fffb" stroke="none" /><path d="M 120.82617615685814 102.69636545807757 l 58.73028979212112 7.603811834954316 a80.22047697788256,80.22047697788256 0 0,0 -0.18853906778166776,1.3641747738365604 l -58.59110620778424 -8.61087491699096" fill="#48f7ff" stroke="none" /><path d="M 120.77682067341334 103.0534771498775 l 44.912605861483236 6.600606411113748 a66.39504565768576,66.39504565768576 0 0,0 -0.17540466964285742,1.1262238059270757 l -44.79267969970211 -7.370618398972274" fill="#36ff6c" stroke="none" /><path d="M 120.7213421655516 103.40968896794604 l 62.16402649665483 10.22906690383811 a84.0,84.0 0 0,0 -0.24634073003106272,1.420827868317648 l -61.97927094913153 -11.294687805076347" fill="#4dd2ff" stroke="none" /><path d="M 120.65975698304385 103.76489593502545 l 55.05044541818228 10.032024982015006 a76.9570644868013,76.9570644868013 0 0,0 -0.24799856613822924,1.2976332922543878 l -54.87012055976189 -10.975560839302707" fill="#44ffe5" stroke="none" /><path d="M 120.592083275326 104.11899336999214 l 18.767633473869378 3.7540523130040895 a40.13940895059912,40.13940895059912 0 0,0 -0.1409510429606749,0.6745017654187443 l -18.70042472008434 -4.075670529708243" fill="#ffcf13" stroke="none" /><path d="M 120.43855184770803 104.8234425847677 l 26.652841080011704 6.289997922959062 a48.38499610201157,48.38499610201157 0 0,0 -0.19771600928633312,0.8067487886418646 l -26.540937544209076 -6.746602536209026" fill="#c5ff1e" stroke="none" /><path d="M 120.35273937422433 105.17358676015961 l 22.593914050213115 5.743284598750563 a44.312448822263676,44.312448822263676 0 0,0 -0.1937309015802784,0.7356277884963587 l -22.49199366782811 -6.130292891619725" fill="#f8ff18" stroke="none" /><path d="M 120.26092885502905 105.52220625578681 l 52.70020449171325 14.363675081616362 a75.62258429732742,75.62258429732742 0 0,0 -0.35211858694332787,1.2495446440547329 l -52.44586741269534 -15.266227649574104" fill="#42ffd6" stroke="none" /><path d="M 120.16314734710363 105.8691983318838 l 23.36063308480984 6.799939829473619 a45.33019440546199,45.33019440546199 0 0,0 -0.2238959323183522,0.7452767404822945 l -23.24046083248786 -7.199954173546637" fill="#ebff1a" stroke="none" /><path d="M 120.05942366710727 106.21446072829308 l 30.552020524097816 9.465094055934552 a52.98458947044001,52.98458947044001 0 0,0 -0.27661812028653143,0.8665023219665979 l -30.38503768803403 -9.988165411592533" fill="#8eff24" stroke="none" /><path d="M 119.94978838288452 106.5578916946017 l 18.531898753462496 6.091803210544089 a40.507468768771105,40.507468768771105 0 0,0 -0.22281919895215171,0.6587253693250272 l -18.42459413293798 -6.4090302543432776" fill="#ffd413" stroke="none" /><path d="M 119.83427380445688 106.89939002012753 l 4.648017804294556 1.6168218694812482 a25.92119725947579,25.92119725947579 0 0,0 -0.14979962341273267,0.4190162075403185 l -4.61957801083788 -1.696373033402488" fill="#ff0100" stroke="none" /><path d="M 119.71291397450082 107.23885506374661 l 11.068371067198214 4.064459168789281 a32.79104178671019,32.79104178671019 0 0,0 -0.19857211242990658,0.5267361200064833 l -10.996968270953868 -4.253863568989923" fill="#ff6809" stroke="none" /><path d="M 119.58574465831526 107.57618678355244 l 38.86604459767882 15.034220988114473 a62.67249960571385,62.67249960571385 0 0,0 -0.396750720988983,1.0000709936456198 l -38.602235201723715 -15.699192998973658" fill="#31ff3d" stroke="none" /><path d="M 119.4528033332814 107.91128576633889 l 5.818066134794216 2.3661568469705734 a27.28081139450191,27.28081139450191 0 0,0 -0.1801496895472369,0.4322936737216283 l -5.776590600710493 -2.4656830301334796" fill="#ff1602" stroke="none" /><path d="M 119.31412917781788 108.2440532568976 l 25.613377056305282 10.932827599791208 a48.8490898155617,48.8490898155617 0 0,0 -0.3358168316036772,0.7684146296669769 l -25.42192634268464 -11.37090429923403" fill="#bfff1e" stroke="none" /><path d="M 119.16976305983485 108.57439118712176 l 11.38691944711547 5.093224232926616 a33.474087845689056,33.474087845689056 0 0,0 -0.23912539055523366,0.5225321336252496 l -11.297809591705182 -5.287945348766554" fill="#ff720a" stroke="none" /><path d="M 118.8641267826498 109.22738970284198 l 22.469559440066543 10.990987486118959 a46.01365441815144,46.01365441815144 0 0,0 -0.3531659434553812,0.7065684633973406 l -22.27757358339943 -11.375087805680046" fill="#e2ff1b" stroke="none" /><path d="M 118.70294669586154 109.54985784667822 l 4.344226720453713 2.2181931173045575 a25.877774749243894,25.877774749243894 0 0,0 -0.2054102973134649,0.3939013294614877 l -4.3055083541652985 -2.2924406898705483" fill="#ff0000" stroke="none" /><path d="M 118.5362547648365 109.86951160357373 l 36.271901813704204 19.312744692802998 a62.09297955554438,62.09297955554438 0 0,0 -0.5090283422250785,0.9365548166370932 l -35.93502812186379 -19.932554342914695" fill="#30ff36" stroke="none" /><line stroke="#e1ed5e" stroke-width="0.3" x1="174.33088141563837" x2="178.70328620479359" y1="141.23008692659167" y2="143.65538615756765" /><path d="M 175.20536237346943 141.71514677278685 a86.0,86.0 0 0,1 -30.301960400862466,31.631185727798858" fill="none" id="id53" stroke="none" /><text fill="#e1ed5e" style="font-size:6.75px; font-family:Arial;" text-anchor="middle"><textPath startOffset="22.145653131862474" xlink:href="#id53">May</textPath></text><path d="M 118.18653347947321 110.5 l 31.1538518109877 17.98668472936745 a56.973369458734915,56.973369458734915 0 0,0 -0.4962822426901198,0.8427957457493319 l -30.840495858167817 -18.51883164341033" fill="#61ff29" stroke="none" /><path d="M 118.00360718960297 110.81064883170644 l 10.499140831618847 6.30443240456885 a33.2465434366577,33.2465434366577 0 0,0 -0.29800307361447076,0.4867656249488075 l -10.38936979354897 -6.483735145642214" fill="#ff6f0a" stroke="none" /><path d="M 117.81537515405839 111.11811171558189 l 44.459278782475934 27.745878154306705 a73.40669064548484,73.40669064548484 0 0,0 -0.6763283788663143,1.0633005467356924 l -43.976432711983726 -28.50499237572107" fill="#3fffbe" stroke="none" /><path d="M 117.62189284568427 111.42229804090321 l 4.489119182342224 2.909792817994947 a26.349680857483733,26.349680857483733 0 0,0 -0.24928750612477943,0.3774530572035796 l -4.438507237296718 -2.9864257535375875" fill="#ff0701" stroke="none" /><path d="M 117.423217284605 111.72311816256416 l 9.478033835026983 6.377244155416698 a32.42376332018975,32.42376332018975 0 0,0 -0.31468074932026835,0.4591286176064006 l -9.367163348891394 -6.5390075080931425" fill="#ff6309" stroke="none" /><path d="M 117.21940702142032 112.02048342749411 l 24.037536873392852 16.780067586820092 a50.31507883595013,50.31507883595013 0 0,0 -0.5004790611954621,0.7039864762813719 l -23.745942713667432 -17.190231289810967" fill="#adff20" stroke="none" /><path d="M 117.01052211995028 112.31430620078461 l 9.51214117602153 6.886056656029491 a32.74302371719534,32.74302371719534 0 0,0 -0.33350793551556673,0.4524675665804571 l -9.392531220922136 -7.048330531878825" fill="#ff6809" stroke="none" /><path d="M 116.79662413953412 112.60449989151573 l 10.886414055971088 8.169368061556739 a34.610752570053876,34.610752570053876 0 0,0 -0.3606902267731294,0.4721550851578568 l -10.744571851843654 -8.355044059955473" fill="#ff830c" stroke="none" /><path d="M 116.57777611688842 112.89097897827486 l 8.992840677718368 6.992887303704366 a32.391736316169535,32.391736316169535 0 0,0 -0.34510089446352205,0.43602370659788603 l -8.871473352613283 -7.146230954216935" fill="#ff6209" stroke="none" /><path d="M 115.89218393027572 113.72728997021213 l 46.96449484537398 40.56681208042098 a83.05908489858152,83.05908489858152 0 0,0 -0.9412925354089015,1.0710181146078717 l -46.2611912460065 -41.36704247284014" fill="#4cdbff" stroke="none" /><path d="M 115.6541949942343 113.99807769240083 l 8.520021540251983 7.618655798353265 a32.42955306300905,32.42955306300905 0 0,0 -0.37464210160744066,0.411797297303006 l -8.387981737802663 -7.763790671213943" fill="#ff6309" stroke="none" /><path d="M 115.41159269507618 114.26474011684316 l 26.93458758092096 24.930252154856177 a57.70135529730493,57.70135529730493 0 0,0 -0.6790739689162031,0.7211530224073575 l -26.502657778268496 -25.38894663720803" fill="#59ff2a" stroke="none" /><path d="M 115.16444852881244 114.52719865689866 l 31.097132683782355 29.79034966546325 a64.06386645835846,64.06386645835846 0 0,0 -0.7675863985826231,0.7876112656167127 l -30.581159484048925 -30.3197836231477" fill="#33ff4f" stroke="none" /><path d="M 114.91283532996324 114.78537596483092 l 8.690108250542995 8.615834267357522 a33.23726201111701,33.23726201111701 0 0,0 -0.4051908394096823,0.40172769065185754 l -8.540925491003348 -8.76374196823804" fill="#ff6f0a" stroke="none" /><path d="M 114.65682725009322 115.03919595460226 l 22.318453682580127 22.900699626783297 a52.977420442831644,52.977420442831644 0 0,0 -0.6567371509119314,0.6291393345782568 l -21.92204404580288 -23.280451091667135" fill="#8eff24" stroke="none" /><path d="M 114.39649973595853 115.28858382429668 l 19.38146558985351 20.582444812476375 a49.271509384348604,49.271509384348604 0 0,0 -0.6207511669296724,0.5745580128332808 l -19.02528465160987 -20.912120571442035" fill="#baff1f" stroke="none" /><path d="M 114.13192950727249 115.5334660781643 l 7.6524211311755765 8.41135133003402 a32.37147221630197,32.37147221630197 0 0,0 -0.41425460560646077,0.3704290227539574 l -7.506901498745738 -8.541475882671364" fill="#ff6209" stroke="none" /><path d="M 113.86319453409587 115.77377054828091 l 20.52384923228011 23.352372915295845 a52.089575553300946,52.089575553300946 0 0,0 -0.6767192905420764,0.5845340055503699 l -20.11995046197518 -23.701251053310934" fill="#98ff23" stroke="none" /><path d="M 113.59037401385872 116.0094264158162 l 14.68378432779716 17.29746101629454 a43.68955001306749,43.68955001306749 0 0,0 -0.5759232748825998,0.4804556793281395 l -14.384686718752665 -17.54697887953455" fill="#fffe18" stroke="none" /><path d="M 113.03279911837588 116.46651593811092 l 7.649256586384883 9.664585815399503 a33.3253943266564,33.3253943266564 0 0,0 -0.4516226579274245,0.3511845104195927 l -7.4822239838222275 -9.794471377439889" fill="#ff700a" stroke="none" /><line stroke="#e1ed5e" stroke-width="0.3" x1="143.1302829299769" x2="145.66735839644613" y1="173.24464959558577" y2="177.55315839532614" /><path d="M 143.63769802327073 174.10635135553383 a86.0,86.0 0 0,1 -40.68552437913181,11.842963189579606" fill="none" id="id54" stroke="none" /><text fill="#e1ed5e" style="font-size:6.75px; font-family:Arial;" text-anchor="middle"><textPath startOffset="21.407464694133747" xlink:href="#id54">June</textPath></text><line stroke="#e1ed5e" stroke-width="0.3" x1="101.45913802915013" x2="101.54496967792366" y1="184.9874750549273" y2="189.98673829345242" /><path d="M 101.47630435890484 185.9873277026323 a86.0,86.0 0 0,1 -42.54439059252881,-10.42667462771756" fill="none" id="id55" stroke="none" /><text fill="#e1ed5e" style="font-size:6.75px; font-family:Arial;" text-anchor="middle"><textPath startOffset="22.145653131862474" xlink:href="#id55">July</textPath></text><line stroke="#e1ed5e" stroke-width="0.3" x1="58.13341422392154" x2="55.67067388415222" y1="173.97424548756322" y2="178.32567169271397" /><path d="M 57.64086615596768 174.84453072859336 a86.0,86.0 0 0,1 -31.369924170532247,-30.572349798747897" fill="none" id="id56" stroke="none" /><text fill="#e1ed5e" style="font-size:6.75px; font-family:Arial;" text-anchor="middle"><textPath startOffset="22.145653131862474" xlink:href="#id56">August</textPath></text><line stroke="#e1ed5e" stroke-width="0.3" x1="26.387840678322732" x2="22.057713659400548" y1="142.50000000000003" y2="145.00000000000006" /><path d="M 25.521815274538298 143.00000000000003 a86.0,86.0 0 0,1 -11.493303480769221,-40.785679425670985" fill="none" id="id57" stroke="none" /><text fill="#e1ed5e" style="font-size:6.75px; font-family:Arial;" text-anchor="middle"><textPath startOffset="21.40746469413373" xlink:href="#id57">September</textPath></text><line stroke="#e1ed5e" stroke-width="0.3" x1="15.003131293944662" x2="10.003315487706104" y1="100.72959589197737" y2="100.7725132973878" /><path d="M 14.003168132696942 100.73817937305945 a86.0,86.0 0 0,1 10.791469493833604,-42.45332614584628" fill="none" id="id58" stroke="none" /><text fill="#e1ed5e" style="font-size:6.75px; font-family:Arial;" text-anchor="middle"><textPath startOffset="22.145653131862435" xlink:href="#id58">October</textPath></text><line stroke="#e1ed5e" stroke-width="0.3" x1="26.387840678322718" x2="22.05771365940052" y1="57.49999999999999" y2="54.99999999999999" /><path d="M 25.521815274538284 56.99999999999999 a86.0,86.0 0 0,1 29.574782752854787,-30.34633250058573" fill="none" id="id59" stroke="none" /><text fill="#e1ed5e" style="font-size:6.75px; font-family:Arial;" text-anchor="middle"><textPath startOffset="21.40746469413373" xlink:href="#id59">November</textPath></text><line stroke="#e1ed5e" stroke-width="0.3" x1="56.869717070023135" x2="54.33264160355391" y1="26.7553504044142" y2="22.446841604673864" /><path d="M 56.362301976729285 25.89364864446614 a86.0,86.0 0 0,1 42.16139366436587,-11.88097634709845" fill="none" id="id60" stroke="none" /><text fill="#e1ed5e" style="font-size:6.75px; font-family:Arial;" text-anchor="middle"><textPath startOffset="22.145653131862474" xlink:href="#id60">December</textPath></text></svg>