<?xml version="1.0" encoding="utf-8" ?>
<svg baseProfile="full" height="200mm" version="1.1" viewBox="0,0,200,200" width="200mm" xmlns="http://www.w3.org/2000/svg" xmlns:ev="http://www.w3.org/2001/xml-events" xmlns:xlink="http://www.w3.org/1999/xlink"><defs /><rect fill="#1a1a1a" height="200" width="200" x="0" y="0" /><text alignment-baseline="middle" fill="#e1ed5e" style="dominant-baseline: central; font-size:9.0px; font-family:Arial;" text-anchor="middle" x="100.0" y="100.0">2025</text><line stroke="#e1ed5e" stroke-width="0.3" x1="100.0" x2="100.0" y1="15.0" y2="10.0" /><path d="M 100.0 14.0 a86.0,86.0 0 0,1 42.46469731375804,11.215312516191453" fill="none" id="id61" stroke="none" /><text fill="#e1ed5e" style="font-size:6.75px; font-family:Arial;" text-anchor="middle"><textPath startOffset="22.20632615414155" xlink:href="#id61">January</textPath></text><path d="M 100.0 79.0 l 0.0 -49.85134161688964 a70.85134161688964,70.85134161688964 0 0,0 1.2195893773702335,0.010497390809133521 l -0.8581088980977051 49.843955602689064" fill="#3cffa5" stroke="none" /><path d="M 100.36148047927253 79.00311137660856 l 0.10252410076602723 -5.955196057418844 a26.95607851472215,26.95607851472215 0 0,0 0.46386708546745115,0.011980318276417866 l -0.20501782142834618 5.952548947000066" fill="#ff2c04" stroke="none" /><path d="M 100.72285384407766 79.0124445844662 l 1.0350081740864034 -30.05073790108404 a51.0685565054273,51.0685565054273 0 0,0 0.8782798742180244,0.0378205788946199 l -1.5521288806937594 30.02846959566523" fill="#98ff23" stroke="none" /><path d="M 101.08401301168833 79.027996857942 l 1.254055824450166 -24.26175922899964 a45.29414779112012,45.29414779112012 0 0,0 0.7782784518335049,0.04694788160085745 l -1.6714963251232826 24.23657807801848" fill="#dcff1b" stroke="none" /><path d="M 101.44485096284872 79.0497635885617 l 1.1873136466795047 -17.21596360597576 a38.25685708864373,38.25685708864373 0 0,0 0.6565784104242887,0.05096312126419956 l -1.4834822464661346 17.192975222523096" fill="#ffca12" stroke="none" /><path d="M 101.80526077348638 79.07773832637324 l 0.5820571949509757 -6.7458137464888575 a27.77087835369328,27.77087835369328 0 0,0 0.47590672943465034,0.0451930783844139 l -0.6980890514758703 6.734795123589265" fill="#ff3805" stroke="none" /><path d="M 102.16513564639614 79.11191278185805 l 3.062938235057309 -29.5496132559416 a50.70793217656684,50.70793217656684 0 0,0 0.867427506380637,0.09746558732307437 l -3.5711324449476716 29.492511715147923" fill="#9cff22" stroke="none" /><path d="M 102.52436894288641 79.15227682838746 l 3.88222488814245 -32.06169604724862 a53.295882454397656,53.295882454397656 0 0,0 0.9097994710037459,0.11811808275593964 l -4.433539087654042 31.99011964132854" fill="#7fff26" stroke="none" /><path d="M 102.88285421437855 79.19881850522331 l 0.9270629648826628 -6.689205750824617 a27.75314144067205,27.75314144067205 0 0,0 0.47263734617787,0.06965445884686712 l -1.0420692914891887 6.672256807816781" fill="#ff3805" stroke="none" /><path d="M 103.2404852339499 79.25152402106235 l 4.698618043497208 -30.0847424294148 a51.44944561996012,51.44944561996012 0 0,0 0.8738340291898071,0.14419010211520059 l -5.215781278825891 29.999406064359977" fill="#94ff23" stroke="none" /><path d="M 103.59715602781102 79.31037775812273 l 5.459177283861096 -31.39933738800202 a52.87037817507358,52.87037817507358 0 0,0 0.8952840203900416,0.16360743221483695 l -5.998856425354038 31.300714474436447" fill="#84ff25" stroke="none" /><path d="M 104.307194497241 79.44645832069477 l 1.2388540566526995 -5.911699252099707 a27.040111540440382,27.040111540440382 0 0,0 0.45473391096222265,0.09938722004305116 l -1.3404306917684503 5.8894985339607855" fill="#ff2e04" stroke="none" /><path d="M 104.66035177308747 79.52364482259891 l 7.810072182802255 -34.315395009388155 a56.19294761952916,56.19294761952916 0 0,0 0.9413022824907622,0.22277583800856413 l -8.39959815225554 34.17587325923872" fill="#60ff29" stroke="none" /><path d="M 105.01212808612495 79.60689891045804 l 4.313635188475843 -17.551107423913546 a39.07342857193981,39.07342857193981 0 0,0 0.6517654627310043,0.16614952861352272 l -4.615109539891871 17.474254899131154" fill="#ffd413" stroke="none" /><path d="M 105.36241919743992 79.69619591428918 l 3.1503535115453487 -11.928228313386063 a33.33723461493584,33.33723461493584 0 0,0 0.5535601941748809,0.1513089119254742 l -3.35521159494394 11.872232860634295" fill="#ff870c" stroke="none" /><path d="M 105.71112130821622 79.79150937346287 l 1.6876066541481103 -5.97150391510168 a27.20539081985975,27.20539081985975 0 0,0 0.4495493688166003,0.13123578821293125 l -1.7901462406881379 5.941569797970045" fill="#ff3004" stroke="none" /><path d="M 106.0581310904928 79.89281104454417 l 6.955065434331883 -23.084151332600992 a45.10914718405158,45.10914718405158 0 0,0 0.7415398777371295,0.23040004964409044 l -7.351390684779731 22.96101114807438" fill="#deff1b" stroke="none" /><path d="M 106.40334571778207 80.00007090966166 l 6.092181491260085 -19.028052396470684 a40.97952585336513,40.97952585336513 0 0,0 0.6699511981819621,0.22087237680784497 l -6.418815511684465 18.920366295403603" fill="#ffed16" stroke="none" /><path d="M 106.74666289553966 80.11325718540242 l 1.956180862786621 -5.766119683079768 a27.088906286643976,27.088906286643976 0 0,0 0.4402824383750052,0.15360589757674237 l -2.0551453052249 5.731592932330818" fill="#ff2e04" stroke="none" /><path d="M 107.08798089147638 80.2323363322302 l 18.993786239535776 -52.97175372074835 a77.2740669222049,77.2740669222049 0 0,0 1.2482252028306964,0.45973187640836455 l -19.90279376813905 52.63695857653366" fill="#44ffea" stroke="none" /><path d="M 107.4271985657038 80.35727306442388 l 1.9801896024169927 -5.237011411079488 a26.59887840386779,26.59887840386779 0 0,0 0.4268699911538205,0.16561892474447049 l -2.07004275857048 5.2021497824444705" fill="#ff2703" stroke="none" /><path d="M 107.76421540070413 80.48803036053334 l 11.238146213446344 -28.2421798474017 a51.3959973162221,51.3959973162221 0 0,0 0.819193778111023,0.3341697108222906 l -11.722623861145754 28.044549250395832" fill="#94ff23" stroke="none" /><path d="M 108.09893153111575 80.62456947434976 l 1.1453464199611263 -2.7400626740082843 a23.969808390992792,23.969808390992792 0 0,0 0.3793122214752807,0.16240169773866248 l -1.1923423992267224 2.719941448306831" fill="#ff0000" stroke="none" /><path d="M 108.76106565485865 80.91482961587045 l 13.8975347267815 -30.274492696318188 a54.311955504015685,54.311955504015685 0 0,0 0.8462883441828885,0.397343725081659 l -14.416601282263986 30.030783988596525" fill="#74ff27" stroke="none" /><path d="M 109.08828744355905 81.06846463323043 l 27.264862330677165 -56.79460610030869 a84.0,84.0 0 0,0 1.2981149319582728,0.6369793594606721 l -28.23844852964587 56.31687158071319" fill="#4dd2ff" stroke="none" /><path d="M 109.73455568895987 81.39251694778311 l 11.319178867156936 -21.63647069937705 a45.41844947067061,45.41844947067061 0 0,0 0.6896141710822347,0.36836800734096903 l -11.689938084767482 21.438423965534326" fill="#daff1c" stroke="none" /><path d="M 110.05341064243156 81.56283822128135 l 7.500834813690528 -13.755939138880025 a36.66806894594363,36.66806894594363 0 0,0 0.5515504609652079,0.30693723437612447 l -7.73650936372777 13.624786506943721" fill="#ffb510" stroke="none" /><path d="M 110.36928655335952 81.73862282372117 l 1.925925980922934 -3.391753190563899 a24.900407746594496,24.900407746594496 0 0,0 0.37090137648001953,0.21485001728454894 l -1.984024089868282 3.3580990158893003" fill="#ff0e01" stroke="none" /><line stroke="#e1ed5e" stroke-width="0.3" x1="143.23703022742887" x2="145.7803849466894" y1="26.81831364943548" y2="22.513508569990506" /><path d="M 143.74570117128098 25.957352633546492 a86.0,86.0 0 0,1 28.547481713284135,27.462654790039103" fill="none" id="id62" stroke="none" /><text fill="#e1ed5e" style="font-size:6.75px; font-family:Arial;" text-anchor="middle"><textPath startOffset="19.985693538727396" xlink:href="#id62">February</textPath></text><path d="M 110.68208982089419 81.91981866633111 l 7.213921386022444 -12.210064600935885 a35.18190182319493,35.18190182319493 0 0,0 0.5187453041460957,0.3125382414671982 l -7.423028756386177 12.084079750010073" fill="#ffa10e" stroke="none" /><path d="M 110.99172775467656 82.1063720568725 l 19.757372680504478 -32.16337629252552 a58.74700716309754,58.74700716309754 0 0,0 0.8570932309629785,0.536711702599133 l -20.30808506383972 31.81852024860344" fill="#45ff2d" stroke="none" /><path d="M 111.90073688211348 82.69761687909136 l 3.4674850023316854 -5.041347823303263 a27.118712292379804,27.118712292379804 0 0,0 0.38233363068398696,0.2678491416268357 l -3.5537497725993235 4.980913838912492" fill="#ff2f04" stroke="none" /><path d="M 112.19680574252982 82.90503203632743 l 3.5206085176001047 -4.934463259601221 a27.061650929784122,27.061650929784122 0 0,0 0.37687174102924836,0.27381334746117014 l -3.6050255749831415 4.873130677323376" fill="#ff2e04" stroke="none" /><path d="M 112.48926042617603 83.11751280151076 l 3.6178078475345945 -4.8904092466984865 a27.083143613451597,27.083143613451597 0 0,0 0.3723981850808683,0.28048259237887535 l -3.701452186373846 4.827410064813764" fill="#ff2e04" stroke="none" /><path d="M 112.77801427241765 83.33499621200491 l 3.7219883054567733 -4.854193138851053 a27.116893654071944,27.116893654071944 0 0,0 0.36797294745782577,0.28720872218101023 l -3.8049938080740295 4.789406027446819" fill="#ff2f04" stroke="none" /><path d="M 113.34407831869373 83.78471172551755 l 20.38308657704484 -24.768861278901028 a53.07751092994511,53.07751092994511 0 0,0 0.7004777195811599,0.5866299454884364 l -20.806421833585116 24.414330176018773" fill="#81ff25" stroke="none" /><path d="M 113.6212207817346 84.01681056812373 l 4.064937478004655 -4.76981224963362 a27.266963028201282,27.266963028201282 0 0,0 0.3546084140510084,0.3075129222956967 l -4.146439690702428 4.699134333918252" fill="#ff3104" stroke="none" /><path d="M 113.89432698308785 84.25364557470407 l 2.044763977952065 -2.3173183092712644 a24.090473082234205,24.090473082234205 0 0,0 0.30857488393978877,0.27704157755124376 l -2.084349849487844 2.2817777229507232" fill="#ff0200" stroke="none" /><line stroke="#e1ed5e" stroke-width="0.3" x1="172.23445277983987" x2="176.4835382374775" y1="55.19839476539836" y2="52.563006222186495" /><path d="M 173.08426987136738 54.67131705675599 a86.0,86.0 0 0,1 12.851231095245387,41.99856678651699" fill="none" id="id63" stroke="none" /><text fill="#e1ed5e" style="font-size:6.75px; font-family:Arial;" text-anchor="middle"><textPath startOffset="22.20632615414155" xlink:href="#id63">March</textPath></text><line stroke="#e1ed5e" stroke-width="0.3" x1="184.98032266829074" x2="189.97916517819016" y1="98.17113171792111" y2="98.06355123074" /><path d="M 185.9800911702706 98.14961562048488 a86.0,86.0 0 0,1 -9.607161424134198,41.387399972396054" fill="none" id="id64" stroke="none" /><text fill="#e1ed5e" style="font-size:6.75px; font-family:Arial;" text-anchor="middle"><textPath startOffset="21.466115282336823" xlink:href="#id64">April</textPath></text><line stroke="#e1ed5e" stroke-width="0.3" x1="174.80103733775053" x2="179.2010983576182" y1="140.37084112569926" y2="142.7455964860345" /><path d="M 175.68104954172406 140.8457921977663 a86.0,86.0 0 0,1 -30.038265399797805,32.042727171017184" fill="none" id="id65" stroke="none" /><text fill="#e1ed5e" style="font-size:6.75px; font-family:Arial;" text-anchor="middle"><textPath startOffset="22.206326154141568" xlink:href="#id65">May</textPath></text><line stroke="#e1ed5e" stroke-width="0.3" x1="143.8653032363475" x2="146.44561519142675" y1="172.8068346515853" y2="177.08958963109032" /><path d="M 144.38136562736335 173.6633856474863 a86.0,86.0 0 0,1 -40.68145358897372,12.25698825130547" fill="none" id="id66" stroke="none" /><text fill="#e1ed5e" style="font-size:6.75px; font-family:Arial;" text-anchor="middle"><textPath startOffset="21.466115282336833" xlink:href="#id66">June</textPath></text><line stroke="#e1ed5e" stroke-width="0.3" x1="102.19456741930631" x2="102.32365962044197" y1="184.97166512339345" y2="189.96999836594603" /><path d="M 102.22038585953345 185.97133177190398 a86.0,86.0 0 0,1 -42.740103519485714,-10.115201625700543" fill="none" id="id67" stroke="none" /><text fill="#e1ed5e" style="font-size:6.75px; font-family:Arial;" text-anchor="middle"><textPath startOffset="22.20632615414155" xlink:href="#id67">July</textPath></text><line stroke="#e1ed5e" stroke-width="0.3" x1="58.666819895761336" x2="56.23545636021788" y1="174.27360380694188" y2="178.64263932499728" /><path d="M 58.180547188652646 175.14741091055294 a86.0,86.0 0 0,1 -31.652253787137756,-30.449443065178592" fill="none" id="id68" stroke="none" /><text fill="#e1ed5e" style="font-size:6.75px; font-family:Arial;" text-anchor="middle"><textPath startOffset="22.20632615414155" xlink:href="#id68">August</textPath></text><line stroke="#e1ed5e" stroke-width="0.3" x1="26.63291911575756" x2="22.317208475507996" y1="142.92168965132927" y2="145.44649492493687" /><path d="M 25.769776987707644 143.4266507060508 a86.0,86.0 0 0,1 -11.730757126820373,-40.83630448921669" fill="none" id="id69" stroke="none" /><text fill="#e1ed5e" style="font-size:6.75px; font-family:Arial;" text-anchor="middle"><textPath startOffset="21.46611528233685" xlink:href="#id69">September</textPath></text><line stroke="#e1ed5e" stroke-width="0.3" x1="15.007084014347285" x2="10.007500721073583" y1="101.09737516637583" y2="101.16192664675087" /><path d="M 14.007167355692545 101.11028546245083 a86.0,86.0 0 0,1 10.666146001902534,-42.60595125391555" fill="none" id="id70" stroke="none" /><text fill="#e1ed5e" style="font-size:6.75px; font-family:Arial;" text-anchor="middle"><textPath startOffset="22.20632615414155" xlink:href="#id70">October</textPath></text><line stroke="#e1ed5e" stroke-width="0.3" x1="26.266209847984243" x2="21.928928074336255" y1="57.711370442889674" y2="55.22380399835377" /><path d="M 25.398753493254645 57.213857153982495 a86.0,86.0 0 0,1 29.58750427330803,-30.492523968695096" fill="none" id="id71" stroke="none" /><text fill="#e1ed5e" style="font-size:6.75px; font-family:Arial;" text-anchor="middle"><textPath startOffset="21.46611528233685" xlink:href="#id71">November</textPath></text><line stroke="#e1ed5e" stroke-width="0.3" x1="56.762969772571076" x2="54.21961505331055" y1="26.818313649435495" y2="22.513508569990535" /><path d="M 56.25429882871897 25.957352633546506 a86.0,86.0 0 0,1 42.265352541879196,-11.944610805530505" fill="none" id="id72" stroke="none" /><text fill="#e1ed5e" style="font-size:6.75px; font-family:Arial;" text-anchor="middle"><textPath startOffset="22.20632615414155" xlink:href="#id72">December</textPath></text></svg>