<?xml version="1.0" encoding="utf-8" ?>
<svg baseProfile="full" height="200mm" version="1.1" viewBox="0,0,200,200" width="200mm" xmlns="http://www.w3.org/2000/svg" xmlns:ev="http://www.w3.org/2001/xml-events" xmlns:xlink="http://www.w3.org/1999/xlink"><defs /><rect fill="#1a1a1a" height="200" width="200" x="0" y="0" /><text alignment-baseline="middle" fill="#e1ed5e" style="dominant-baseline: central; font-size:9.0px; font-family:Arial;" text-anchor="middle" x="100.0" y="100.0">2023</text><line stroke="#e1ed5e" stroke-width="0.3" x1="100.0" x2="100.0" y1="15.0" y2="10.0" /><path d="M 100.0 14.0 a86.0,86.0 0 0,1 42.46469731375804,11.215312516191453" fill="none" id="id37" stroke="none" /><text fill="#e1ed5e" style="font-size:6.75px; font-family:Arial;" text-anchor="middle"><textPath startOffset="22.20632615414155" xlink:href="#id37">January</textPath></text><path d="M 100.0 79.0 l 0.0 -6.477522632633594 a27.477522632633594,27.477522632633594 0 0,0 0.47298038335553033,0.004071091484777289 l -0.11149990408300196 6.476562917757375" fill="#ff4706" stroke="none" /><path d="M 100.36148047927253 79.00311137660856 l 0.23648901446055162 -13.736657390951896 a34.738692926561605,34.738692926561605 0 0,0 0.5977923024668482,0.015439211513635252 l -0.47290795212226766 13.730551387295902" fill="#ffaa0f" stroke="none" /><path d="M 102.16513564639614 79.11191278185805 l 0.4254322946677545 -4.1043464834297305 a25.12633647360322,25.12633647360322 0 0,0 0.42981984191125283,0.048295267358755244 l -0.4960188400887326 4.096415262600374" fill="#ff2503" stroke="none" /><path d="M 102.52436894288641 79.15227682838746 l 1.4573297501627736 -12.035486051579081 a33.12339616190381,33.12339616190381 0 0,0 0.5654404602782027,0.07341039999398105 l -1.6642849389488223 12.008617328420963" fill="#ff940d" stroke="none" /><path d="M 105.01212808612495 79.60689891045804 l 3.0264673655145375 -12.313942075820895 a33.68040512606741,33.68040512606741 0 0,0 0.5618069781499396,0.1432171078845964 l -3.237983232349502 12.260021971767431" fill="#ff9c0e" stroke="none" /><path d="M 107.4271985657038 80.35727306442388 l 0.7806914266444421 -2.0646961810518105 a23.207362549217066,23.207362549217066 0 0,0 0.37244151785916163,0.14450152270321 l -0.8161161095032708 2.050951954458054" fill="#ff0901" stroke="none" /><path d="M 109.41281617654863 81.2277094730956 l 0.7240597113901268 -1.4440162227863513 a22.615377763041362,22.615377763041362 0 0,0 0.34648860068938225,0.1774849189633656 l -0.7488087996682646 1.4313387785104852" fill="#ff0100" stroke="none" /><path d="M 109.73455568895987 81.39251694778311 l 0.8152887032237705 -1.5584142936390308 a22.758792421015833,22.758792421015833 0 0,0 0.3455596999273728,0.1845860242109354 l -0.8419934496794544 1.5441495429263412" fill="#ff0300" stroke="none" /><path d="M 110.36928655335952 81.73862282372117 l 0.8727509153184986 -1.5370038780932418 a22.76750532713849,22.76750532713849 0 0,0 0.3391309552353316,0.19644653866082834 l -0.8990786030191585 1.521753182042364" fill="#ff0300" stroke="none" /><line stroke="#e1ed5e" stroke-width="0.3" x1="143.23703022742887" x2="145.7803849466894" y1="26.81831364943548" y2="22.513508569990506" /><path d="M 143.74570117128098 25.957352633546492 a86.0,86.0 0 0,1 28.547481713284135,27.462654790039103" fill="none" id="id38" stroke="none" /><text fill="#e1ed5e" style="font-size:6.75px; font-family:Arial;" text-anchor="middle"><textPath startOffset="19.985693538727396" xlink:href="#id38">February</textPath></text><path d="M 110.68208982089419 81.91981866633111 l 0.9724352616873765 -1.645914438218958 a22.911717729192944,22.911717729192944 0 0,0 0.3378255684320012,0.203536125024196 l -1.0006228963370152 1.6289317037361475" fill="#ff0500" stroke="none" /><path d="M 111.2981086023043 82.29822771554956 l 1.2873833572875353 -2.017060362550184 a23.39288286691848,23.39288286691848 0 0,0 0.33756261288772677,0.21956011333713224 l -1.3219129959595421 1.9946013250535237" fill="#ff0c01" stroke="none" /><path d="M 112.48926042617603 83.11751280151076 l 2.5392926604065655 -3.432515166605216 a25.269680032996558,25.269680032996558 0 0,0 0.34746272870584516,0.2617017236034325 l -2.5980015428707937 3.388296853495936" fill="#ff2703" stroke="none" /><path d="M 112.77801427241765 83.33499621200491 l 1.0177232263426919 -1.3273080668521264 a22.672575041595476,22.672575041595476 0 0,0 0.30766408464569217,0.2401366981528092 l -1.0404198661478143 1.3095929794760932" fill="#ff0100" stroke="none" /><path d="M 114.16331599549186 84.49514656593476 l 2.343060815897073 -2.5649935755969007 a24.474064770531147,24.474064770531147 0 0,0 0.30859711441575854,0.2868073857209486 l -2.3868658141076784 2.5242816038013114" fill="#ff1c02" stroke="none" /><path d="M 115.68641384162765 86.03803664274999 l 17.24202189927057 -15.346559155775726 a44.0825517891036,44.0825517891036 0 0,0 0.4996193333360734,0.571151265937762 l -17.50363309618449 15.047492333635015" fill="#dfff1b" stroke="none" /><path d="M 115.9244219780498 86.31012108654704 l 3.3544352967429187 -2.8837350014161736 a25.423591721489167,25.423591721489167 0 0,0 0.28243114836477207,0.3343093962939414 l -3.403577058594808 2.825566655493126" fill="#ff2a04" stroke="none" /><path d="M 117.04232023915458 87.72973835380427 l 1.2775187556958425 -0.9197978426843605 a22.574192568449444,22.574192568449444 0 0,0 0.22433090986439858,0.3173001629815833 l -1.293162285364124 0.8976711793709841" fill="#ff0000" stroke="none" /><path d="M 117.2510076193507 88.02491185347247 l 15.800500701856341 -10.968193443480809 a40.23426863291085,40.23426863291085 0 0,0 0.39003393977964507,0.5723266789663147 l -15.98695910730472 10.694588741244088" fill="#fff016" stroke="none" /><line stroke="#e1ed5e" stroke-width="0.3" x1="172.23445277983987" x2="176.4835382374775" y1="55.19839476539836" y2="52.563006222186495" /><path d="M 173.08426987136738 54.67131705675599 a86.0,86.0 0 0,1 12.851231095245387,41.99856678651699" fill="none" id="id39" stroke="none" /><text fill="#e1ed5e" style="font-size:6.75px; font-family:Arial;" text-anchor="middle"><textPath startOffset="22.20632615414155" xlink:href="#id39">March</textPath></text><path d="M 119.47837535516314 92.15188598940014 l 58.435126065489385 -23.54434203179955 a84.0,84.0 0 0,0 0.5288258004731983,1.3458039804168624 l -58.83174541584429 22.534989046486903" fill="#4dd2ff" stroke="none" /><line stroke="#e1ed5e" stroke-width="0.3" x1="184.98032266829074" x2="189.97916517819016" y1="98.17113171792111" y2="98.06355123074" /><path d="M 185.9800911702706 98.14961562048488 a86.0,86.0 0 0,1 -9.607161424134198,41.387399972396054" fill="none" id="id40" stroke="none" /><text fill="#e1ed5e" style="font-size:6.75px; font-family:Arial;" text-anchor="middle"><textPath startOffset="21.466115282336823" xlink:href="#id40">April</textPath></text><line stroke="#e1ed5e" stroke-width="0.3" x1="174.80103733775053" x2="179.2010983576182" y1="140.37084112569926" y2="142.7455964860345" /><path d="M 175.68104954172406 140.8457921977663 a86.0,86.0 0 0,1 -30.038265399797805,32.042727171017184" fill="none" id="id41" stroke="none" /><text fill="#e1ed5e" style="font-size:6.75px; font-family:Arial;" text-anchor="middle"><textPath startOffset="22.206326154141568" xlink:href="#id41">May</textPath></text><line stroke="#e1ed5e" stroke-width="0.3" x1="143.8653032363475" x2="146.44561519142675" y1="172.8068346515853" y2="177.08958963109032" /><path d="M 144.38136562736335 173.6633856474863 a86.0,86.0 0 0,1 -40.68145358897372,12.25698825130547" fill="none" id="id42" stroke="none" /><text fill="#e1ed5e" style="font-size:6.75px; font-family:Arial;" text-anchor="middle"><textPath startOffset="21.466115282336833" xlink:href="#id42">June</textPath></text><line stroke="#e1ed5e" stroke-width="0.3" x1="102.19456741930631" x2="102.32365962044197" y1="184.97166512339345" y2="189.96999836594603" /><path d="M 102.22038585953345 185.97133177190398 a86.0,86.0 0 0,1 -42.740103519485714,-10.115201625700543" fill="none" id="id43" stroke="none" /><text fill="#e1ed5e" style="font-size:6.75px; font-family:Arial;" text-anchor="middle"><textPath startOffset="22.20632615414155" xlink:href="#id43">July</textPath></text><line stroke="#e1ed5e" stroke-width="0.3" x1="58.666819895761336" x2="56.23545636021788" y1="174.27360380694188" y2="178.64263932499728" /><path d="M 58.180547188652646 175.14741091055294 a86.0,86.0 0 0,1 -31.652253787137756,-30.449443065178592" fill="none" id="id44" stroke="none" /><text fill="#e1ed5e" style="font-size:6.75px; font-family:Arial;" text-anchor="middle"><textPath startOffset="22.20632615414155" xlink:href="#id44">August</textPath></text><path d="M 84.19399662182784 113.82643327865904 l -3.7088432675354506 3.2443415803896136 a25.92760293381965,25.92760293381965 0 0,0 -0.29095399239186914,-0.33844522514317427 l 3.7641397694980987 -3.180019256084909" fill="#ff3104" stroke="none" /><path d="M 83.72743513129214 113.27417163493432 l -3.42777063050531 2.796167416853419 a25.423591721489167,25.423591721489167 0 0,0 -0.27370565235519156,-0.34148988548106063 l 3.4753941949153626 -2.736749697794099" fill="#ff2a04" stroke="none" /><path d="M 82.05923443525364 110.91462005526583 l -5.081703323440327 3.091554861957583 a26.9482283187482,26.9482283187482 0 0,0 -0.23768225003250718,-0.39836912251196166 l 5.134166449171066 -3.0036236455595104" fill="#ff3f05" stroke="none" /><line stroke="#e1ed5e" stroke-width="0.3" x1="26.63291911575756" x2="22.317208475507996" y1="142.92168965132927" y2="145.44649492493687" /><path d="M 25.769776987707644 143.4266507060508 a86.0,86.0 0 0,1 -11.730757126820373,-40.83630448921669" fill="none" id="id45" stroke="none" /><text fill="#e1ed5e" style="font-size:6.75px; font-family:Arial;" text-anchor="middle"><textPath startOffset="21.46611528233685" xlink:href="#id45">September</textPath></text><path d="M 81.02952815118164 109.00673069616217 l -4.627414163184 2.1969866390013344 a26.122471291240807,26.122471291240807 0 0,0 -0.18935729530475043,-0.4078587680706098 l 4.664546075328577 -2.117007803651897" fill="#ff3404" stroke="none" /><line stroke="#e1ed5e" stroke-width="0.3" x1="15.007084014347285" x2="10.007500721073583" y1="101.09737516637583" y2="101.16192664675087" /><path d="M 14.007167355692545 101.11028546245083 a86.0,86.0 0 0,1 10.666146001902534,-42.60595125391555" fill="none" id="id46" stroke="none" /><text fill="#e1ed5e" style="font-size:6.75px; font-family:Arial;" text-anchor="middle"><textPath startOffset="22.20632615414155" xlink:href="#id46">October</textPath></text><line stroke="#e1ed5e" stroke-width="0.3" x1="26.266209847984243" x2="21.928928074336255" y1="57.711370442889674" y2="55.22380399835377" /><path d="M 25.398753493254645 57.213857153982495 a86.0,86.0 0 0,1 29.58750427330803,-30.492523968695096" fill="none" id="id47" stroke="none" /><text fill="#e1ed5e" style="font-size:6.75px; font-family:Arial;" text-anchor="middle"><textPath startOffset="21.46611528233685" xlink:href="#id47">November</textPath></text><line stroke="#e1ed5e" stroke-width="0.3" x1="56.762969772571076" x2="54.21961505331055" y1="26.818313649435495" y2="22.513508569990535" /><path d="M 56.25429882871897 25.957352633546506 a86.0,86.0 0 0,1 42.265352541879196,-11.944610805530505" fill="none" id="id48" stroke="none" /><text fill="#e1ed5e" style="font-size:6.75px; font-family:Arial;" text-anchor="middle"><textPath startOffset="22.20632615414155" xlink:href="#id48">December</textPath></text></svg>