<?xml version="1.0" encoding="utf-8" ?>
<svg baseProfile="full" height="200mm" version="1.1" viewBox="0,0,200,200" width="200mm" xmlns="http://www.w3.org/2000/svg" xmlns:ev="http://www.w3.org/2001/xml-events" xmlns:xlink="http://www.w3.org/1999/xlink"><defs /><rect fill="#1a1a1a" height="200" width="200" x="0" y="0" /><text alignment-baseline="middle" fill="#e1ed5e" style="dominant-baseline: central; font-size:9.0px; font-family:Arial;" text-anchor="middle" x="100.0" y="100.0">2024</text><line stroke="#e1ed5e" stroke-width="0.3" x1="100.0" x2="100.0" y1="15.0" y2="10.0" /><path d="M 100.0 14.0 a86.0,86.0 0 0,1 42.35913384403234,11.155469271406648" fill="none" id="id49" stroke="none" /><text fill="#e1ed5e" style="font-size:6.75px; font-family:Arial;" text-anchor="middle"><textPath startOffset="22.145653131862478" xlink:href="#id49">January</textPath></text><line stroke="#e1ed5e" stroke-width="0.3" x1="143.13028292997686" x2="145.6673583964461" y1="26.7553504044142" y2="22.446841604673864" /><path d="M 143.63769802327073 25.89364864446614 a86.0,86.0 0 0,1 29.32050498858742,28.57503671076993" fill="none" id="id50" stroke="none" /><text fill="#e1ed5e" style="font-size:6.75px; font-family:Arial;" text-anchor="middle"><textPath startOffset="20.669276256404974" xlink:href="#id50">February</textPath></text><line stroke="#e1ed5e" stroke-width="0.3" x1="172.87174338648825" x2="177.1583165268699" y1="56.24261187166439" y2="53.66864786411523" /><path d="M 173.72905801456457 55.72781907015455 a86.0,86.0 0 0,1 12.242430191666344,42.057860355516425" fill="none" id="id51" stroke="none" /><text fill="#e1ed5e" style="font-size:6.75px; font-family:Arial;" text-anchor="middle"><textPath startOffset="22.145653131862474" xlink:href="#id51">March</textPath></text><path d="M 120.16314734710363 94.1308016681162 l 4.983420775989538 -1.4506011587379652 a26.19025301428515,26.19025301428515 0 0,0 0.12194868727071548,0.432752869853913 l -5.007587955334835 1.364840364981039" fill="#ff3c05" stroke="none" /><path d="M 120.26092885502905 94.47779374421319 l 9.27296306175513 -2.5273873175164843 a30.611218996434232,30.611218996434232 0 0,0 0.13383009091727288,0.5081746536700338 l -9.314982633477133 2.3678321594736516" fill="#ff790b" stroke="none" /><path d="M 120.35273937422433 94.82641323984039 l 6.596932989666175 -1.6769145688673577 a27.80672956282424,27.80672956282424 0 0,0 0.11362686872754842,0.4636363996724192 l -6.624747384910014 1.5634223445868436" fill="#ff5207" stroke="none" /><path d="M 120.43855184770803 95.1765574152323 l 1.033043583626883 -0.2437954729041 a22.061421348137113,22.061421348137113 0 0,0 0.08382199058005553,0.36933515669093375 l -1.037076435764605 0.22602598227413995" fill="#ff0000" stroke="none" /><path d="M 120.51834098615036 95.52812308129327 l 5.623047463641119 -1.2255170231561174 a26.755046025220498,26.755046025220498 0 0,0 0.09395134956662787,0.44959121844772115 l -5.643256524032114 1.128809353422992" fill="#ff4406" stroke="none" /><path d="M 120.77682067341334 96.94652285012252 l 1.773389438741291 -0.2606271774757047 a22.792438737329146,22.792438737329146 0 0,0 0.05356818251269434,0.38759268370159594 l -1.7776021378091977 0.23014618557402308" fill="#ff0b01" stroke="none" /><path d="M 120.82617615685814 97.30363454192243 l 2.3572471361104297 -0.30519283550126836 a23.376921691503977,23.376921691503977 0 0,0 0.04810960881800078,0.39841657559311894 l -2.362138831188094 0.2646825829847364" fill="#ff1402" stroke="none" /><path d="M 120.86939407059847 97.66154086499901 l 3.5085830845940866 -0.3931440528327561 a24.530540682073713,24.530540682073713 0 0,0 0.04329945020074438,0.41888290259743854 l -3.5148149272764972 0.3328566279523862" fill="#ff2403" stroke="none" /><path d="M 120.9064616781168 98.02013634271609 l 1.2564764601120104 -0.1189896271262576 a22.26209810481565,22.26209810481565 0 0,0 0.032763847788921045,0.3807655752622831 l -1.2583339305986723 0.09740300448831252" fill="#ff0300" stroke="none" /><path d="M 120.93736805541906 98.37931529534042 l 5.0116270503957825 -0.3879316294452975 a26.026618808044113,26.026618808044113 0 0,0 0.030656926360847648,0.4457449810162643 l -5.017547937921696 0.30184322427469906" fill="#ff3905" stroke="none" /><path d="M 120.96210409425399 98.7389718711861 l 11.949438728001011 -0.7188485608025439 a32.97104127332365,32.97104127332365 0 0,0 0.029137624761648915,0.5652621361969766 l -11.960017942219233 0.5136146312288367" fill="#ff980e" stroke="none" /><path d="M 120.98066250479742 99.09900007780936 l 10.275477811351593 -0.4412732298792985 a31.2849485324423,31.2849485324423 0 0,0 0.018436239541736673,0.5367509985558518 l -10.281538737890177 0.26481596675932667" fill="#ff820b" stroke="none" /><path d="M 120.99303781780057 99.45929381324524 l 2.6261956153288346 -0.06764148329368855 a23.627066573239926,23.627066573239926 0 0,0 0.00696274845768413,0.405545191091834 l -2.6269697953851847 0.02254937623278817" fill="#ff1702" stroke="none" /><line stroke="#e1ed5e" stroke-width="0.3" x1="184.99686870605535" x2="189.99668451229388" y1="99.2704041080226" y2="99.22748670261217" /><path d="M 185.99683186730306 99.26182062694052 a86.0,86.0 0 0,1 -10.086455211305974,41.156179273409016" fill="none" id="id52" stroke="none" /><text fill="#e1ed5e" style="font-size:6.75px; font-family:Arial;" text-anchor="middle"><textPath startOffset="21.40746469413373" xlink:href="#id52">April</textPath></text><path d="M 120.99922638620191 99.81974689727618 l 1.2444365936640247 -0.01068199147080977 a22.24448243884432,22.24448243884432 0 0,0 0.0,0.3818701883892731 l -1.2444365936640247 -0.010681991470809619" fill="#ff0300" stroke="none" /><path d="M 120.99922638620191 100.18025310272382 l 3.1140175931819516 0.02673009580374117 a24.114132313930863,24.114132313930863 0 0,0 -0.007106283679215369,0.41390539815648864 l -3.113099877904068 -0.08018240992930083" fill="#ff1e03" stroke="none" /><path d="M 120.99303781780057 100.54070618675476 l 9.478640456621271 0.24413615511011316 a30.48178397603159,30.48178397603159 0 0,0 -0.017962934171329572,0.5229712291178217 l -9.473052835453094 -0.40681364879204557" fill="#ff770a" stroke="none" /><path d="M 120.98066250479742 100.90099992219065 l 2.4398868618839487 0.10477924003633068 a23.442135661247445,23.442135661247445 0 0,0 -0.020716608457911827,0.4018966695970622 l -2.437728663969464 -0.14664770301012353" fill="#ff1402" stroke="none" /><path d="M 120.96210409425399 101.26102812881392 l 13.643559099090036 0.8207626354552668 a34.66822432483905,34.66822432483905 0 0,0 -0.040835930630353304,0.5937454691105101 l -13.627459207294615 -1.0548515287201203" fill="#ffae10" stroke="none" /><path d="M 120.93736805541906 101.62068470465957 l 2.9420965362980738 0.2277368790284062 a23.95089751007498,23.95089751007498 0 0,0 -0.03524930834162466,0.40965039438484324 l -2.9377536052587083 -0.2782083207889068" fill="#ff1c02" stroke="none" /><path d="M 120.9064616781168 101.97986365728391 l 5.869447951136114 0.555842823414616 a26.895708650827096,26.895708650827096 0 0,0 -0.04747426534268179,0.4592704520086875 l -5.859041293311766 -0.6565177977062349" fill="#ff4606" stroke="none" /><path d="M 120.86939407059847 102.33845913500097 l 12.228209163489415 1.370196342372508 a33.304736379244275,33.304736379244275 0 0,0 -0.06854101066584861,0.5676178923109766 l -12.202886066563904 -1.5799079116068933" fill="#ff9d0e" stroke="none" /><path d="M 120.82617615685814 102.69636545807757 l 12.44623802898558 1.6114146952183974 a33.55011945736504,33.55011945736504 0 0,0 -0.07885154121184287,0.5705304723575655 l -12.416741971218526 -1.824833475776048" fill="#ffa00e" stroke="none" /><path d="M 120.77682067341334 103.0534771498775 l 9.517967390125564 1.398813437140421 a30.620206976537368,30.620206976537368 0 0,0 -0.08089349492741447,0.5193942665117932 l -9.492552403059882 -1.5619958855836649" fill="#ff790b" stroke="none" /><path d="M 120.7213421655516 103.40968896794604 l 13.173922235972482 2.167763890663913 a34.35108337795538,34.35108337795538 0 0,0 -0.10073893996051705,0.5810354353607398 l -13.13476847851973 -2.393592358945241" fill="#ffaa0f" stroke="none" /><path d="M 120.65975698304385 103.76489593502545 l 11.666398202725931 2.126006380708154 a32.85853069125255,32.85853069125255 0 0,0 -0.10588850485892976,0.554053401645078 l -11.628183405584842 -2.3259623473865467" fill="#ff970d" stroke="none" /><path d="M 120.592083275326 104.11899336999214 l 3.977273639945026 0.7955661180337127 a25.056061027051342,25.056061027051342 0 0,0 -0.08798529989805673,0.4210415110492969 l -3.963030629222605 -0.8637240803684186" fill="#ff2c04" stroke="none" /><path d="M 120.51834098615036 104.47187691870673 l 13.286937887846925 2.895826270801264 a34.59884290026783,34.59884290026783 0 0,0 -0.13145770791019531,0.5792269166272369 l -13.235269318379064 -3.123487521367518" fill="#ffae10" stroke="none" /><path d="M 120.43855184770803 104.8234425847677 l 5.648322278073503 1.3329886780411526 a26.803482004173645,26.803482004173645 0 0,0 -0.10952728994067104,0.4469087192372868 l -5.624607461616536 -1.4297532218865392" fill="#ff4406" stroke="none" /><path d="M 120.35273937422433 105.17358676015961 l 4.788146512996078 1.217128119702314 a25.940419809053335,25.940419809053335 0 0,0 -0.1134096862291641,0.4306350509614246 l -4.766547345962183 -1.299143675036542" fill="#ff3805" stroke="none" /><path d="M 120.26092885502905 105.52220625578681 l 11.168330542923215 3.043978152833654 a32.575725036079604,32.575725036079604 0 0,0 -0.1516811197996062,0.5382627838397145 l -11.114430931049029 -3.2352488605763767" fill="#ff930d" stroke="none" /><path d="M 120.16314734710363 105.8691983318838 l 4.950631112335228 1.4410565655298733 a26.156102446177567,26.156102446177567 0 0,0 -0.12919081905140958,0.4300342195854194 l -4.925163973280188 -1.525828388706016" fill="#ff3b05" stroke="none" /><path d="M 120.05942366710727 106.21446072829308 l 6.474644021940225 2.005861268586859 a27.778236838563785,27.778236838563785 0 0,0 -0.14502261385727003,0.4542812723722652 l -6.4392566923057 -2.1167115746505076" fill="#ff5207" stroke="none" /><path d="M 119.94978838288452 106.5578916946017 l 17.415254880078237 5.724740189997117 a39.33204169701392,39.33204169701392 0 0,0 -0.21635353406327262,0.6396107799544168 l -17.3144159244426 -6.0228526444256945" fill="#ffea15" stroke="none" /><path d="M 119.83427380445688 106.89939002012753 l 0.9850170356723443 0.3426400569324735 a22.0429097608036,22.0429097608036 0 0,0 -0.1273868466813252,0.3563236820686955 l -0.9789900189470759 -0.3594986953820905" fill="#ff0000" stroke="none" /><path d="M 119.71291397450082 107.23885506374661 l 2.3456308726398793 0.861348146806364 a23.498780666782917,23.498780666782917 0 0,0 -0.14230113659948698,0.3774706712221967 l -2.3304990522259517 -0.9014870982227196" fill="#ff1502" stroke="none" /><path d="M 119.58574465831526 107.57618678355244 l 8.236568285634009 3.1860815545225902 a29.831317727042837,29.831317727042837 0 0,0 -0.18884832886379124,0.47602115359576314 l -8.180661281804094 -3.3270037253319176" fill="#ff6e0a" stroke="none" /><path d="M 119.4528033332814 107.91128576633889 l 1.2329759692713682 0.5014405928448279 a22.331041850939798,22.331041850939798 0 0,0 -0.1474637318714035,0.35385927420471613 l -1.2241863928634793 -0.5225323764908218" fill="#ff0400" stroke="none" /><path d="M 119.31412917781788 108.2440532568976 l 5.428037026503828 2.316906235581337 a26.901833652821146,26.901833652821146 0 0,0 -0.18493872814681625,0.4231760022908317 l -5.387464416340046 -2.409744307648013" fill="#ff4606" stroke="none" /><path d="M 119.16976305983485 108.57439118712176 l 2.413138269150799 1.0793660539115257 a23.643533125265627,23.643533125265627 0 0,0 -0.16889987021447292,0.3690766979920973 l -2.39425393408127 -1.1206317341183119" fill="#ff1702" stroke="none" /><path d="M 119.0197475246899 108.90220220490707 l 13.125722986786872 6.143501114422845 a35.49231554544615,35.49231554544615 0 0,0 -0.26301621342396575,0.5496027280066411 l -13.018327515402996 -6.367916344494589" fill="#ffb911" stroke="none" /><path d="M 118.8641267826498 109.22738970284198 l 4.761793040480205 2.3292315925910865 a26.3009426305413,26.3009426305413 0 0,0 -0.20186610551447123,0.40386743577211726 l -4.721107021754001 -2.4106308845269497" fill="#ff3d05" stroke="none" /><path d="M 118.70294669586154 109.54985784667822 l 0.9206370342463376 0.47008382948476113 a22.03370757739747,22.03370757739747 0 0,0 -0.1748972030341751,0.3353884478786612 l -0.9124317622372131 -0.4858185204679252" fill="#ff0000" stroke="none" /><path d="M 118.5362547648365 109.86951160357373 l 7.686812466536126 4.092794676996479 a29.708504703090302,29.708504703090302 0 0,0 -0.2435455828862652,0.44809644140004135 l -7.615421534034522 -4.224145951871124" fill="#ff6c0a" stroke="none" /><line stroke="#e1ed5e" stroke-width="0.3" x1="174.33088141563837" x2="178.70328620479359" y1="141.23008692659167" y2="143.65538615756765" /><path d="M 175.20536237346943 141.71514677278685 a86.0,86.0 0 0,1 -30.301960400862466,31.631185727798858" fill="none" id="id53" stroke="none" /><text fill="#e1ed5e" style="font-size:6.75px; font-family:Arial;" text-anchor="middle"><textPath startOffset="22.145653131862474" xlink:href="#id53">May</textPath></text><path d="M 118.36410011445183 110.18625677009912 l 11.199148397556597 6.211978832231539 a33.80662351451729,33.80662351451729 0 0,0 -0.2858537322600943,0.5050761549279811 l -11.090861300275124 -6.403311757258643" fill="#ffa30f" stroke="none" /><path d="M 118.18653347947321 110.5 l 6.602185286872431 3.811773452615583 a28.62354690523117,28.62354690523117 0 0,0 -0.2493332970619321,0.4234224478764214 l -6.535778279680734 -3.9245470687855537" fill="#ff5e08" stroke="none" /><path d="M 118.00360718960297 110.81064883170644 l 2.224998486346653 1.3360476616521033 a23.595311468485228,23.595311468485228 0 0,0 -0.2114949289057957,0.34546107190665626 l -2.201735592985453 -1.3740458496833168" fill="#ff1702" stroke="none" /><path d="M 117.81537515405839 111.11811171558189 l 9.42189742775554 5.879960835440314 a32.106128513818774,32.106128513818774 0 0,0 -0.29580799322902346,0.4650592977577545 l -9.319571742900626 -6.04083380787674" fill="#ff8d0d" stroke="none" /><path d="M 117.62189284568427 111.42229804090321 l 0.9513429285242844 0.6166489924702584 a22.133714844027256,22.133714844027256 0 0,0 -0.20940134359075027,0.3170603234375624 l -0.9406171460128074 -0.6328891942468818" fill="#ff0100" stroke="none" /><path d="M 117.423217284605 111.72311816256416 l 2.0086034919131355 1.3514780704848735 a23.420946294887013,23.420946294887013 0 0,0 -0.22730615373310334,0.3316464714233022 l -1.9851076013647118 -1.3857592769782199" fill="#ff1402" stroke="none" /><path d="M 117.21940702142032 112.02048342749411 l 5.094081888846745 3.556064784751772 a27.2125089169858,27.2125089169858 0 0,0 -0.2706801068512927,0.3807454684848152 l -5.032286683465491 -3.642987479946091" fill="#ff4a06" stroke="none" /><path d="M 117.01052211995028 112.31430620078461 l 2.0158315864118426 1.459306612063086 a23.488604583453693,23.488604583453693 0 0,0 -0.23924595634260876,0.32458308829506627 l -1.990483610485406 -1.4936960096270295" fill="#ff1502" stroke="none" /><path d="M 116.79662413953412 112.60449989151573 l 2.3070701864796126 1.7312684783341252 a23.884417339674762,23.884417339674762 0 0,0 -0.24890750032535175,0.3258279079639896 l -2.2770107087999563 -1.7706172995389922" fill="#ff1b02" stroke="none" /><path d="M 116.57777611688842 112.89097897827486 l 1.9057804078235985 1.4819463721333745 a23.414159069473996,23.414159069473996 0 0,0 -0.24945397057807947,0.31517694280711644 l -1.8800600066039572 -1.5144432588551737" fill="#ff1402" stroke="none" /><path d="M 116.1254893667686 113.45245675266167 l 13.012779795217842 10.855723720721839 a37.946361718654316,37.946361718654316 0 0,0 -0.4215758325755984,0.4966152707367017 l -12.82450939913513 -11.077505773908097" fill="#ffd814" stroke="none" /><path d="M 115.89218393027572 113.72728997021213 l 9.95280772197054 8.596998261326164 a34.151682806993236,34.151682806993236 0 0,0 -0.38703441215524703,0.4403741141055676 l -9.803762245856706 -8.766584653243024" fill="#ffa80f" stroke="none" /><path d="M 115.6541949942343 113.99807769240083 l 1.8055796502520667 1.6145604570120284 a23.4221732685238,23.4221732685238 0 0,0 -0.27058443267732074,0.29741969092823084 l -1.7775975167328661 -1.645317723497931" fill="#ff1402" stroke="none" /><path d="M 115.41159269507618 114.26474011684316 l 5.7080305483129745 5.283267859570424 a28.77782308981401,28.77782308981401 0 0,0 -0.33867957592464243,0.3596659730537202 l -5.616495138652072 -5.380475292568641" fill="#ff6008" stroke="none" /><path d="M 115.16444852881244 114.52719865689866 l 6.590165258357456 6.313229241937225 a30.126178915280637,30.126178915280637 0 0,0 -0.3609592498084223,0.37037598907775465 l -6.480819207398227 -6.425427923082717" fill="#ff720a" stroke="none" /><path d="M 114.91283532996324 114.78537596483092 l 1.8416247589913888 1.825884471018022 a23.593344530608082,23.593344530608082 0 0,0 -0.28762318242824625,0.28516487940145724 l -1.8100096564331778 -1.8572293606481411" fill="#ff1702" stroke="none" /><path d="M 114.65682725009322 115.03919595460226 l 4.729770412431153 4.853161113185643 a27.776717564193337,27.776717564193337 0 0,0 -0.3443354206813226,0.3298655438303691 l -4.645762505884519 -4.933638787321593" fill="#ff5207" stroke="none" /><path d="M 114.39649973595853 115.28858382429668 l 4.10735814408107 4.361872012913291 a26.99135363509661,26.99135363509661 0 0,0 -0.34005279065633764,0.3147477863381165 l -4.031875582110765 -4.431737545383787" fill="#ff4706" stroke="none" /><path d="M 114.13192950727249 115.5334660781643 l 1.6217160724690922 1.7825500464850819 a23.40986466174525,23.40986466174525 0 0,0 -0.2995737786639268,0.26788072014487224 l -1.5908772669817874 -1.810126296513341" fill="#ff1402" stroke="none" /><path d="M 113.86319453409587 115.77377054828091 l 4.349454322805672 4.948880601035267 a27.5885637364661,27.5885637364661 0 0,0 -0.358415538627538,0.30959080577949283 l -4.263859304415278 -5.0228155392794775" fill="#ff4f07" stroke="none" /><path d="M 113.59037401385872 116.0094264158162 l 3.1118163311799125 3.6657118135790694 a25.80841387353576,25.80841387353576 0 0,0 -0.34021101689366295,0.2838161303168066 l -3.0484309801243548 -3.718590127807746" fill="#ff3605" stroke="none" /><path d="M 113.31354834802062 116.24036423190432 l 8.385450995249982 10.228886758945158 a34.22671209035195,34.22671209035195 0 0,0 -0.4575772882208988,0.36859187319404935 l -8.20862293667383 -10.371326925932612" fill="#ffa90f" stroke="none" /><path d="M 113.03279911837588 116.46651593811092 l 1.621045435939666 2.048137952933392 a23.612021703513776,23.612021703513776 0 0,0 -0.3199879316131962,0.24882455105212412 l -1.585647559691239 -2.075663555606309" fill="#ff1702" stroke="none" /><path d="M 112.7482090630111 116.68781488649013 l 2.4509953835901483 3.20843163512831 a25.037500703117257,25.037500703117257 0 0,0 -0.3437851663280213,0.25798279795325824 l -2.395557228351361 -3.250033460345583" fill="#ff2b04" stroke="none" /><path d="M 112.45986205192187 116.90419585922612 l 5.22632583544353 7.09051474071849 a29.80851185085033,29.80851185085033 0 0,0 -0.4145072149019485,0.3000712577041072 l -5.103837610167613 -7.179186769795675" fill="#ff6e0a" stroke="none" /><path d="M 112.16784306229584 117.11559508785304 l 5.715219577615785 8.039172072472933 a30.863671853381554,30.863671853381554 0 0,0 -0.43445013829818535,0.3032799376302296 l -5.576374348143841 -8.136096825908284" fill="#ff7c0b" stroke="none" /><path d="M 111.8722381534696 117.32195027204791 l 5.466952603539187 7.976447230421638 a30.670123121710752,30.670123121710752 0 0,0 -0.4368356033440767,0.29392248928345305 l -5.329220712098107 -8.069119393762211" fill="#ff790b" stroke="none" /><path d="M 111.5731344415666 117.5232005979908 l 3.603158821924199 5.455641696879062 a27.538102157410485,27.538102157410485 0 0,0 -0.39669864585671005,0.25713526946725296 l -3.5089745438104796 -5.5166908080502095" fill="#ff4f07" stroke="none" /><path d="M 111.27062007382361 117.71928675628689 l 2.4012091189732936 3.775099565259705 a25.474056544196163,25.474056544196163 0 0,0 -0.3709942988787761,0.23152788112006467 l -2.3360506913048025 -3.815763243221317" fill="#ff3204" stroke="none" /><path d="M 110.96478420261333 117.91015095944535 l 1.3673654654075802 2.233488726239152 a23.61880892892679,23.61880892892679 0 0,0 -0.3476095318600003,0.20872953624885404 l -1.3288231769901433 -2.256632263023929" fill="#ff1702" stroke="none" /><line stroke="#e1ed5e" stroke-width="0.3" x1="143.1302829299769" x2="145.66735839644613" y1="173.24464959558577" y2="177.55315839532614" /><path d="M 143.63769802327073 174.10635135553383 a86.0,86.0 0 0,1 -40.68552437913181,11.842963189579606" fill="none" id="id54" stroke="none" /><text fill="#e1ed5e" style="font-size:6.75px; font-family:Arial;" text-anchor="middle"><textPath startOffset="21.407464694133747" xlink:href="#id54">June</textPath></text><path d="M 110.65571695917076 118.09573695890943 l 4.734682307288858 8.040525658197387 a30.330984375245983,30.330984375245983 0 0,0 -0.45093151329335046,0.2603454305860022 l -4.595958326135109 -8.12061798605956" fill="#ff750a" stroke="none" /><path d="M 110.34350942703117 118.27599006163325 l 14.399039146472509 25.441722482533873 a50.233774494921406,50.233774494921406 0 0,0 -0.7541185409704821,0.41829684251027666 l -13.96017641734593 -25.685152240477294" fill="#95ff23" stroke="none" /><path d="M 110.02825361518725 118.45085714620011 l 2.7281523626327915 5.019493069039822 a26.71297873126425,26.71297873126425 0 0,0 -0.4047794569497239,0.21552226153214657 l -2.6415840898965137 -5.065585798294537" fill="#ff4306" stroke="none" /><path d="M 109.71004243097381 118.62028667847754 l 5.036677938125343 9.658494057234675 a31.892870700877527,31.892870700877527 0 0,0 -0.48761583826001126,0.2489801214159642 l -4.870134878151749 -9.743532130323475" fill="#ff8a0c" stroke="none" /><path d="M 109.3889696526874 118.78422872680471 l 1.1748934770843544 2.350573984107669 a23.627845645630497,23.627845645630497 0 0,0 -0.3643636021121561,0.1782284962859988 l -1.134369625710129 -2.370396230490891" fill="#ff1702" stroke="none" /><path d="M 109.06512990194946 118.94263497670748 l 1.084742508081763 2.2666946416170135 a23.512880997416072,23.512880997416072 0 0,0 -0.36558195309774016,0.17111081336470074 l -1.0456718411125165 -2.2849816865522476" fill="#ff1502" stroke="none" /><path d="M 108.73861861582097 119.09545874513695 l 3.2320787987304858 7.062675472580006 a28.767092003587077,28.767092003587077 0 0,0 -0.4508030674856941,0.2016384781028218 l -3.110362328389165 -7.1171177015926785" fill="#ff6008" stroke="none" /><path d="M 108.4095320186766 119.2426549942271 l 4.866385611612288 11.135242625292072 a33.15217417769465,33.15217417769465 0 0,0 -0.5234332447221,0.22342252690717612 l -4.674517291719757 -11.217139801858652" fill="#ff9b0e" stroke="none" /><path d="M 108.07796709384702 119.3841803445677 l 6.483118855140391 15.557125155787176 a37.85393049714823,37.85393049714823 0 0,0 -0.6019595817109413,0.2448117214321206 l -6.215104812239009 -15.666124133798588" fill="#ffd714" stroke="none" /><path d="M 107.407793817531 119.65005319985036 l 2.061273979525491 5.467774124772162 a26.8434069084907,26.8434069084907 0 0,0 -0.4325761954474193,0.1588479707729309 l -1.9671086324239446 -5.502352944553814" fill="#ff4506" stroke="none" /><path d="M 107.06938296918513 119.77432235084164 l 1.3173642429179824 3.684902247690138 a24.91330462953636,24.91330462953636 0 0,0 -0.40394459169719843,0.14051289762945135 l -1.2539138791757622 -3.70697357788818" fill="#ff2a04" stroke="none" /><path d="M 106.72888874123015 119.89276391827305 l 1.9393203838740825 5.733256120274186 a27.05237055144271,27.05237055144271 0 0,0 -0.44118199079034065,0.14502528336059853 l -1.8406156554360076 -5.765702325036804" fill="#ff4806" stroke="none" /><path d="M 106.38641147887787 120.00534299687104 l 2.6978379655627105 8.450939002218151 a29.871116035068162,29.871116035068162 0 0,0 -0.4898285053930641,0.1517501230783206 l -2.552368827298022 -8.496005713103116" fill="#ff6f0a" stroke="none" /><path d="M 106.0420521117495 120.11202640906438 l 2.588850126276414 8.617440092502724 a29.997911909115068,29.997911909115068 0 0,0 -0.4944512788951781,0.14392756107623456 l -2.440538834999629 -8.660611347881478" fill="#ff700a" stroke="none" /><path d="M 105.3480935250658 120.30758222061773 l 4.031359210364664 15.307727555927071 a36.82966771633192,36.82966771633192 0 0,0 -0.6127662358263734,0.1557627809433362 l -3.767987681312893 -15.374675568705678" fill="#ffca12" stroke="none" /><path d="M 104.9986988182912 120.39639698878246 l 1.661906730103734 6.781146585885467 a27.981825191082216,27.981825191082216 0 0,0 -0.4675201304391529,0.1103334777923243 l -1.545254445924702 -6.808676207324017" fill="#ff5507" stroke="none" /><path d="M 104.64783097203109 120.47920084513623 l 0.5513062187662277 2.429156922708051 a23.490931934435537,23.490931934435537 0 0,0 -0.39401852837856866,0.08587450436603225 l -0.5095252737685232 -2.438262885207802" fill="#ff1502" stroke="none" /><path d="M 104.29559338865022 120.5559693870025 l 0.5221319487021203 2.498590388432763 a23.552562575339547,23.552562575339547 0 0,0 -0.39647207833974024,0.07930551951609373 l -0.47916338483142146 -2.507185304611718" fill="#ff1602" stroke="none" /><path d="M 103.94208987418118 120.62667999033965 l 1.4880864830303633 7.7862972847093985 a28.927220621810058,28.927220621810058 0 0,0 -0.48854668616483893,0.08902948056561424 l -1.3542050633144673 -7.8106949392063765" fill="#ff6209" stroke="none" /><path d="M 103.58742460773223 120.69131181640829 l 0.8322446037500729 4.8001657140333815 a25.871778110982962,25.871778110982962 0 0,0 -0.43824635762360614,0.07211327137466432 l -0.7497207430733945 -4.8137449839037165" fill="#ff3705" stroke="none" /><path d="M 102.875027216393 120.80226474461374 l 0.3329620090465723 2.40914723262171 a23.432047303799244,23.432047303799244 0 0,0 -0.3989274566482233,0.05164914606903391 l -0.29155673050757364 -2.4145079748911384" fill="#ff1402" stroke="none" /><path d="M 102.51750503828377 120.84855314841334 l 0.6574978046269858 5.44502502131068 a26.48457845652596,26.48457845652596 0 0,0 -0.4518320772481032,0.05062872668717611 l -0.5639298257780834 -5.455509508504827" fill="#ff4006" stroke="none" /><path d="M 102.15924093988457 120.88869738790638 l 0.6526456733202669 6.313754856946293 a27.34739684977366,27.34739684977366 0 0,0 -0.46738060331747733,0.04426142906794649 l -0.5441655066177742 -6.324028041519424" fill="#ff4c07" stroke="none" /><path d="M 101.80034050326958 120.92268563240118 l 0.4655514989776141 5.410414108393373 a26.430406892904283,26.430406892904283 0 0,0 -0.45237655800076776,0.035016806618567764 l -0.3726059462016105 -5.4176086820069935" fill="#ff3f05" stroke="none" /><path d="M 101.44090949804482 120.95050786540614 l 0.6794578472024211 9.879167977823611 a30.902505889934144,30.902505889934144 0 0,0 -0.529544822750122,0.03185610156085183 l -0.5097686723198339 -9.889376057209155" fill="#ff7d0b" stroke="none" /><path d="M 101.08105385017728 120.97215588758144 l 0.19332162394671742 3.7503878582792907 a24.755367137553147,24.755367137553147 0 0,0 -0.42458312046740115,0.018233426061597006 l -0.12891274287848672 -3.7531538527667183" fill="#ff2703" stroke="none" /><path d="M 100.72087961077811 120.9876233191556 l 0.12987512383778693 3.7811725243470096 a24.783402332117035,24.783402332117035 0 0,0 -0.4253146777391932,0.010954597403536272 l -0.06494713202784991 -3.782844839100591" fill="#ff2803" stroke="none" /><line stroke="#e1ed5e" stroke-width="0.3" x1="101.45913802915013" x2="101.54496967792366" y1="184.9874750549273" y2="189.98673829345242" /><path d="M 101.47630435890484 185.9873277026323 a86.0,86.0 0 0,1 -42.54439059252881,-10.42667462771756" fill="none" id="id55" stroke="none" /><text fill="#e1ed5e" style="font-size:6.75px; font-family:Arial;" text-anchor="middle"><textPath startOffset="22.145653131862474" xlink:href="#id55">July</textPath></text><path d="M 100.36049292484886 120.99690560180557 l 0.042699813577438114 2.487050072552934 a23.487416599097365,23.487416599097365 0 0,0 -0.40319273842629005,0.003460924738866069 l -3.0462067762305834e-16 -2.487416599097365" fill="#ff1502" stroke="none" /><path d="M 100.0 121.0 l 4.683918918345405e-16 3.824710048322938 a24.824710048322938,24.824710048322938 0 0,0 -0.426149158754506,-0.0036579779976619376 l 0.06565623390565338 -3.8241464685197113" fill="#ff2803" stroke="none" /><path d="M 99.63950707515114 120.99690560180557 l -0.08801655434680183 5.126523034511324 a26.127278550772747,26.127278550772747 0 0,0 -0.4483773013935013,-0.011548608780110272 l 0.17600716981104703 -5.124256708381167" fill="#ff3b05" stroke="none" /><path d="M 99.27912038922189 120.98762331915562 l -0.20670002966407486 6.017845834154436 a27.02139463794834,27.02139463794834 0 0,0 -0.4634481076775056,-0.019902455838149914 l 0.3099738979424192 -6.013410809890457" fill="#ff4706" stroke="none" /><path d="M 98.91894614982273 120.97215588758144 l -0.3277631764803092 6.358518061081561 a27.366960077851665,27.366960077851665 0 0,0 -0.46895976899908515,-0.02821145517314803 l 0.43686729761184073 -6.351954628083722" fill="#ff4c07" stroke="none" /><path d="M 98.55909050195518 120.95050786540614 l -0.2566733026967895 3.7319734891646807 a24.740789663713436,24.740789663713436 0 0,0 -0.4234574713753794,-0.03277828641667636 l 0.3206997688474051 -3.7270174357529506" fill="#ff2703" stroke="none" /><path d="M 98.19965949673042 120.92268563240118 l -0.2975057535755354 3.457467820441222 a24.470243997588227,24.470243997588227 0 0,0 -0.41820863118141066,-0.03960479218275427 l 0.3568139481419613 -3.451851272753284" fill="#ff2303" stroke="none" /><path d="M 97.84075906011543 120.88869738790638 l -0.2686557678010077 2.599000848608815 a23.612849274765402,23.612849274765402 0 0,0 -0.40283981695524035,-0.04513904173328485 l 0.31323148635704734 -2.594006046368559" fill="#ff1702" stroke="none" /><path d="M 97.48249496171623 120.84855314841334 l -0.677386434360064 5.609731406296445 a26.650481292088642,26.650481292088642 0 0,0 -0.45372086281934176,-0.05874324950009352 l 0.7735851190701998 -5.5972765605959545" fill="#ff4206" stroke="none" /><path d="M 97.12497278360702 120.80226474461374 l -0.3631302107627806 2.627429311967331 a23.652404256397155,23.652404256397155 0 0,0 -0.4017247042988,-0.059039697381965905 l 0.4081800206692655 -2.6208085412864826" fill="#ff1802" stroke="none" /><path d="M 96.76829788921471 120.74984581791261 l -0.17102434946546252 1.0980990081585293 a22.111337374440737,22.111337374440737 0 0,0 -0.3745476257939132,-0.06163166929229992 l 0.18984947831243926 -1.095001340370561" fill="#ff0100" stroke="none" /><path d="M 96.41257539226777 120.69131181640829 l -0.7102429063385374 4.096492344053094 a25.157606824952286,25.157606824952286 0 0,0 -0.42488234894235455,-0.0774277175530189 l 0.780459988831949 -4.083696452568709" fill="#ff2d04" stroke="none" /><path d="M 96.05791012581884 120.62667999033965 l -0.9350366030575143 4.892506616056724 a25.98105555452016,25.98105555452016 0 0,0 -0.43735211657801426,-0.08748267207599213 l 1.0188852051664867 -4.87573454731787" fill="#ff3905" stroke="none" /><path d="M 95.70440661134978 120.55596938700252 l -1.0945849725419052 5.237985337833514 a26.3511313440686,26.3511313440686 0 0,0 -0.4419932773326882,-0.09633037761004791 l 1.1843406664937297 -5.218423502089748" fill="#ff3e05" stroke="none" /><path d="M 95.35216902796893 120.47920084513623 l -0.5861518868902686 2.582693365919833 a23.648372907441725,23.648372907441725 0 0,0 -0.3951168414090507,-0.09324649872515478 l 0.6304008820392072 -2.572250723548451" fill="#ff1702" stroke="none" /><path d="M 95.00130118170881 120.39639698878247 l -0.5987148582993509 2.4429609338077225 a23.51525696612873,23.51525696612873 0 0,0 -0.3912431577338295,-0.09945248075147332 l 0.6405633092585591 -2.432323221220986" fill="#ff1602" stroke="none" /><path d="M 94.6519064749342 120.30758222061772 l -3.980324684947407 15.113941150333414 a36.629273869676204,36.629273869676204 0 0,0 -0.6066829867681027,-0.16535414584305277 l 4.2391890726502055 -15.043386510346217" fill="#ffc812" stroke="none" /><path d="M 94.30408787586889 120.21278271476187 l -2.1310719977304764 7.562422716661996 a28.856952666587496,28.856952666587496 0 0,0 -0.47564501136748355,-0.1384533306844056 l 2.2605770214795666 -7.524725691675075" fill="#ff6108" stroke="none" /><path d="M 93.95794788825049 120.11202640906438 l -0.710930920852549 2.3664578177672806 a23.47094018088179,23.47094018088179 0 0,0 -0.3848780050760094,-0.11923618980392837 l 0.751449558800192 -2.3539050401567034" fill="#ff1502" stroke="none" /><path d="M 93.61358852112213 120.00534299687104 l -1.2045575465103109 3.773259358108613 a24.960864181767555,24.960864181767555 0 0,0 -0.4070727824246785,-0.13381290907584165 l 1.2691530665827329 -3.75202552763075" fill="#ff2a04" stroke="none" /><path d="M 92.93061703081489 119.77432235084164 l -0.8939242556740552 2.500465240882623 a23.655452314718644,23.655452314718644 0 0,0 -0.38120293742045114,-0.1399829988316574 l 0.9367163447486252 -2.4847513930422456" fill="#ff1802" stroke="none" /><path d="M 92.59220618246901 119.65005319985036 l -2.3132508408442223 6.136172686072118 a27.557724047713812,27.557724047713812 0 0,0 -0.4412224384471669,-0.17067431772888894 l 2.4182455417849176 -6.095558480205189" fill="#ff4f07" stroke="none" /><path d="M 92.25597844496254 119.51999308798841 l -3.6240915766828183 9.13507820507912 a30.82770031945902,30.82770031945902 0 0,0 -0.4902272854019695,-0.19937116922558035 l 3.780373323275229 -9.071519779274249" fill="#ff7c0b" stroke="none" /><path d="M 91.92203290615298 119.3841803445677 l -3.4844404982648967 8.36138872981168 a30.058374416912248,30.058374416912248 0 0,0 -0.4745858406686926,-0.20257247476296747 l 3.6274614141040202 -8.300341605389308" fill="#ff710a" stroke="none" /><path d="M 91.59046798132341 119.24265499422711 l -1.0142480420622102 2.3207980073836283 a23.532746035808337,23.532746035808337 0 0,0 -0.3687767292565099,-0.164949140345808 l 1.0539381741743552 -2.3030451161279655" fill="#ff1602" stroke="none" /><path d="M 90.93487009805054 118.94263497670748 l -2.3828824224459213 4.979307788087911 a26.520111836522396,26.520111836522396 0 0,0 -0.4089650669848312,-0.2000453077631338 l 2.468007738692822 -4.937668730227556" fill="#ff4006" stroke="none" /><path d="M 90.6110303473126 118.78422872680471 l -1.1803312624264517 2.3614531974198534 a23.640008161477095,23.640008161477095 0 0,0 -0.3614363380532876,-0.1845519695458773 l 1.2206948221933216 -2.3408432762011397" fill="#ff1702" stroke="none" /><path d="M 90.28995756902619 118.62028667847754 l -3.4651766646209867 6.644933155080197 a28.494170131009696,28.494170131009696 0 0,0 -0.431769696217513,-0.2298930437109714 l 3.5787351766250617 -6.584469643646652" fill="#ff5c08" stroke="none" /><path d="M 89.97174638481275 118.45085714620012 l -1.2482733830041373 2.2966824287663594 a23.613988641390918,23.613988641390918 0 0,0 -0.35449748381020313,-0.1966337785102276 l 1.287515054970443 -2.2749157348229834" fill="#ff1702" stroke="none" /><line stroke="#e1ed5e" stroke-width="0.3" x1="58.13341422392154" x2="55.67067388415222" y1="173.97424548756322" y2="178.32567169271397" /><path d="M 57.64086615596768 174.84453072859336 a86.0,86.0 0 0,1 -31.369924170532247,-30.572349798747897" fill="none" id="id56" stroke="none" /><text fill="#e1ed5e" style="font-size:6.75px; font-family:Arial;" text-anchor="middle"><textPath startOffset="22.145653131862474" xlink:href="#id56">August</textPath></text><path d="M 89.65649057296885 118.27599006163327 l -5.799719581384968 10.247548781910373 a32.774931136118504,32.774931136118504 0 0,0 -0.48726573171680493,-0.28132300137357946 l 5.974777780962173 -10.146478883260622" fill="#ff960d" stroke="none" /><path d="M 89.34428304082925 118.09573695890944 l -2.0097034702015515 3.412915855546986 a24.96066947310479,24.96066947310479 0 0,0 -0.36735834802541295,-0.22058813292660645 l 2.0679945747843917 -3.377913722084461" fill="#ff2a04" stroke="none" /><path d="M 89.03521579738668 117.91015095944536 l -4.038571456603847 6.596702963934548 a28.734762401294443,28.734762401294443 0 0,0 -0.4184819568104999,-0.2611636918414533 l 4.151217542204059 -6.526403475251547" fill="#ff5f08" stroke="none" /><path d="M 88.4268655584334 117.5232005979908 l -3.958868164189016 5.994230977990188 a28.18355358850524,28.18355358850524 0 0,0 -0.4014193091875654,-0.27009282599596535 l 4.061183761473587 -5.925388477937102" fill="#ff5708" stroke="none" /><path d="M 88.1277618465304 117.32195027204791 l -4.411051403325426 6.435855823320089 a28.802410823671252,28.802410823671252 0 0,0 -0.40543495359557585,-0.28302508527500125 l 4.520881448094768 -6.359185922239958" fill="#ff6008" stroke="none" /><path d="M 87.83215693770417 117.11559508785305 l -1.4916191214359202 2.0981490948798713 a23.57432655810767,23.57432655810767 0 0,0 -0.32781671536252704,-0.2373140214182581 l 1.5274168471724012 -2.072234302088548" fill="#ff1602" stroke="none" /><path d="M 87.54013794807813 116.9041958592261 l -4.463229847030042 6.0552284756075805 a28.522380777335638,28.522380777335638 0 0,0 -0.3916353926806545,-0.29389049987362137 l 4.5665182286214625 -5.977718948469944" fill="#ff5c08" stroke="none" /><path d="M 87.2517909369889 116.68781488649013 l -5.1710665062413605 6.769092050134813 a29.51824723726481,29.51824723726481 0 0,0 -0.40002855312020047,-0.3110646224573395 l 5.28650500399679 -6.679326376056681" fill="#ff6a09" stroke="none" /><path d="M 86.96720088162412 116.46651593811092 l -4.317189442509146 5.454627829158163 a27.95637042121386,27.95637042121386 0 0,0 -0.37374902187708264,-0.30106575571909255 l 4.41018923474149 -5.37971377964566" fill="#ff5407" stroke="none" /><path d="M 86.68645165197938 116.24036423190432 l -6.210937215911241 7.57633351914667 a30.796763276375348,30.796763276375348 0 0,0 -0.4059683095067227,-0.3386732025537733 l 6.340079859579856 -7.468598132681026" fill="#ff7b0b" stroke="none" /><path d="M 86.40962598614128 116.0094264158162 l -3.9274938993861768 4.6265779379339795 a27.068808099247583,27.068808099247583 0 0,0 -0.3516631575159983,-0.3037582597987686 l 4.006336536665038 -4.558475545670488" fill="#ff4806" stroke="none" /><path d="M 86.13680546590413 115.77377054828092 l -13.08531290131703 14.88868404394041 a40.821663055497126,40.821663055497126 0 0,0 -0.5223908822021148,-0.4671251480871593 l 13.338968810342516 -14.661863365969868" fill="#fffc17" stroke="none" /><path d="M 85.86807049272751 115.53346607816431 l -5.456036712552248 5.997140104048445 a29.107652313481637,29.107652313481637 0 0,0 -0.3667151537662556,-0.3394260715866908 l 5.5581816376324715 -5.902596286329377" fill="#ff6409" stroke="none" /><path d="M 85.60350026404147 115.28858382429668 l -4.1537143928582045 4.411100742688419 a27.058972934382833,27.058972934382833 0 0,0 -0.33543786471645815,-0.32134188648688744 l 4.2288247434399775 -4.339146725895948" fill="#ff4806" stroke="none" /><path d="M 85.34317274990678 115.03919595460226 l -1.769271704327396 1.815428632969909 a23.5349760324588,23.5349760324588 0 0,0 -0.2869116201836729,-0.2844593988489256 l 1.8001752446410313 -1.784789223892324" fill="#ff1602" stroke="none" /><path d="M 85.08716467003676 114.78537596483092 l -6.635331169541243 6.5786192781001045 a30.343760021301698,30.343760021301698 0 0,0 -0.36356621543199535,-0.3730509654686805 l 6.747284186124047 -6.463745620563687" fill="#ff750a" stroke="none" /><path d="M 84.83555147118756 114.52719865689866 l -1.1489806576641806 1.1006974790483048 a22.59112899919199,22.59112899919199 0 0,0 -0.26586979721247916,-0.2823445112063629 l 1.1677062886129126 -1.0808115078974516" fill="#ff0801" stroke="none" /><path d="M 84.58840730492382 114.26474011684316 l -5.399318617324597 4.997528705049101 a28.357168931673225,28.357168931673225 0 0,0 -0.3275959228780542,-0.3600853056019325 l 5.484312241044531 -4.904105823889495" fill="#ff5a08" stroke="none" /><path d="M 84.3458050057657 113.99807769240083 l -6.5308182544322335 5.839897954137087 a29.761049890690032,29.761049890690032 0 0,0 -0.3372762189981222,-0.38375842427829565 l 6.630105537388948 -5.726927252047491" fill="#ff6d0a" stroke="none" /><path d="M 84.1078160697243 113.72728997021213 l -1.7311272065778898 1.4953064502825526 a23.2875189148094,23.2875189148094 0 0,0 -0.25871927453599947,-0.3047706548630443 l 1.7565410446210015 -1.465369012969954" fill="#ff1202" stroke="none" /><path d="M 83.8745106332314 113.45245675266167 l -2.0023853751466394 1.670461097251049 a23.607678559184457,23.607678559184457 0 0,0 -0.25693381071874316,-0.3134174722236182 l 2.030766005104012 -1.6358413433289354" fill="#ff1702" stroke="none" /><path d="M 83.64595745247003 113.17365903436017 l -2.0322447419191145 1.637032509032895 a23.60957738469056,23.60957738469056 0 0,0 -0.251535953301004,-0.3178074599645246 l 2.06004712586168 -1.60190510515369" fill="#ff1702" stroke="none" /><path d="M 83.4222238831116 112.89097897827486 l -7.980537865045789 6.2057145137113485 a31.109395493357518,31.109395493357518 0 0,0 -0.32420141378211886,-0.4243900576459832 l 8.085891256182203 -6.067803542824495" fill="#ff7f0b" stroke="none" /><path d="M 82.98947788004972 112.3143062007846 l -7.215128289799033 5.223196466987007 a29.90729238158285,29.90729238158285 0 0,0 -0.29748484868393293,-0.41844969472220933 l 7.303728237012926 -5.098569545555294" fill="#ff6f0a" stroke="none" /><path d="M 82.78059297857968 112.02048342749411 l -8.211527865342502 5.732284189401427 a31.014403222926365,31.014403222926365 0 0,0 -0.3010025563514407,-0.4391717252871315 l 8.308720158509269 -5.5904777290442444" fill="#ff7e0b" stroke="none" /><path d="M 82.576782715395 111.72311816256416 l -3.5742223488597515 2.4048963087881523 a25.307968390681552,25.307968390681552 0 0,0 -0.23943213427596052,-0.36253076810838203 l 3.614978922056439 -2.343185662340709" fill="#ff2f04" stroke="none" /><path d="M 82.37810715431573 111.42229804090323 l -7.579978221032932 4.913250304174776 a30.033055871785976,30.033055871785976 0 0,0 -0.27670785607627485,-0.4350307097051767 l 7.663203768735097 -4.782405919790928" fill="#ff710a" stroke="none" /><path d="M 82.18462484594161 111.11811171558189 l -4.9604086703949095 3.095661880565466 a26.84711695249164,26.84711695249164 0 0,0 -0.24064226059387211,-0.393071047712113 l 5.012818895444187 -3.010053716728796" fill="#ff4506" stroke="none" /><path d="M 81.99639281039703 110.81064883170644 l -54.01082156880893 32.43194649511935 a84.0,84.0 0 0,0 -0.7317051594809199,-1.2425953268257648 l 54.559600438419615 -31.50000000000003" fill="#4dd2ff" stroke="none" /><line stroke="#e1ed5e" stroke-width="0.3" x1="26.387840678322732" x2="22.057713659400548" y1="142.50000000000003" y2="145.00000000000006" /><path d="M 25.521815274538298 143.00000000000003 a86.0,86.0 0 0,1 -11.493303480769221,-40.785679425670985" fill="none" id="id57" stroke="none" /><text fill="#e1ed5e" style="font-size:6.75px; font-family:Arial;" text-anchor="middle"><textPath startOffset="21.40746469413373" xlink:href="#id57">September</textPath></text><path d="M 81.4637452351635 109.86951160357371 l -1.1656596181967556 0.6206480906506717 a22.320593199256656,22.320593199256656 0 0,0 -0.17717441819089083,-0.33975530820373684 l 1.1761421053625958 -0.6005465393424321" fill="#ff0400" stroke="none" /><line stroke="#e1ed5e" stroke-width="0.3" x1="15.003131293944662" x2="10.003315487706104" y1="100.72959589197737" y2="100.7725132973878" /><path d="M 14.003168132696942 100.73817937305945 a86.0,86.0 0 0,1 10.791469493833604,-42.45332614584628" fill="none" id="id58" stroke="none" /><text fill="#e1ed5e" style="font-size:6.75px; font-family:Arial;" text-anchor="middle"><textPath startOffset="22.145653131862435" xlink:href="#id58">October</textPath></text><line stroke="#e1ed5e" stroke-width="0.3" x1="26.387840678322718" x2="22.05771365940052" y1="57.49999999999999" y2="54.99999999999999" /><path d="M 25.521815274538284 56.99999999999999 a86.0,86.0 0 0,1 29.574782752854787,-30.34633250058573" fill="none" id="id59" stroke="none" /><text fill="#e1ed5e" style="font-size:6.75px; font-family:Arial;" text-anchor="middle"><textPath startOffset="21.40746469413373" xlink:href="#id59">November</textPath></text><line stroke="#e1ed5e" stroke-width="0.3" x1="56.869717070023135" x2="54.33264160355391" y1="26.7553504044142" y2="22.446841604673864" /><path d="M 56.362301976729285 25.89364864446614 a86.0,86.0 0 0,1 42.16139366436587,-11.88097634709845" fill="none" id="id60" stroke="none" /><text fill="#e1ed5e" style="font-size:6.75px; font-family:Arial;" text-anchor="middle"><textPath startOffset="22.145653131862474" xlink:href="#id60">December</textPath></text></svg>