<?xml version="1.0" encoding="utf-8" ?>
<svg baseProfile="full" height="200mm" version="1.1" viewBox="0,0,200,200" width="200mm" xmlns="http://www.w3.org/2000/svg" xmlns:ev="http://www.w3.org/2001/xml-events" xmlns:xlink="http://www.w3.org/1999/xlink"><defs /><rect fill="#1a1a1a" height="200" width="200" x="0" y="0" /><text alignment-baseline="middle" fill="#e1ed5e" style="dominant-baseline: central; font-size:9.0px; font-family:Arial;" text-anchor="middle" x="100.0" y="100.0">2022</text><line stroke="#e1ed5e" stroke-width="0.3" x1="100.0" x2="100.0" y1="15.0" y2="10.0" /><path d="M 100.0 14.0 a86.0,86.0 0 0,1 42.46469731375804,11.215312516191453" fill="none" id="id25" stroke="none" /><text fill="#e1ed5e" style="font-size:6.75px; font-family:Arial;" text-anchor="middle"><textPath startOffset="22.20632615414155" xlink:href="#id25">January</textPath></text><line stroke="#e1ed5e" stroke-width="0.3" x1="143.23703022742887" x2="145.7803849466894" y1="26.81831364943548" y2="22.513508569990506" /><path d="M 143.74570117128098 25.957352633546492 a86.0,86.0 0 0,1 28.547481713284135,27.462654790039103" fill="none" id="id26" stroke="none" /><text fill="#e1ed5e" style="font-size:6.75px; font-family:Arial;" text-anchor="middle"><textPath startOffset="19.985693538727396" xlink:href="#id26">February</textPath></text><line stroke="#e1ed5e" stroke-width="0.3" x1="172.23445277983987" x2="176.4835382374775" y1="55.19839476539836" y2="52.563006222186495" /><path d="M 173.08426987136738 54.67131705675599 a86.0,86.0 0 0,1 12.851231095245387,41.99856678651699" fill="none" id="id27" stroke="none" /><text fill="#e1ed5e" style="font-size:6.75px; font-family:Arial;" text-anchor="middle"><textPath startOffset="22.20632615414155" xlink:href="#id27">March</textPath></text><path d="M 118.89224826269711 90.83032412892265 l 2.621080233644908 -1.2721861284274827 a23.91350633027755,23.91350633027755 0 0,0 0.17655205776299182,0.3718636600371468 l -2.642590485249656 1.2268800527497954" fill="#ff0000" stroke="none" /><path d="M 119.04729006885535 91.15688171328212 l 4.0476485898044965 -1.8792088078311613 a25.462609645709172,25.462609645709172 0 0,0 0.1811454707207468,0.39913003299110766 l -4.07939637748859 1.8092567659979908" fill="#ff1702" stroke="none" /><path d="M 119.34039704204932 91.81776055985345 l 15.804027249955976 -6.686126184307047 a38.160173678311864,38.160173678311864 0 0,0 0.2507274472506287,0.6071564010401194 l -15.916776384092802 6.413095212813624" fill="#ffc912" stroke="none" /><path d="M 119.47837535516314 92.15188598940014 l 3.9723979587240787 -1.60053554298495 a25.28271637711784,25.28271637711784 0 0,0 0.15916848483650214,0.40506643257233077 l -3.9993599934422814 1.5319201055168348" fill="#ff1502" stroke="none" /><path d="M 119.61058180528143 92.48833698450437 l 8.11394889029024 -3.107977641560868 a29.68882567523854,29.68882567523854 0 0,0 0.1786919684821566,0.4788056354748941 l -8.166245447274022 2.9678488690566405" fill="#ff5507" stroke="none" /><path d="M 119.85752413597 93.16781622104841 l 8.216122169489767 -2.826840658881085 a29.68882567523854,29.68882567523854 0 0,0 0.16210481412671462,0.484672761148684 l -8.263564277388252 2.684994794810087" fill="#ff5507" stroke="none" /><path d="M 120.18372546131832 94.20196356495316 l 8.351089143346115 -2.3989584687049317 a29.68882567523854,29.68882567523854 0 0,0 0.13687005198629137,0.4923943998786089 l -8.39114596589877 2.254852765407371" fill="#ff5507" stroke="none" /><path d="M 120.28053869075195 94.5502522615342 l 8.39114596589877 -2.254852765407371 a29.68882567523854,29.68882567523854 0 0,0 0.1283740130368951,0.49467743928681096 l -8.428716310805967 2.1100789005717098" fill="#ff5507" stroke="none" /><path d="M 120.45610955862082 95.25157060432595 l 8.463789045163676 -1.9646797738185784 a29.68882567523854,29.68882567523854 0 0,0 0.11127034399806165,0.49880313422141387 l -8.496353776163776 1.8186984700472006" fill="#ff5507" stroke="none" /><path d="M 120.87857604477298 97.74499172005257 l 3.050963288695822 -0.3295218727115795 a24.068706837344514,24.068706837344514 0 0,0 0.04094301854008293,0.4122906092235378 l -3.056183432918133 0.2769557327836068" fill="#ff0200" stroke="none" /><path d="M 120.91429891909075 98.10471618934814 l 3.8314354289908916 -0.3472101822880571 a24.847135604214014,24.847135604214014 0 0,0 0.034934500205782336,0.42628938835474506 l -3.8368444130161685 0.28120687672554323" fill="#ff0e01" stroke="none" /><line stroke="#e1ed5e" stroke-width="0.3" x1="184.98032266829074" x2="189.97916517819016" y1="98.17113171792111" y2="98.06355123074" /><path d="M 185.9800911702706 98.14961562048488 a86.0,86.0 0 0,1 -9.607161424134198,41.387399972396054" fill="none" id="id28" stroke="none" /><text fill="#e1ed5e" style="font-size:6.75px; font-family:Arial;" text-anchor="middle"><textPath startOffset="21.466115282336823" xlink:href="#id28">April</textPath></text><path d="M 120.99513854157772 99.54816195383933 l 10.155531265477283 -0.2185579959679563 a31.15788279523288,31.15788279523288 0 0,0 0.006924457963447854,0.5363069002894479 l -10.157788730558446 0.04371483761804568" fill="#ff6a09" stroke="none" /><path d="M 120.99980553446 99.90962569577887 l 3.5173886844914244 -0.015137357082405132 a24.517421256740192,24.517421256740192 0 0,0 -0.0018162770811193884,0.4220388287237659 l -3.5171281101208023 -0.0454109498450455" fill="#ff0901" stroke="none" /><path d="M 120.95626037817324 101.35467743843564 l 5.14237232824672 0.3324188403560407 a26.15310541787583,26.15310541787583 0 0,0 -0.03290738317879212,0.44899509843695706 l -5.1358883864035905 -0.420887075289768" fill="#ff2103" stroke="none" /><path d="M 120.89721153311464 102.0752229133903 l 3.2189195357087077 0.31965870500363125 a24.234752643565155,24.234752643565155 0 0,0 -0.044797015300690385,0.4147647256337901 l -3.2129402189069656 -0.37501975252221276" fill="#ff0500" stroke="none" /><path d="M 120.8583938346157 102.4346265915055 l 6.7051656219849605 0.7826381385436108 a27.750686518729186,27.750686518729186 0 0,0 -0.05946376241460246,0.47398469336210947 l -6.69070035032351 -0.8979405861931151" fill="#ff3905" stroke="none" /><path d="M 120.81339534386255 102.79330883721812 l 3.6443354650250117 0.48909629073295596 a24.677009132875224,24.677009132875224 0 0,0 -0.060124885255026496,0.420513307437152 l -3.635376528753384 -0.5517550701505173" fill="#ff0b01" stroke="none" /><path d="M 120.76222939487914 103.15116336523771 l 3.346540567482176 0.5079173260234086 a24.38486540055564,24.38486540055564 0 0,0 -0.06655703356647462,0.4144507115520873 l -3.3373017795544127 -0.5654472672687009" fill="#ff0701" stroke="none" /><line stroke="#e1ed5e" stroke-width="0.3" x1="174.80103733775053" x2="179.2010983576182" y1="140.37084112569926" y2="142.7455964860345" /><path d="M 175.68104954172406 140.8457921977663 a86.0,86.0 0 0,1 -30.038265399797805,32.042727171017184" fill="none" id="id29" stroke="none" /><text fill="#e1ed5e" style="font-size:6.75px; font-family:Arial;" text-anchor="middle"><textPath startOffset="22.206326154141568" xlink:href="#id29">May</textPath></text><path d="M 118.48025628344425 109.97397251340804 l 7.575787912365318 4.088725786396834 a29.608730513234043,29.608730513234043 0 0,0 -0.24592671846194905,0.4464284282525898 l -7.504284784451859 -4.218524733047229" fill="#ff5407" stroke="none" /><path d="M 118.12598468904814 110.60418214915192 l 5.383062857544471 3.1492346507511852 a27.23658918109625,27.23658918109625 0 0,0 -0.24022558081379933,0.4026318911935195 l -5.328056401032445 -3.2414286358308093" fill="#ff3104" stroke="none" /><path d="M 117.35343817320211 111.8261652097733 l 7.35648394278975 5.013357791242974 a29.902337465157117,29.902337465157117 0 0,0 -0.2935257485142455,0.4228457329195645 l -7.269097287113368 -5.139244786349558" fill="#ff5808" stroke="none" /><path d="M 113.48314897796784 116.09983520530334 l 1.9769380351398236 2.3606040865421387 a24.079080325061682,24.079080325061682 0 0,0 -0.32005669504269163,0.2633848706712737 l -1.9360112115524408 -2.394284076070591" fill="#ff0200" stroke="none" /><path d="M 113.20401910651253 116.32954008644616 l 6.416088784032175 7.93484000226682 a31.204306989999722,31.204306989999722 0 0,0 -0.4205783470698575,0.334132875191606 l -6.278552944244967 -8.044106791463552" fill="#ff6a09" stroke="none" /><path d="M 112.63410532772338 116.77436683061366 l 4.484750933076803 5.954426953390233 a28.454407506636148,28.454407506636148 0 0,0 -0.3937751656792043,0.29130545373481936 l -4.381590796979035 -6.030742355864822" fill="#ff4306" stroke="none" /><path d="M 112.04921762599082 117.19931262002967 l 2.4580678469682713 3.508698959014284 a25.28404784348718,25.28404784348718 0 0,0 -0.3586037894784901,0.24665095632723702 l -2.397307172866898 -3.550490704706615" fill="#ff1502" stroke="none" /><path d="M 111.7513745106137 117.40417183066458 l 2.0595056078634433 3.0501954859066736 a24.680388002788078,24.680388002788078 0 0,0 -0.3541345404835568,0.23470106306623156 l -2.006696368639922 -3.0851945700642234" fill="#ff0c01" stroke="none" /><line stroke="#e1ed5e" stroke-width="0.3" x1="143.8653032363475" x2="146.44561519142675" y1="172.8068346515853" y2="177.08958963109032" /><path d="M 144.38136562736335 173.6633856474863 a86.0,86.0 0 0,1 -40.68145358897372,12.25698825130547" fill="none" id="id30" stroke="none" /><text fill="#e1ed5e" style="font-size:6.75px; font-family:Arial;" text-anchor="middle"><textPath startOffset="21.466115282336833" xlink:href="#id30">June</textPath></text><path d="M 110.8373102113329 117.98757091392108 l 2.51314912678915 4.171279335356289 a25.869855216230917,25.869855216230917 0 0,0 -0.38340619595881253,0.22652313865307297 l -2.4409750598019553 -4.213921046303112" fill="#ff1d03" stroke="none" /><path d="M 110.5260780823613 118.17145234162733 l 1.6239541956098194 2.803475904283787 a24.23986178336955,24.23986178336955 0 0,0 -0.36284906863152006,0.20603517094796364 l -1.5754563600571 -2.831014241026379" fill="#ff0500" stroke="none" /><path d="M 106.91757812671514 119.82793768551818 l 3.376891858628481 9.679225896276812 a31.251381008236255,31.251381008236255 0 0,0 -0.5094425526966662,0.17283057360025156 l -3.2097795729945875 -9.735919456775186" fill="#ff6b09" stroke="none" /><path d="M 106.57524785965236 119.94407469862006 l 1.3530873235111123 4.104191238090951 a25.321484817035575,25.321484817035575 0 0,0 -0.41512603490996114,0.13291024713006153 l -1.2822399435102108 -4.126874331880718" fill="#ff1502" stroke="none" /><path d="M 104.83641907484287 120.43548508189849 l 4.517213969449738 19.08673695474431 a40.613993719418644,40.613993719418644 0 0,0 -0.6816959256561868,0.15515177326796065 l -4.18799789440069 -19.161665461589955" fill="#ffe915" stroke="none" /><path d="M 104.48393922423573 120.51570834832081 l 1.1656693532267681 5.333375696110663 a26.459274801373898,26.459274801373898 0 0,0 -0.4457865404339325,0.09341890384927665 l -1.0736913513634576 -5.352650580686481" fill="#ff2603" stroke="none" /><path d="M 104.13013068566511 120.58985236759428 l 1.8784066386016351 9.36438052901185 a30.550917976408286,30.550917976408286 0 0,0 -0.5165031088661158,0.09898905010195087 l -1.716935915163815 -9.395326777462268" fill="#ff6109" stroke="none" /><path d="M 103.7750983002368 120.6578951692458 l 0.6354368242438109 3.4772041038199397 a24.534788301614014,24.534788301614014 0 0,0 -0.41609952801596894,0.07234423653914897 l -0.5754883247557919 -3.487626918880095" fill="#ff0901" stroke="none" /><path d="M 103.41894727170886 120.7198165907248 l 1.9552469342058274 11.84936609042022 a33.009598965765754,33.009598965765754 0 0,0 -0.5614211860589006,0.08768244305255432 l -1.7509898845384098 -11.881266840819881" fill="#ff830c" stroke="none" /><path d="M 102.70371172650421 120.8252237178851 l 0.88190215343035 6.792813546811785 a27.849822427623565,27.849822427623565 0 0,0 -0.4759303591506063,0.05762853850882123 l -0.7648443712283635 -6.806987614045957" fill="#ff3a05" stroke="none" /><path d="M 100.90346689309514 120.98055641714683 l 0.7922939352494996 18.398867445511243 a39.415918466297754,39.415918466297754 0 0,0 -0.6781032934249824,0.023355248509371204 l -0.47547029014986486 -18.40977949244671" fill="#ffd914" stroke="none" /><line stroke="#e1ed5e" stroke-width="0.3" x1="102.19456741930631" x2="102.32365962044197" y1="184.97166512339345" y2="189.96999836594603" /><path d="M 102.22038585953345 185.97133177190398 a86.0,86.0 0 0,1 -42.740103519485714,-10.115201625700543" fill="none" id="id31" stroke="none" /><text fill="#e1ed5e" style="font-size:6.75px; font-family:Arial;" text-anchor="middle"><textPath startOffset="22.20632615414155" xlink:href="#id31">July</textPath></text><path d="M 93.08242187328487 119.8279376855182 l -1.0806005825466218 3.0973384935001 a24.280427313981757,24.280427313981757 0 0,0 -0.3934359273571285,-0.14107212577045175 l 1.1337560705334768 -3.0782788266896906" fill="#ff0600" stroke="none" /><path d="M 92.7421414339146 119.70592522655815 l -1.3521906254824827 3.6713539007667086 a24.912449226803798,24.912449226803798 0 0,0 -0.40112575987522986,-0.15167143941792943 l 1.4151866061179956 -3.647534211242146" fill="#ff0f01" stroke="none" /><path d="M 92.06813273071674 119.44442032107085 l -8.532416371996412 20.916624630618212 a43.58998262689232,43.58998262689232 0 0,0 -0.6923096802894463,-0.2893855025089671 l 8.89119751178332 -20.766654085089275" fill="#f0ff19" stroke="none" /><path d="M 91.7346041902142 119.30500536409082 l -8.08287243266989 18.878696103725726 a41.53626045168993,41.53626045168993 0 0,0 -0.6548474803612266,-0.28706589119685694 l 8.406640587688859 -18.736765659234415" fill="#fff417" stroke="none" /><path d="M 91.40352486487194 119.15986991738527 l -1.3292851492946267 2.962717874855777 a24.247259800835955,24.247259800835955 0 0,0 -0.37933337426270086,-0.17413334699689995 l 1.3800865193247471 -2.9393974575248025" fill="#ff0500" stroke="none" /><path d="M 91.07499286063937 119.00905698771935 l -3.9938419397843106 8.506342667053847 a30.397267635292764,30.397267635292764 0 0,0 -0.47171830713086427,-0.22645345369713393 l 4.139672914915417 -8.43633493685715" fill="#ff5f08" stroke="none" /><line stroke="#e1ed5e" stroke-width="0.3" x1="58.666819895761336" x2="56.23545636021788" y1="174.27360380694188" y2="178.64263932499728" /><path d="M 58.180547188652646 175.14741091055294 a86.0,86.0 0 0,1 -31.652253787137756,-30.449443065178592" fill="none" id="id32" stroke="none" /><text fill="#e1ed5e" style="font-size:6.75px; font-family:Arial;" text-anchor="middle"><textPath startOffset="22.20632615414155" xlink:href="#id32">August</textPath></text><path d="M 85.70375840098266 115.38237550388516 l -1.995474992039808 2.1470779871458268 a23.931188210733396,23.931188210733396 0 0,0 -0.2993269325432669,-0.2830322977647761 l 2.032137758973892 -2.1124110526351196" fill="#ff0000" stroke="none" /><path d="M 84.67929136418377 114.36230785411682 l -3.3930930830087935 3.180835077166152 a25.650891576686423,25.650891576686423 0 0,0 -0.2992037157057828,-0.32472653994708844 l 3.447343206710305 -3.1219572824177195" fill="#ff1a02" stroke="none" /><path d="M 84.43433777217949 114.09645910891817 l -6.570813593406034 5.950611273462095 a29.864838735540747,29.864838735540747 0 0,0 -0.34179760460793945,-0.38401323214855193 l 6.672270047662312 -5.836623871572678" fill="#ff5708" stroke="none" /><line stroke="#e1ed5e" stroke-width="0.3" x1="26.63291911575756" x2="22.317208475507996" y1="142.92168965132927" y2="145.44649492493687" /><path d="M 25.769776987707644 143.4266507060508 a86.0,86.0 0 0,1 -11.730757126820373,-40.83630448921669" fill="none" id="id33" stroke="none" /><text fill="#e1ed5e" style="font-size:6.75px; font-family:Arial;" text-anchor="middle"><textPath startOffset="21.46611528233685" xlink:href="#id33">September</textPath></text><line stroke="#e1ed5e" stroke-width="0.3" x1="15.007084014347285" x2="10.007500721073583" y1="101.09737516637583" y2="101.16192664675087" /><path d="M 14.007167355692545 101.11028546245083 a86.0,86.0 0 0,1 10.666146001902534,-42.60595125391555" fill="none" id="id34" stroke="none" /><text fill="#e1ed5e" style="font-size:6.75px; font-family:Arial;" text-anchor="middle"><textPath startOffset="22.20632615414155" xlink:href="#id34">October</textPath></text><path d="M 79.91906864156998 93.8553929516997 l -3.420493855420258 -1.0466442157255804 a24.577043797506477,24.577043797506477 0 0,0 0.12726755896035752,-0.40347294090100383 l 3.4019708126916965 1.1053673230529988" fill="#ff0a01" stroke="none" /><path d="M 80.95270993114464 91.15688171328213 l -20.030403721002802 -9.29955016147797 a43.08390152197315,43.08390152197315 0 0,0 0.31808599563384893,-0.6699702288474643 l 19.867359531527203 9.642962805965967" fill="#f6ff19" stroke="none" /><path d="M 81.10775173730289 90.83032412892265 l -24.084948557406474 -11.690041787089019 a47.77203436417942,47.77203436417942 0 0,0 0.3654332848309953,-0.7366912031779816 l 23.880155259622068 12.102892578765962" fill="#beff1f" stroke="none" /><path d="M 81.26839172434947 90.50648371742162 l -36.84699909043549 -18.674722462775378 a62.30915880325138,62.30915880325138 0 0,0 0.49310449622994373,-0.95252093470744 l 36.52008516104543 19.30621611974315" fill="#31ff41" stroke="none" /><path d="M 81.43458229118936 90.18545643968196 l -23.235634901845774 -12.28343765126204 a47.28264769433086,47.28264769433086 0 0,0 0.3865736979344289,-0.7162623519027457 l 23.020753104692872 12.681580986497258" fill="#c3ff1e" stroke="none" /><line stroke="#e1ed5e" stroke-width="0.3" x1="26.266209847984243" x2="21.928928074336255" y1="57.711370442889674" y2="55.22380399835377" /><path d="M 25.398753493254645 57.213857153982495 a86.0,86.0 0 0,1 29.58750427330803,-30.492523968695096" fill="none" id="id35" stroke="none" /><text fill="#e1ed5e" style="font-size:6.75px; font-family:Arial;" text-anchor="middle"><textPath startOffset="21.46611528233685" xlink:href="#id35">November</textPath></text><path d="M 81.78341655067845 89.55222093294921 l -18.412145493976713 -10.559940002285547 a42.225443094155594,42.225443094155594 0 0,0 0.3670402918115205,-0.6273908365645585 l 18.227645527694868 10.875310251203997" fill="#fffd17" stroke="none" /><path d="M 82.15384107792192 88.93136811851018 l -15.45433438548168 -9.585162781147538 a39.185483134615296,39.185483134615296 0 0,0 0.3604549509227108,-0.5701531689160304 l 15.287051838313005 9.849763597777784" fill="#ffd614" stroke="none" /><path d="M 82.54541684631803 88.32363383020206 l -48.38317588629263 -32.36626581866661 a79.21088276163243,79.21088276163243 0 0,0 0.7678760849071469,-1.1267634036690566 l 47.81887533571675 33.19430724560608" fill="#47fffe" stroke="none" /><path d="M 82.7489923806493 88.02491185347247 l -47.42679735910197 -32.92213947234468 a78.73359832175574,78.73359832175574 0 0,0 0.782414684151475,-1.1066700837192402 l 46.85307005514661 33.73363605639571" fill="#46fff9" stroke="none" /><path d="M 82.95767976084542 87.72973835380427 l -2.373815044646477 -1.7091177309629644 a23.92507799630744,23.92507799630744 0 0,0 0.24350874601610986,-0.3321456559053438 l 2.3440436861167337 1.749725830539809" fill="#ff0000" stroke="none" /><path d="M 83.17141714833178 87.43820079747576 l -5.035144327715909 -3.758514460665124 a27.283240354463494,27.283240354463494 0 0,0 0.2841667187699847,-0.37393009225293955 l 4.969701668721815 3.8446293287990905" fill="#ff3204" stroke="none" /><path d="M 83.6137871275137 86.86637796730984 l -5.092513891284744 -4.081672389149779 a27.526388528526,27.526388528526 0 0,0 0.2995152993552039,-0.36717034192183906 l 5.021500099853148 4.168726900679701" fill="#ff3605" stroke="none" /><path d="M 84.07557802195018 86.31012108654704 l -47.77326593414944 -41.06963674035889 a84.0,84.0 0 0,0 0.9520325456886258,-1.0883377751882275 l 47.05924152488297 41.885890071750055" fill="#4dd2ff" stroke="none" /><path d="M 84.80347519578584 85.50635884689758 l -4.672332840118173 -4.4562238014937074 a27.456672884531613,27.456672884531613 0 0,0 0.32913456023096144,-0.339202096062646 l 4.5949340161840935 4.535990093106477" fill="#ff3505" stroke="none" /><path d="M 85.57189188830299 84.74124197986013 l -27.13971023305728 -28.7021879775911 a60.50163877911003,60.50163877911003 0 0,0 0.7628741412476068,-0.7090083732622496 l 26.64162820801482 29.165100936928" fill="#33ff2f" stroke="none" /><path d="M 85.83668400450813 84.49514656593479 l -2.1407029912123705 -2.343468587100469 a24.174028089874483,24.174028089874483 0 0,0 0.30964514008202776,-0.27800246408304696 l 2.1000468635343714 2.3799700599527944" fill="#ff0400" stroke="none" /><line stroke="#e1ed5e" stroke-width="0.3" x1="56.762969772571076" x2="54.21961505331055" y1="26.818313649435495" y2="22.513508569990535" /><path d="M 56.25429882871897 25.957352633546506 a86.0,86.0 0 0,1 42.265352541879196,-11.944610805530505" fill="none" id="id36" stroke="none" /><text fill="#e1ed5e" style="font-size:6.75px; font-family:Arial;" text-anchor="middle"><textPath startOffset="22.20632615414155" xlink:href="#id36">December</textPath></text></svg>