<?xml version="1.0" encoding="utf-8" ?>
<svg baseProfile="full" height="200mm" version="1.1" viewBox="0,0,200,200" width="200mm" xmlns="http://www.w3.org/2000/svg" xmlns:ev="http://www.w3.org/2001/xml-events" xmlns:xlink="http://www.w3.org/1999/xlink"><defs /><rect fill="#1a1a1a" height="200" width="200" x="0" y="0" /><text alignment-baseline="middle" fill="#e1ed5e" style="dominant-baseline: central; font-size:9.0px; font-family:Arial;" text-anchor="middle" x="100.0" y="100.0">2024</text><line stroke="#e1ed5e" stroke-width="0.3" x1="100.0" x2="100.0" y1="15.0" y2="10.0" /><path d="M 100.0 14.0 a86.0,86.0 0 0,1 42.35913384403234,11.155469271406648" fill="none" id="id49" stroke="none" /><text fill="#e1ed5e" style="font-size:6.75px; font-family:Arial;" text-anchor="middle"><textPath startOffset="22.145653131862478" xlink:href="#id49">January</textPath></text><line stroke="#e1ed5e" stroke-width="0.3" x1="143.13028292997686" x2="145.6673583964461" y1="26.7553504044142" y2="22.446841604673864" /><path d="M 143.63769802327073 25.89364864446614 a86.0,86.0 0 0,1 29.32050498858742,28.57503671076993" fill="none" id="id50" stroke="none" /><text fill="#e1ed5e" style="font-size:6.75px; font-family:Arial;" text-anchor="middle"><textPath startOffset="20.669276256404974" xlink:href="#id50">February</textPath></text><line stroke="#e1ed5e" stroke-width="0.3" x1="172.87174338648825" x2="177.1583165268699" y1="56.24261187166439" y2="53.66864786411523" /><path d="M 173.72905801456457 55.72781907015455 a86.0,86.0 0 0,1 12.242430191666344,42.057860355516425" fill="none" id="id51" stroke="none" /><text fill="#e1ed5e" style="font-size:6.75px; font-family:Arial;" text-anchor="middle"><textPath startOffset="22.145653131862474" xlink:href="#id51">March</textPath></text><path d="M 120.16314734710363 94.1308016681162 l 5.525464985002317 -1.6083823281446388 a26.754794263392448,26.754794263392448 0 0,0 0.12457733939565883,0.4420810289048714 l -5.552260816472558 1.5132933753367541" fill="#ff4206" stroke="none" /><path d="M 120.26092885502905 94.47779374421319 l 10.281578660147119 -2.802289983972563 a31.65662652526894,31.65662652526894 0 0,0 0.13840053891693757,0.5255293891665688 l -10.328168679868787 2.625380090433196" fill="#ff850c" stroke="none" /><path d="M 120.35273937422433 94.82641323984039 l 7.314478122825007 -1.8593117357779168 a28.547094165312046,28.547094165312046 0 0,0 0.1166522267189418,0.47598089268325006 l -7.34531787606024 1.733475018486572" fill="#ff5b08" stroke="none" /><path d="M 120.43855184770803 95.1765574152323 l 1.1454072224471632 -0.27031298571535983 a22.176871622344798,22.176871622344798 0 0,0 0.08426064190919659,0.3712679353837312 l -1.1498787259140262 0.25061071639260235" fill="#ff0000" stroke="none" /><path d="M 120.51834098615036 95.52812308129327 l 6.234663550598061 -1.3588159026424569 a27.38101953032821,27.38101953032821 0 0,0 0.09614947905376776,0.4601100637755175 l -6.257070740476196 1.251589387581535" fill="#ff4b07" stroke="none" /><path d="M 120.77682067341334 96.94652285012252 l 1.9662801294542915 -0.28897546645477445 a22.987401410812506,22.987401410812506 0 0,0 0.05402639570333527,0.3909080860904282 l -1.9709510417128393 0.2551790721642606" fill="#ff0c01" stroke="none" /><path d="M 120.82617615685814 97.30363454192243 l 2.6136437393225886 -0.33838850902590745 a23.635458286359498,23.635458286359498 0 0,0 0.04864167606824774,0.4028228556905228 l -2.6190675016505 0.2934719764119717" fill="#ff1602" stroke="none" /><path d="M 120.86939407059847 97.66154086499901 l 3.890209928549841 -0.4359061366954208 a24.91455584302951,24.91455584302951 0 0,0 0.043977284642049114,0.4254403359352262 l -3.897119605673556 0.3690612784772632" fill="#ff2803" stroke="none" /><path d="M 120.9064616781168 98.02013634271609 l 1.393142782218706 -0.13193206992120105 a22.39937589043179,22.39937589043179 0 0,0 0.03296588393356253,0.38311354151257804 l -1.3952022888500093 0.10799748103296099" fill="#ff0400" stroke="none" /><path d="M 120.93736805541906 98.37931529534042 l 5.5567392419023145 -0.43012676059834803 a26.57336164560312,26.57336164560312 0 0,0 0.031300938363827725,0.4551087741983889 l -5.5633041414312085 0.33467456224562503" fill="#ff4006" stroke="none" /><path d="M 120.96210409425399 98.7389718711861 l 13.249173258681854 -0.7970373626427448 a34.27312550215731,34.27312550215731 0 0,0 0.030288320651211634,0.5875853290436159 l -13.260903168789637 0.5694802402223983" fill="#ffa80f" stroke="none" /><path d="M 120.98066250479742 99.09900007780936 l 11.393136442410384 -0.4892703004860732 a32.403637289142324,32.403637289142324 0 0,0 0.01909548351874951,0.5559441676483077 l -11.399856612925982 0.2936198682736455" fill="#ff8f0d" stroke="none" /><path d="M 120.99303781780057 99.45929381324524 l 2.9118456113882343 -0.07499881392188501 a23.91281130295984,23.91281130295984 0 0,0 0.007046955638883767,0.41044983723817346 l -2.9127039986257843 0.025002060714645145" fill="#ff1a02" stroke="none" /><line stroke="#e1ed5e" stroke-width="0.3" x1="184.99686870605535" x2="189.99668451229388" y1="99.2704041080226" y2="99.22748670261217" /><path d="M 185.99683186730306 99.26182062694052 a86.0,86.0 0 0,1 -10.086455211305974,41.156179273409016" fill="none" id="id52" stroke="none" /><text fill="#e1ed5e" style="font-size:6.75px; font-family:Arial;" text-anchor="middle"><textPath startOffset="21.40746469413373" xlink:href="#id52">April</textPath></text><path d="M 120.99922638620191 99.81974689727618 l 1.379793345461737 -0.01184386639122057 a22.37984417719958,22.37984417719958 0 0,0 0.0,0.38419393823009473 l -1.379793345461737 -0.011843866391220403" fill="#ff0300" stroke="none" /><path d="M 120.99922638620191 100.18025310272382 l 3.452727744104943 0.029637515082198078 a24.45285494297288,24.45285494297288 0 0,0 -0.007206103115353722,0.4197193798835962 l -3.4517102093909204 -0.08890381093486532" fill="#ff2103" stroke="none" /><path d="M 120.99303781780057 100.54070618675476 l 10.509627483360065 0.27069072375614633 a31.513112921819342,31.513112921819342 0 0,0 -0.018570696957678927,0.5406655795150135 l -10.50343209940554 -0.4510625678352705" fill="#ff840c" stroke="none" /><path d="M 120.98066250479742 100.90099992219065 l 2.7052721471286905 0.11617602606734277 a23.707765547284897,23.707765547284897 0 0,0 -0.020951354575896915,0.4064506815730435 l -2.702879203096221 -0.1625985010171169" fill="#ff1702" stroke="none" /><path d="M 120.96210409425399 101.26102812881392 l 15.127562263265322 0.9100365807071109 a36.15491031339988,36.15491031339988 0 0,0 -0.04258710788503867,0.6192072020630578 l -15.109711194215215 -1.1695872069245121" fill="#ffc011" stroke="none" /><path d="M 120.93736805541906 101.62068470465957 l 3.2621069190336693 0.2525077065392499 a24.27186517036828,24.27186517036828 0 0,0 -0.03572168679928409,0.4151401481015305 l -3.2572916095366446 -0.3084689020164378" fill="#ff1f03" stroke="none" /><path d="M 120.9064616781168 101.97986365728391 l 6.507864897050842 0.6163015719523368 a27.536981960037636,27.536981960037636 0 0,0 -0.048606192358767474,0.4702208190879046 l -6.496326312210409 -0.7279269133231727" fill="#ff4d07" stroke="none" /><path d="M 120.86939407059847 102.33845913500097 l 13.558265416335194 1.519231919735737 a34.64311645943605,34.64311645943605 0 0,0 -0.07129539137334921,0.590428115805281 l -13.530187938702182 -1.7517537124644265" fill="#ffad10" stroke="none" /><path d="M 120.82617615685814 102.69636545807757 l 13.800009173519651 1.786687473320861 a34.915189733400986,34.915189733400986 0 0,0 -0.0820598128027889,0.5937439273909452 l -13.767304844161652 -2.0233197089118913" fill="#ffb010" stroke="none" /><path d="M 120.77682067341334 103.0534771498775 l 10.553231987939022 1.5509616817246181 a31.666592123515244,31.666592123515244 0 0,0 -0.08365787047993886,0.5371435405882178 l -10.525052625320814 -1.7318934042442866" fill="#ff860c" stroke="none" /><path d="M 120.7213421655516 103.40968896794604 l 14.606843231205046 2.4035504951390423 a35.80327410283562,35.80327410283562 0 0,0 -0.10499767476184249,0.6055986859800523 l -14.563430738950968 -2.6539422140396827" fill="#ffbc11" stroke="none" /><path d="M 120.65975698304385 103.76489593502545 l 12.935346555691172 2.3572510415121073 a34.1483771998122,34.1483771998122 0 0,0 -0.11004510941231754,0.5758025130823022 l -12.892975153996694 -2.578956119627724" fill="#ffa60f" stroke="none" /><path d="M 120.592083275326 104.11899336999214 l 4.409879723416531 0.8820994505679938 a25.49723677558705,25.49723677558705 0 0,0 -0.08953450511833282,0.42845501884692055 l -4.394087507473834 -0.9576709207003234" fill="#ff3004" stroke="none" /><path d="M 120.51834098615036 104.47187691870673 l 14.732151539545805 3.210803859681106 a36.077982305649684,36.077982305649684 0 0,0 -0.13707767261455375,0.6039895180677187 l -14.674863005373588 -3.463227711687842" fill="#ffbf11" stroke="none" /><path d="M 120.43855184770803 104.8234425847677 l 6.26268749407509 1.4779771961877735 a27.434723866716862,27.434723866716862 0 0,0 -0.1121067387783517,0.4574337507340983 l -6.236393228780442 -1.5852667715299713" fill="#ff4c07" stroke="none" /><path d="M 120.35273937422433 105.17358676015961 l 5.308950837162122 1.3495145423158552 a26.477786824195185,26.477786824195185 0 0,0 -0.115759016927192,0.43955584228454103 l -5.2850023394302 -1.4404508889731995" fill="#ff3e05" stroke="none" /><path d="M 120.26092885502905 105.52220625578681 l 12.383104323274923 3.3750701485275685 a33.834810913628296,33.834810913628296 0 0,0 -0.1575437538812401,0.5590672039651918 l -12.323342077319104 -3.587145276395769" fill="#ffa20f" stroke="none" /><path d="M 120.16314734710363 105.8691983318838 l 5.489108805876359 1.5977995742617035 a26.716929154910027,26.716929154910027 0 0,0 -0.1319608671499802,0.439254808796243 l -5.4608716187227495 -1.69179198664867" fill="#ff4206" stroke="none" /><path d="M 120.05942366710727 106.21446072829308 l 7.17888784466158 2.224037805065386 a28.515502301549102,28.515502301549102 0 0,0 -0.14887167617069902,0.46633840524745646 l -7.139651452713626 -2.3469452440042256" fill="#ff5b08" stroke="none" /><path d="M 119.94978838288452 106.5578916946017 l 19.30950352584978 6.347417344421127 a41.32600879068646,41.32600879068646 0 0,0 -0.22732173731204214,0.6720363239374072 l -19.19769636696537 -6.6779553428326945" fill="#fdff18" stroke="none" /><path d="M 119.83427380445688 106.89939002012753 l 1.0921568506640085 0.37990884618079446 a22.156346538827677,22.156346538827677 0 0,0 -0.12804240230474256,0.35815738782107415 l -1.0854742783153226 -0.39860119038279007" fill="#ff0000" stroke="none" /><path d="M 119.71291397450082 107.23885506374661 l 2.6007639806290532 0.9550365580217642 a23.77057180201047,23.77057180201047 0 0,0 -0.14394701720959102,0.3818365650828773 l -2.5839862796050217 -0.9995414032988004" fill="#ff1802" stroke="none" /><path d="M 119.58574465831526 107.57618678355244 l 9.132455737658306 3.532630066820044 a30.791895781169707,30.791895781169707 0 0,0 -0.1949293059739859,0.4913491883017102 l -9.070467756718195 -3.688880272335318" fill="#ff7a0b" stroke="none" /><path d="M 119.4528033332814 107.91128576633889 l 1.3670861546314932 0.5559820377143913 a22.475818613667062,22.475818613667062 0 0,0 -0.1484197697429247,0.3561534170630003 l -1.357340540352083 -0.5793679642186693" fill="#ff0500" stroke="none" /><path d="M 119.31412917781788 108.2440532568976 l 6.018441924821715 2.5689149790278685 a27.54377317546425,27.54377317546425 0 0,0 -0.18935179085461942,0.43327395339745095 l -5.97345625195013 -2.6718510022011643" fill="#ff4d07" stroke="none" /><path d="M 119.16976305983485 108.57439118712176 l 2.6756141232152344 1.1967681648764665 a23.93106891369183,23.93106891369183 0 0,0 -0.17095390998466722,0.37356514558513043 l -2.654675748375511 -1.2425222926762858" fill="#ff1a02" stroke="none" /><path d="M 119.0197475246899 108.90220220490707 l 14.553401373563473 6.811726687142062 a37.068637527816804,37.068637527816804 0 0,0 -0.2746975656425669,0.5740122614060168 l -14.434324549960994 -7.060551450613183" fill="#ffcc13" stroke="none" /><path d="M 118.8641267826498 109.22738970284198 l 5.279730910496235 2.5825809590135744 a26.877523534373033,26.877523534373033 0 0,0 -0.2062915036154263,0.412721196430691 l -5.234619493669076 -2.6728340116080114" fill="#ff4406" stroke="none" /><path d="M 118.70294669586154 109.54985784667822 l 1.0207742683768095 0.521214614737822 a22.146143438491233,22.146143438491233 0 0,0 -0.17578968640570766,0.33709990242191834 l -1.0116765129961525 -0.5386607602642433" fill="#ff0000" stroke="none" /><path d="M 118.5362547648365 109.86951160357373 l 8.522903250466728 4.5379659264388374 a30.655724445443553,30.655724445443553 0 0,0 -0.25131073924732583,0.4623834544966044 l -8.443747161604064 -4.683604214410045" fill="#ff780b" stroke="none" /><line stroke="#e1ed5e" stroke-width="0.3" x1="174.33088141563837" x2="178.70328620479359" y1="141.23008692659167" y2="143.65538615756765" /><path d="M 175.20536237346943 141.71514677278685 a86.0,86.0 0 0,1 -30.301960400862466,31.631185727798858" fill="none" id="id53" stroke="none" /><text fill="#e1ed5e" style="font-size:6.75px; font-family:Arial;" text-anchor="middle"><textPath startOffset="22.145653131862474" xlink:href="#id53">May</textPath></text><path d="M 118.36410011445183 110.18625677009912 l 12.417274220689585 6.887652692392878 a35.199593609777324,35.199593609777324 0 0,0 -0.2976320661858645,0.525887342396658 l -12.297208789482342 -7.099796804888658" fill="#ffb410" stroke="none" /><path d="M 118.18653347947321 110.5 l 7.320301709796394 4.2263781627002235 a29.45275632540045,29.45275632540045 0 0,0 -0.25655635433607565,0.43568877823906765 l -7.246671645330553 -4.35141810923284" fill="#ff6809" stroke="none" /><path d="M 118.00360718960297 110.81064883170644 l 2.467010469440117 1.4813689039306632 a23.877602211192485,23.877602211192485 0 0,0 -0.21402522229223295,0.3495941159944712 l -2.441217282692479 -1.5235001360496914" fill="#ff1902" stroke="none" /><path d="M 117.81537515405839 111.11811171558189 l 10.446712543355162 6.519521262572715 a33.31413661027974,33.31413661027974 0 0,0 -0.3069379072784464,0.48255737127303416 l -10.333256944450826 -6.6978923085244215" fill="#ff9c0e" stroke="none" /><path d="M 117.62189284568427 111.42229804090321 l 1.0548200275636408 0.6837215978927262 a22.257028445968643,22.257028445968643 0 0,0 -0.21056798164096033,0.31882676213939365 l -1.0429276070019537 -0.7017282383711809" fill="#ff0200" stroke="none" /><path d="M 117.423217284605 111.72311816256416 l 2.2270782986643614 1.4984776706879341 a23.684271424042674,23.684271424042674 0 0,0 -0.22986179010816785,0.3353752212706398 l -2.201026771740873 -1.536487627028618" fill="#ff1602" stroke="none" /><path d="M 117.21940702142032 112.02048342749411 l 5.648162652283375 3.9428561897111933 a27.888240434203254,27.888240434203254 0 0,0 -0.27740154072720546,0.39020000697951174 l -5.579646013026209 -4.039233423400209" fill="#ff5207" stroke="none" /><path d="M 117.01052211995028 112.31430620078461 l 2.2350925894208884 1.6180346693152425 a23.759288871138768,23.759288871138768 0 0,0 -0.24200304312671483,0.3283236060315547 l -2.2069875267103454 -1.6561645846156745" fill="#ff1702" stroke="none" /><path d="M 116.79662413953412 112.60449989151573 l 2.5580090677381344 1.9195776930504016 a24.198153984767966,24.198153984767966 0 0,0 -0.2521770548210728,0.3301078597529978 l -2.524680035562757 -1.9632064660442765" fill="#ff1e03" stroke="none" /><path d="M 116.57777611688842 112.89097897827486 l 2.1130711986570634 1.6431369448726163 a23.67674595548388,23.67674595548388 0 0,0 -0.2522515658768275,0.3187116130768566 l -2.0845532021386743 -1.6791685018641558" fill="#ff1602" stroke="none" /><path d="M 116.1254893667686 113.45245675266167 l 14.428173406999644 12.036495411888433 a39.78960908754791,39.78960908754791 0 0,0 -0.4420539102881737,0.5207383947907215 l -14.219424933204355 -12.282400589128711" fill="#ffee16" stroke="none" /><path d="M 115.89218393027572 113.72728997021213 l 11.035369687258441 9.53208950324913 a35.58218483055316,35.58218483055316 0 0,0 -0.40324601475487165,0.45881994194109754 l -10.870112608544984 -9.72012172300152" fill="#ffb911" stroke="none" /><path d="M 115.6541949942343 113.99807769240083 l 2.001971654324028 1.7901753980663695 a23.685631854994085,23.685631854994085 0 0,0 -0.2736280354778274,0.30076514356672207 l -1.970945918004321 -1.8242781171907632" fill="#ff1602" stroke="none" /><path d="M 115.41159269507618 114.26474011684316 l 6.328890203288974 5.857926287319754 a29.623813054151796,29.623813054151796 0 0,0 -0.3486358370867259,0.3702391773842775 l -6.227398532465988 -5.965706924648528" fill="#ff6a09" stroke="none" /><path d="M 115.16444852881244 114.52719865689866 l 7.30697426873458 6.999916059002698 a31.11882887477761,31.11882887477761 0 0,0 -0.3728527656011154,0.3825797840426117 l -7.185734701982657 -7.124318535113047" fill="#ff7e0b" stroke="none" /><path d="M 114.91283532996324 114.78537596483092 l 2.0419373716841474 2.0244850203856717 a23.875421330456867,23.875421330456867 0 0,0 -0.2910619414713496,0.28857424751823585 l -2.0068835100828326 -2.0592392781325692" fill="#ff1902" stroke="none" /><path d="M 114.65682725009322 115.03919595460226 l 5.244225197058329 5.3810370432060095 a28.513817776458033,28.513817776458033 0 0,0 -0.35347291905879974,0.3386190605774166 l -5.151079792134217 -5.470268234089006" fill="#ff5b08" stroke="none" /><path d="M 114.39649973595853 115.28858382429668 l 4.554113454623464 4.836310670882142 a27.643030201863525,27.643030201863525 0 0,0 -0.34826299152771156,0.3223470256934782 l -4.4704206917817855 -4.913775442708" fill="#ff4f07" stroke="none" /><path d="M 114.13192950727249 115.5334660781643 l 1.7981093262718013 1.9764371319641996 a23.671984447153932,23.671984447153932 0 0,0 -0.3029281002592061,0.2708801751991443 l -1.7639161991892174 -2.0070128370467306" fill="#ff1602" stroke="none" /><path d="M 113.86319453409587 115.77377054828091 l 4.822542314773251 5.487167892329506 a28.305198550100496,28.305198550100496 0 0,0 -0.36772566637400395,0.3176326723848737 l -4.727637168636392 -5.569144697179097" fill="#ff5808" stroke="none" /><path d="M 113.59037401385872 116.0094264158162 l 3.4502870519254496 4.06442947154479 a26.331422668467233,26.331422668467233 0 0,0 -0.3471054101268101,0.2895676783594904 l -3.3800073076367445 -4.123059333816151" fill="#ff3c05" stroke="none" /><path d="M 113.31354834802062 116.24036423190432 l 9.297532345842566 11.341477704314956 a35.66537501189322,35.66537501189322 0 0,0 -0.47681078855143083,0.3840850195922743 l -9.10147078693588 -11.499411017700634" fill="#ffba11" stroke="none" /><path d="M 113.03279911837588 116.46651593811092 l 1.7973657449393037 2.27091290342438 a23.89613001020682,23.89613001020682 0 0,0 -0.32383814107659453,0.2518184972186464 l -1.7581176592274783 -2.301432452263819" fill="#ff1902" stroke="none" /><path d="M 112.7482090630111 116.68781488649013 l 2.7175889372377013 3.5574111546209974 a25.47665765441346,25.47665765441346 0 0,0 -0.34981514700922706,0.2625078078725555 l -2.656120801317708 -3.6035379897575677" fill="#ff3004" stroke="none" /><path d="M 112.45986205192187 116.90419585922612 l 5.794790707437711 7.8617465164183935 a30.7666093211218,30.7666093211218 0 0,0 -0.4278301984844214,0.30971607037862126 l -5.658979498579321 -7.960063358170092" fill="#ff790b" stroke="none" /><path d="M 112.16784306229584 117.11559508785304 l 6.336861179747596 8.913588836181981 a31.93653855440103,31.93653855440103 0 0,0 -0.44955226512378405,0.3138223950447736 l -6.182913823450054 -9.021056047031877" fill="#ff890c" stroke="none" /><path d="M 111.8722381534696 117.32195027204791 l 6.061590329892391 8.844041444134715 a31.721937623070627,31.721937623070627 0 0,0 -0.451816632943607,0.30400239458012546 l -5.908877408851781 -8.946793512771961" fill="#ff860c" stroke="none" /><path d="M 111.5731344415666 117.5232005979908 l 3.995072621976435 6.0490491415182825 a28.24924829008972,28.24924829008972 0 0,0 -0.40694302312815445,0.26377555104554834 l -3.8906439665912713 -6.116738534267726" fill="#ff5708" stroke="none" /><path d="M 111.27062007382361 117.71928675628689 l 2.662387445282636 4.185715274784928 a25.960697458056323,25.960697458056323 0 0,0 -0.37808154877672806,0.23595084922712278 l -2.590141767716193 -4.230801920853598" fill="#ff3705" stroke="none" /><path d="M 110.96478420261333 117.91015095944535 l 1.5160931296857543 2.4764241885196534 a23.903655478765614,23.903655478765614 0 0,0 -0.351801757477277,0.21124684727960322 l -1.4733586156510408 -2.50208503633518" fill="#ff1a02" stroke="none" /><line stroke="#e1ed5e" stroke-width="0.3" x1="143.1302829299769" x2="145.66735839644613" y1="173.24464959558577" y2="177.55315839532614" /><path d="M 143.63769802327073 174.10635135553383 a86.0,86.0 0 0,1 -40.68552437913181,11.842963189579606" fill="none" id="id54" stroke="none" /><text fill="#e1ed5e" style="font-size:6.75px; font-family:Arial;" text-anchor="middle"><textPath startOffset="21.407464694133747" xlink:href="#id54">June</textPath></text><path d="M 110.65571695917076 118.09573695890943 l 5.249671356286347 8.915089650755116 a31.345910923162556,31.345910923162556 0 0,0 -0.46602045199944564,0.269057033409752 l -5.095858436426503 -9.003893581441039" fill="#ff810b" stroke="none" /><path d="M 110.34350942703117 118.27599006163325 l 15.965215501136022 28.209006033104487 a53.413517664293074,53.413517664293074 0 0,0 -0.8018534226045477,0.44477457668643855 l -15.47861789037538 -28.47891352522407" fill="#74ff27" stroke="none" /><path d="M 110.02825361518725 118.45085714620011 l 3.024892143586968 5.565460843497427 a27.33437659764852,27.33437659764852 0 0,0 -0.41419544508924044,0.22053574485879804 l -2.928907882711174 -5.616567056078794" fill="#ff4a06" stroke="none" /><path d="M 109.71004243097381 118.62028667847754 l 5.584514902279981 10.709043671012537 a33.07768285067301,33.07768285067301 0 0,0 -0.5057306443877416,0.25822967049788714 l -5.399857036178657 -10.80333129318326" fill="#ff980e" stroke="none" /><path d="M 109.3889696526874 118.78422872680471 l 1.302686058543424 2.606244751882373 a23.913675114668383,23.913675114668383 0 0,0 -0.3687713613505744,0.18038455220514132 l -1.25775444793078 -2.628223054184738" fill="#ff1a02" stroke="none" /><path d="M 109.06512990194946 118.94263497670748 l 1.2027294133033004 2.5132418948629187 a23.786205818621276,23.786205818621276 0 0,0 -0.36983165018833786,0.17309988618288596 l -1.1594090492434563 -2.5335180126163386" fill="#ff1802" stroke="none" /><path d="M 108.73861861582097 119.09545874513695 l 3.5836304084933532 7.830879184876088 a29.61191475299215,29.61191475299215 0 0,0 -0.46404210766625925,0.2075601323817958 l -3.448674897971467 -7.891243068167734" fill="#ff6a09" stroke="none" /><path d="M 108.4095320186766 119.2426549942271 l 5.39569996377509 12.346417449234833 a34.473960142803335,34.473960142803335 0 0,0 -0.5443026668250543,0.2323304422303804 l -5.182962221779605 -12.437222541124617" fill="#ffab0f" stroke="none" /><path d="M 108.07796709384702 119.3841803445677 l 7.1882844812704905 17.24926595196689 a39.68712416786913,39.68712416786913 0 0,0 -0.6311113363829015,0.25666748627221986 l -6.891118683697147 -17.370120694818404" fill="#ffed16" stroke="none" /><path d="M 107.407793817531 119.65005319985036 l 2.2854777291213004 6.062501207582894 a27.478991383097643,27.478991383097643 0 0,0 -0.44281851360204794,0.1626090918701996 l -2.1810700638651257 -6.100841148461815" fill="#ff4c07" stroke="none" /><path d="M 107.06938296918513 119.77432235084164 l 1.460653298996616 4.085707239667157 a25.338952835436025,25.338952835436025 0 0,0 -0.4108460563280664,0.14291358528093343 l -1.3903014706235277 -4.110179257516681" fill="#ff2e04" stroke="none" /><path d="M 106.72888874123015 119.89276391827305 l 2.1502593012868214 6.356859548215632 a27.71068389797275,27.71068389797275 0 0,0 -0.45191805520412953,0.1485544409787464 l -2.040818508434958 -6.392834910596398" fill="#ff5007" stroke="none" /><path d="M 106.38641147887787 120.00534299687104 l 2.9912804645653575 9.37014345088584 a30.836022931442827,30.836022931442827 0 0,0 -0.5056511114965586,0.15665200689518485 l -2.8299887201971745 -9.420112045587668" fill="#ff7a0b" stroke="none" /><path d="M 106.0420521117495 120.11202640906438 l 2.8704380719925737 9.554754782275857 a30.97661032989501,30.97661032989501 0 0,0 -0.5105830245737929,0.14862327713669868 l -2.705995035037174 -9.602621753715075" fill="#ff7c0b" stroke="none" /><path d="M 105.3480935250658 120.30758222061773 l 4.4698481545366695 16.972741498721817 a38.55145283180423,38.55145283180423 0 0,0 -0.6414130265668173,0.16304468312715314 l -4.177829834744455 -17.04697141368424" fill="#ffdf14" stroke="none" /><path d="M 104.9986988182912 120.39639698878246 l 1.842671501826872 7.518728540645474 a28.741234858313092,28.741234858313092 0 0,0 -0.48020834159964876,0.11332786107799352 l -1.7133310064873442 -7.549252545369693" fill="#ff5e08" stroke="none" /><path d="M 104.64783097203109 120.47920084513623 l 0.6112715230637821 2.6933751177842544 a23.761869366933936,23.761869366933936 0 0,0 -0.39856302106764735,0.08686495539602732 l -0.564946085376999 -2.7034715313140008" fill="#ff1802" stroke="none" /><path d="M 104.29559338865022 120.5559693870025 l 0.5789239820977637 2.7703608271784335 a23.830203542117193,23.830203542117193 0 0,0 -0.4011457477452869,0.08024038429094868 l -0.5312817488215182 -2.779890608132243" fill="#ff1802" stroke="none" /><path d="M 103.94208987418118 120.62667999033965 l 1.6499449125900536 8.633208983027828 a29.789460481691364,29.789460481691364 0 0,0 -0.5031089018623486,0.09168320135862824 l -1.5015012771766478 -8.660260358317819" fill="#ff6c0a" stroke="none" /><path d="M 103.58742460773223 120.69131181640829 l 0.9227674370051651 5.32227736074193 a26.401679002630864,26.401679002630864 0 0,0 -0.4472224370670059,0.07359028183127687 l -0.8312674968850868 -5.337333641068878" fill="#ff3d05" stroke="none" /><path d="M 102.875027216393 120.80226474461374 l 0.36917812182085824 2.671188983620043 a23.69657988419484,23.69657988419484 0 0,0 -0.40343108828269414,0.05223223134996262 l -0.3232692116473887 -2.6771328111704005" fill="#ff1702" stroke="none" /><path d="M 102.51750503828377 120.84855314841334 l 0.7290135151111973 6.037277695407836 a27.08113333817667,27.08113333817667 0 0,0 -0.46200941995382866,0.051769119165258094 l -0.6252681935565694 -6.0489025750800645" fill="#ff4706" stroke="none" /><path d="M 102.15924093988457 120.88869738790638 l 0.7236336198859974 7.000498844895913 a28.037800060616835,28.037800060616835 0 0,0 -0.4791799373085251,0.04537883826462001 l -0.603354119192457 -7.011889438665717" fill="#ff5407" stroke="none" /><path d="M 101.80034050326958 120.92268563240118 l 0.5161893048867342 5.998902170638797 a27.021069560416514,27.021069560416514 0 0,0 -0.4624861997308945,0.03579935682632245 l -0.4131341103806039 -6.006879294460172" fill="#ff4606" stroke="none" /><path d="M 101.44090949804482 120.95050786540614 l 0.7533621406385358 10.953720184621853 a31.979596549871022,31.979596549871022 0 0,0 -0.5480018302379153,0.03296642929852473 l -0.5652159582681554 -10.965038591745069" fill="#ff8a0c" stroke="none" /><path d="M 101.08105385017728 120.97215588758144 l 0.21434912121167718 4.1583156876784555 a25.16383656069219,25.16383656069219 0 0,0 -0.43158884255296887,0.01853428191171812 l -0.14293451805787874 -4.161382538016004" fill="#ff2c04" stroke="none" /><path d="M 100.72087961077811 120.9876233191556 l 0.1440015767173577 4.19244878662361 a25.194921129480132,25.194921129480132 0 0,0 -0.4323768632429684,0.011136494250816928 l -0.07201139940364544 -4.194302998224472" fill="#ff2c04" stroke="none" /><line stroke="#e1ed5e" stroke-width="0.3" x1="101.45913802915013" x2="101.54496967792366" y1="184.9874750549273" y2="189.98673829345242" /><path d="M 101.47630435890484 185.9873277026323 a86.0,86.0 0 0,1 -42.54439059252881,-10.42667462771756" fill="none" id="id55" stroke="none" /><text fill="#e1ed5e" style="font-size:6.75px; font-family:Arial;" text-anchor="middle"><textPath startOffset="22.145653131862474" xlink:href="#id55">July</textPath></text><path d="M 100.36049292484886 120.99690560180557 l 0.04734425114672595 2.757565276857437 a23.75797167031253,23.75797167031253 0 0,0 -0.40783717599557784,0.003500791649526231 l -3.377541178187317e-16 -2.7579716703125285" fill="#ff1702" stroke="none" /><path d="M 100.0 121.0 l 5.193386458675748e-16 4.240721865513866 a25.240721865513866,25.240721865513866 0 0,0 -0.43329055479026046,-0.0037192782936609466 l 0.07279762994140777 -4.24009698541464" fill="#ff2d04" stroke="none" /><path d="M 99.63950707515114 120.99690560180557 l -0.097590071359615 5.6841324052905176 a26.68497009868141,26.68497009868141 0 0,0 -0.4579479970469089,-0.01179511595054731 l 0.19515138247726785 -5.6816195719899225" fill="#ff4106" stroke="none" /><path d="M 99.27912038922189 120.98762331915562 l -0.22918268949123616 6.6724039442886065 a27.676338749713093,27.676338749713093 0 0,0 -0.4746811551681641,-0.020384851230227426 l 0.343689605260239 -6.66748652463255" fill="#ff4f07" stroke="none" /><path d="M 98.91894614982273 120.97215588758144 l -0.36341381481186913 7.050130920569237 a28.05949117132124,28.05949117132124 0 0,0 -0.4808269702042718,-0.028925356528791833 l 0.4843851371485873 -7.042853586215753" fill="#ff5407" stroke="none" /><path d="M 98.55909050195518 120.95050786540614 l -0.2845915306749101 4.137898396757748 a25.14767350224463,25.14767350224463 0 0,0 -0.4304215983798069,-0.03331735389103644 l 0.35558212382995313 -4.132403275871658" fill="#ff2b04" stroke="none" /><path d="M 98.19965949673042 120.92268563240118 l -0.32986530700730066 3.833534882437622 a24.847700718043576,24.847700718043576 0 0,0 -0.42465955412306233,-0.04021570129232798 l 0.39562442451537827 -3.8273074256401105" fill="#ff2703" stroke="none" /><path d="M 97.84075906011543 120.88869738790638 l -0.29787732257238897 2.8816928833643924 a23.897047595973508,23.897047595973508 0 0,0 -0.4076882957797255,-0.04568232389852747 l 0.34730151995291375 -2.876154798958894" fill="#ff1902" stroke="none" /><path d="M 97.48249496171623 120.84855314841334 l -0.7510654212474958 6.219899112292799 a27.26508134297508,27.26508134297508 0 0,0 -0.4641843460983393,-0.060097956896792946 l 0.8577275892366291 -6.206089559195609" fill="#ff4906" stroke="none" /><path d="M 97.12497278360702 120.80226474461374 l -0.4026277038923806 2.9132134965989227 a23.940904953361766,23.940904953361766 0 0,0 -0.40662474980460767,-0.0597598353289854 l 0.4525775593046732 -2.905872587971055" fill="#ff1a02" stroke="none" /><path d="M 96.76829788921471 120.74984581791261 l -0.18962658323118864 1.2175386932765957 a22.23221699010102,22.23221699010102 0 0,0 -0.3765952257326114,-0.06196860108300954 l 0.21049931201686356 -1.2141040936979177" fill="#ff0100" stroke="none" /><path d="M 96.41257539226777 120.69131181640829 l -0.787495675405939 4.542065786909374 a25.609827659619796,25.609827659619796 0 0,0 -0.43251982621955054,-0.0788195203306781 l 0.8653502351765467 -4.52787809264733" fill="#ff3204" stroke="none" /><path d="M 96.05791012581884 120.62667999033965 l -1.0367400711540182 5.424662136932576 a26.52284249956545,26.52284249956545 0 0,0 -0.4464722874907264,-0.08930696168381771 l 1.1297088441757026 -5.406065778585897" fill="#ff3f05" stroke="none" /><path d="M 95.70440661134978 120.55596938700252 l -1.2136424377468054 5.807718408126526 a26.93317124940716,26.93317124940716 0 0,0 -0.45175595969876814,-0.09845810879294456 l 1.31316081406471 -5.786028841199863" fill="#ff4506" stroke="none" /><path d="M 95.35216902796893 120.47920084513623 l -0.6499073372470958 2.8636116438620727 a23.93643511657759,23.93643511657759 0 0,0 -0.3999297826904045,-0.09438233976259462 l 0.6989692736773883 -2.8520331604532507" fill="#ff1a02" stroke="none" /><path d="M 95.00130118170881 120.39639698878247 l -0.6638367768326352 2.7086805843327126 a23.78884022027375,23.78884022027375 0 0,0 -0.39579499301289833,-0.10060953947959925 l 0.7102370630709122 -2.6968858130178504" fill="#ff1802" stroke="none" /><path d="M 94.6519064749342 120.30758222061772 l -4.4132626290723325 16.757877041793716 a38.32926224572308,38.32926224572308 0 0,0 -0.6348395379768611,-0.17302833908162146 l 4.700283567983889 -16.679648208567947" fill="#ffdc14" stroke="none" /><path d="M 94.30408787586889 120.21278271476187 l -2.3628676431884355 8.384983689121594 a29.71154951579006,29.71154951579006 0 0,0 -0.4897312086437547,-0.1425536174170894 l 2.506458864213797 -8.34318637740199" fill="#ff6b09" stroke="none" /><path d="M 93.95794788825049 120.11202640906438 l -0.7882585249177969 2.6238562622602757 a23.739703120250084,23.739703120250084 0 0,0 -0.3892851972526011,-0.12060154920597238 l 0.8331843550420317 -2.6099381252476546" fill="#ff1702" stroke="none" /><path d="M 93.61358852112213 120.00534299687104 l -1.335576674105232 4.183674909213652 a25.39168541660236,25.39168541660236 0 0,0 -0.414098805142271,-0.1361225022976581 l 1.4071982168952466 -4.160131485513972" fill="#ff2f04" stroke="none" /><path d="M 92.93061703081489 119.77432235084164 l -0.9911559541127576 2.7724396064004604 a23.944284547476876,23.944284547476876 0 0,0 -0.38585741174984867,-0.14169218627659938 l 1.0386025175167253 -2.7550165711151418" fill="#ff1a02" stroke="none" /><path d="M 92.59220618246901 119.65005319985036 l -2.5648619888160824 6.8036011492701345 a28.27100444368063,28.27100444368063 0 0,0 -0.45264266005400705,-0.1750919047807169 l 2.681276911363618 -6.758569356351377" fill="#ff5708" stroke="none" /><path d="M 92.25597844496254 119.51999308798841 l -4.01828222210004 10.128696135918753 a31.89665441455407,31.89665441455407 0 0,0 -0.5072259735566934,-0.20628438771346894 l 4.191562656847174 -10.058224491625994" fill="#ff890c" stroke="none" /><path d="M 91.92203290615298 119.3841803445677 l -3.863441365065884 9.270852839713012 a31.043649314712106,31.043649314712106 0 0,0 -0.4901421548318103,-0.2092125402435827 l 4.0220185950681255 -9.203165649810025" fill="#ff7d0b" stroke="none" /><path d="M 91.59046798132341 119.24265499422711 l -1.1245672991378282 2.573230056921105 a23.808231567398305,23.808231567398305 0 0,0 -0.373093805263817,-0.16688011353288645 l 1.1685745072572804 -2.5535461924783633" fill="#ff1802" stroke="none" /><path d="M 90.93487009805054 118.94263497670748 l -2.6420673630530436 5.520904629444206 a27.120531666312047,27.120531666312047 0 0,0 -0.4182241054618403,-0.20457436745857396 l 2.7364517177769536 -5.474736511888411" fill="#ff4706" stroke="none" /><path d="M 90.6110303473126 118.78422872680471 l -1.3087153091032968 2.6183072918369503 a23.927160541338292,23.927160541338292 0 0,0 -0.3658266624529824,-0.18679370046666133 l 1.3534691932698615 -2.5954556396974526" fill="#ff1a02" stroke="none" /><path d="M 90.28995756902619 118.62028667847754 l -3.84208221377985 7.367699242451784 a29.309307303540294,29.309307303540294 0 0,0 -0.4441213993111966,-0.2364696298959144 l 3.9679924288776083 -7.300659144833297" fill="#ff6609" stroke="none" /><path d="M 89.97174638481275 118.45085714620012 l -1.384047460477624 2.546491438764521 a23.89831089094244,23.89831089094244 0 0,0 -0.3587657810296149,-0.1990013310272068 l 1.4275574296633418 -2.522357192304166" fill="#ff1902" stroke="none" /><line stroke="#e1ed5e" stroke-width="0.3" x1="58.13341422392154" x2="55.67067388415222" y1="173.97424548756322" y2="178.32567169271397" /><path d="M 57.64086615596768 174.84453072859336 a86.0,86.0 0 0,1 -31.369924170532247,-30.572349798747897" fill="none" id="id56" stroke="none" /><text fill="#e1ed5e" style="font-size:6.75px; font-family:Arial;" text-anchor="middle"><textPath startOffset="22.145653131862474" xlink:href="#id56">August</textPath></text><path d="M 89.65649057296885 118.27599006163327 l -6.430552207065369 11.362169586272918 a34.05568456248153,34.05568456248153 0 0,0 -0.5063067253608116,-0.29231632417958464 l 6.62465140028658 -11.250106364817162" fill="#ffa50f" stroke="none" /><path d="M 89.34428304082925 118.09573695890944 l -2.2282979210462783 3.784137022392926 a25.391469529574806,25.391469529574806 0 0,0 -0.37369864259341734,-0.22439529764323363 l 2.292929320197123 -3.7453277242137735" fill="#ff2f04" stroke="none" /><path d="M 89.03521579738668 117.91015095944536 l -4.477844873226335 7.314223077308506 a29.57606867587426,29.57606867587426 0 0,0 -0.4307344157362522,-0.2688101323990668 l 4.6027434177523 -7.236277148067892" fill="#ff6909" stroke="none" /><path d="M 88.4268655584334 117.5232005979908 l -4.389472293180635 6.646220511918202 a28.964905153587374,28.964905153587374 0 0,0 -0.4125481260169597,-0.2775807906220967 l 4.502916707294601 -6.569890047238984" fill="#ff6108" stroke="none" /><path d="M 88.1277618465304 117.32195027204791 l -4.890839279225883 7.135880672893243 a29.651075183639897,29.651075183639897 0 0,0 -0.41738111315522375,-0.29136443243314186 l 5.012615483554872 -7.0508714246549715" fill="#ff6a09" stroke="none" /><path d="M 87.83215693770417 117.11559508785305 l -1.6538617943249114 2.32636373250481 a23.85433478250911,23.85433478250911 0 0,0 -0.33171041625665515,-0.24013276059195626 l 1.6935532209555204 -2.297630200539788" fill="#ff1902" stroke="none" /><path d="M 87.54013794807813 116.9041958592261 l -4.948693146402998 6.713852677133212 a29.34058640789152,29.34058640789152 0 0,0 -0.4028700187771864,-0.30232117274208525 l 5.06321615409095 -6.627912477127111" fill="#ff6609" stroke="none" /><path d="M 87.2517909369889 116.68781488649013 l -5.733520848373748 7.505362839013048 a30.444772769313957,30.444772769313957 0 0,0 -0.412584741332712,-0.3208283903568139 l 5.861515534341688 -7.405833397035441" fill="#ff750a" stroke="none" /><path d="M 86.96720088162412 116.46651593811092 l -4.7867679994309285 6.047924995907653 a28.71301138573648,28.71301138573648 0 0,0 -0.3838645632060053,-0.309214119772073 l 4.889883332992196 -5.964862582342169" fill="#ff5d08" stroke="none" /><path d="M 86.68645165197938 116.24036423190432 l -6.88649777998144 8.400407562701101 a31.862352364620435,31.862352364620435 0 0,0 -0.420015090881164,-0.3503915271674239 l 7.029687205024496 -8.280953851621808" fill="#ff880c" stroke="none" /><path d="M 86.40962598614128 116.0094264158162 l -4.354685465138031 5.1298085282317505 a27.72890934970918,27.72890934970918 0 0,0 -0.3602388321140992,-0.31116572326727565 l 4.442103777014993 -5.054298672499753" fill="#ff5007" stroke="none" /><path d="M 86.13680546590413 115.77377054828092 l -14.508595903116271 16.50811883153094 a42.977655526371976,42.977655526371976 0 0,0 -0.5499809097654275,-0.49179632086282593 l 14.789841839705069 -16.25662698078473" fill="#e9ff1a" stroke="none" /><path d="M 85.86807049272751 115.53346607816431 l -6.049487122850551 6.649446062176632 a29.989517639080027,29.989517639080027 0 0,0 -0.37782540666453407,-0.34970955580289265 l 6.162742300829053 -6.544618760241362" fill="#ff6f0a" stroke="none" /><path d="M 85.60350026404147 115.28858382429668 l -4.605511849615152 4.890893985206945 a27.71800441883444,27.71800441883444 0 0,0 -0.34360758033949523,-0.32916828924731295 l 4.688791915819962 -4.81111356565405" fill="#ff5007" stroke="none" /><path d="M 85.34317274990678 115.03919595460226 l -1.9617145111081262 2.012891906012897 a23.8107041196797,23.8107041196797 0 0,0 -0.29027298295394244,-0.28779203219550087 l 1.995979414192031 -1.9789198635887368" fill="#ff1802" stroke="none" /><path d="M 85.08716467003676 114.78537596483092 l -7.357052853702589 7.294172437924526 a31.360076169910684,31.360076169910684 0 0,0 -0.3757432895840713,-0.3855457162903925 l 7.48118294443747 -7.1668040295663955" fill="#ff810b" stroke="none" /><path d="M 84.83555147118756 114.52719865689866 l -1.273954714592156 1.2204197985577658 a22.76419531218722,22.76419531218722 0 0,0 -0.2679065748140766,-0.28450749843691137 l 1.2947171231424854 -1.1983708401763644" fill="#ff0901" stroke="none" /><path d="M 84.58840730492382 114.26474011684316 l -5.986599828503186 5.541107426516606 a29.157404551622523,29.157404551622523 0 0,0 -0.3368406372241458,-0.3702468661038748 l 6.080838166569211 -5.4375229848550575" fill="#ff6409" stroke="none" /><path d="M 84.3458050057657 113.99807769240083 l -7.241172120592975 6.475100761517329 a30.713984947067566,30.713984947067566 0 0,0 -0.34807564757830545,-0.3960461915787829 l 7.351258832129873 -6.349842292127246" fill="#ff790b" stroke="none" /><path d="M 84.1078160697243 113.72728997021213 l -1.9194210552352293 1.6579501921034854 a23.536331213934076,23.536331213934076 0 0,0 -0.2614835251099081,-0.30802693508849943 l 1.9475991438522497 -1.6247564745654315" fill="#ff1402" stroke="none" /><path d="M 83.8745106332314 113.45245675266167 l -2.220183840417637 1.85215632325096 a23.891314464220404,23.891314464220404 0 0,0 -0.26002075777941436,-0.31718304570706607 l 2.251651417435681 -1.8137709958453987" fill="#ff1902" stroke="none" /><path d="M 83.64595745247003 113.17365903436017 l -2.2532909957215947 1.8150917240528734 a23.893419824036126,23.893419824036126 0 0,0 -0.25456000482910823,-0.321628250282315 l 2.2841174311922643 -1.7761435298558779" fill="#ff1902" stroke="none" /><path d="M 83.4222238831116 112.89097897827486 l -8.848577015060428 6.880707007050593 a32.20898943296544,32.20898943296544 0 0,0 -0.3356606499438519,-0.4393905656281142 l 8.965389642358575 -6.727795528181609" fill="#ff8d0d" stroke="none" /><path d="M 82.98947788004972 112.3143062007846 l -7.9999142194987485 5.791320959124463 a30.876134161246117,30.876134161246117 0 0,0 -0.3071218210498863,-0.43200530322603603 l 8.098151139078595 -5.653138429188924" fill="#ff7b0b" stroke="none" /><path d="M 82.78059297857968 112.02048342749411 l -9.10469168325674 6.355781900903336 a32.10366490033876,32.10366490033876 0 0,0 -0.3115741139300312,-0.4545959437291209 l 9.212455534002098 -6.1985512221041645" fill="#ff8b0c" stroke="none" /><path d="M 82.576782715395 111.72311816256416 l -3.9629887430719273 2.666475688907021 a25.776543978364167,25.776543978364167 0 0,0 -0.24386520655171737,-0.3692430045509549 l 4.008178388544371 -2.5980528060170047" fill="#ff3405" stroke="none" /><path d="M 82.37810715431573 111.42229804090323 l -8.404448697005941 5.4476621057307835 a31.01557688397528,31.01557688397528 0 0,0 -0.2857602576698203,-0.4492625885741699 l 8.496726646301651 -5.302585842477941" fill="#ff7d0b" stroke="none" /><path d="M 82.18462484594161 111.11811171558189 l -5.499949864082376 3.432375489720598 a27.483104966746602,27.483104966746602 0 0,0 -0.24634289480840432,-0.4023826052822581 l 5.558060723346185 -3.3374557683137827" fill="#ff4c07" stroke="none" /><path d="M 81.99639281039703 110.81064883170644 l -54.01082156880893 32.43194649511935 a84.0,84.0 0 0,0 -0.7317051594809199,-1.2425953268257648 l 54.559600438419615 -31.50000000000003" fill="#4dd2ff" stroke="none" /><line stroke="#e1ed5e" stroke-width="0.3" x1="26.387840678322732" x2="22.057713659400548" y1="142.50000000000003" y2="145.00000000000006" /><path d="M 25.521815274538298 143.00000000000003 a86.0,86.0 0 0,1 -11.493303480769221,-40.785679425670985" fill="none" id="id57" stroke="none" /><text fill="#e1ed5e" style="font-size:6.75px; font-family:Arial;" text-anchor="middle"><textPath startOffset="21.40746469413373" xlink:href="#id57">September</textPath></text><path d="M 81.4637452351635 109.86951160357371 l -1.2924478373990818 0.6881556760010635 a22.464233467316618,22.464233467316618 0 0,0 -0.1783145931268847,-0.3419417439812056 l 1.3040704995009158 -0.6658676889153552" fill="#ff0500" stroke="none" /><line stroke="#e1ed5e" stroke-width="0.3" x1="15.003131293944662" x2="10.003315487706104" y1="100.72959589197737" y2="100.7725132973878" /><path d="M 14.003168132696942 100.73817937305945 a86.0,86.0 0 0,1 10.791469493833604,-42.45332614584628" fill="none" id="id58" stroke="none" /><text fill="#e1ed5e" style="font-size:6.75px; font-family:Arial;" text-anchor="middle"><textPath startOffset="22.145653131862435" xlink:href="#id58">October</textPath></text><line stroke="#e1ed5e" stroke-width="0.3" x1="26.387840678322718" x2="22.05771365940052" y1="57.49999999999999" y2="54.99999999999999" /><path d="M 25.521815274538284 56.99999999999999 a86.0,86.0 0 0,1 29.574782752854787,-30.34633250058573" fill="none" id="id59" stroke="none" /><text fill="#e1ed5e" style="font-size:6.75px; font-family:Arial;" text-anchor="middle"><textPath startOffset="21.40746469413373" xlink:href="#id59">November</textPath></text><line stroke="#e1ed5e" stroke-width="0.3" x1="56.869717070023135" x2="54.33264160355391" y1="26.7553504044142" y2="22.446841604673864" /><path d="M 56.362301976729285 25.89364864446614 a86.0,86.0 0 0,1 42.16139366436587,-11.88097634709845" fill="none" id="id60" stroke="none" /><text fill="#e1ed5e" style="font-size:6.75px; font-family:Arial;" text-anchor="middle"><textPath startOffset="22.145653131862474" xlink:href="#id60">December</textPath></text></svg>