<?xml version="1.0" encoding="utf-8" ?>
<svg baseProfile="full" height="200mm" version="1.1" viewBox="0,0,200,200" width="200mm" xmlns="http://www.w3.org/2000/svg" xmlns:ev="http://www.w3.org/2001/xml-events" xmlns:xlink="http://www.w3.org/1999/xlink"><defs /><rect fill="#1a1a1a" height="200" width="200" x="0" y="0" /><text alignment-baseline="middle" fill="#e1ed5e" style="dominant-baseline: central; font-size:9.0px; font-family:Arial;" text-anchor="middle" x="100.0" y="100.0">2024</text><line stroke="#e1ed5e" stroke-width="0.3" x1="100.0" x2="100.0" y1="15.0" y2="10.0" /><path d="M 100.0 14.0 a86.0,86.0 0 0,1 42.35913384403234,11.155469271406648" fill="none" id="id49" stroke="none" /><text fill="#e1ed5e" style="font-size:6.75px; font-family:Arial;" text-anchor="middle"><textPath startOffset="22.145653131862478" xlink:href="#id49">January</textPath></text><line stroke="#e1ed5e" stroke-width="0.3" x1="143.13028292997686" x2="145.6673583964461" y1="26.7553504044142" y2="22.446841604673864" /><path d="M 143.63769802327073 25.89364864446614 a86.0,86.0 0 0,1 29.32050498858742,28.57503671076993" fill="none" id="id50" stroke="none" /><text fill="#e1ed5e" style="font-size:6.75px; font-family:Arial;" text-anchor="middle"><textPath startOffset="20.669276256404974" xlink:href="#id50">February</textPath></text><line stroke="#e1ed5e" stroke-width="0.3" x1="172.87174338648825" x2="177.1583165268699" y1="56.24261187166439" y2="53.66864786411523" /><path d="M 173.72905801456457 55.72781907015455 a86.0,86.0 0 0,1 12.242430191666344,42.057860355516425" fill="none" id="id51" stroke="none" /><text fill="#e1ed5e" style="font-size:6.75px; font-family:Arial;" text-anchor="middle"><textPath startOffset="22.145653131862474" xlink:href="#id51">March</textPath></text><path d="M 120.16314734710363 94.1308016681162 l 9.967415905456402 -2.9013695034024627 a31.381104220053814,31.381104220053814 0 0,0 0.1461186519524552,0.5185235477872566 l -10.015753049483438 2.729838031712193" fill="#ff770b" stroke="none" /><path d="M 120.26092885502905 94.47779374421319 l 18.546994858987148 -5.05506592363965 a40.2235457133079,40.2235457133079 0 0,0 0.17585450551492687,0.6677482009005277 l -18.631038845306804 4.735937218366323" fill="#ffeb16" stroke="none" /><path d="M 120.35273937422433 94.82641323984039 l 13.194626294700567 -3.354022406928127 a34.61424362067095,34.61424362067095 0 0,0 0.14144446965987914,0.5771417042559209 l -13.250258290876738 3.127024878064111" fill="#ffa30f" stroke="none" /><path d="M 120.43855184770803 95.1765574152323 l 2.066206228477202 -0.48761904393274397 a23.12296502811607,23.12296502811607 0 0,0 0.08785530751550434,0.38710669530543945 l -2.0742723975503727 0.45207801468827824" fill="#ff0100" stroke="none" /><path d="M 120.51834098615036 95.52812308129327 l 11.246742999562114 -2.4511752906492887 a32.51075533593209,32.51075533593209 0 0,0 0.11416273910955066,0.5463100340159852 l -11.287163449496033 2.2577488053478993" fill="#ff860c" stroke="none" /><path d="M 120.77682067341334 96.94652285012252 l 3.546983265680284 -0.5212843929779775 a24.585084058342062,24.585084058342062 0 0,0 0.057781367106200465,0.41807718862464943 l -3.555409149341697 0.4603188961532424" fill="#ff1602" stroke="none" /><path d="M 120.82617615685814 97.30363454192243 l 4.714765951685709 -0.6104208453484739 a25.754117330021504,25.754117330021504 0 0,0 0.05300186767749385,0.43893149703195267 l -4.724549905622867 0.5293956713931083" fill="#ff2703" stroke="none" /><path d="M 120.86939407059847 97.66154086499901 l 7.017570543409354 -0.7863334166404394 a28.06148826904443,28.06148826904443 0 0,0 0.049532011120822415,0.4791772757757097 l -7.030034947011842 0.6657516185817983" fill="#ff4906" stroke="none" /><path d="M 120.9064616781168 98.02013634271609 l 2.513097732724603 -0.2379929681468813 a23.52434167004249,23.52434167004249 0 0,0 0.0346215323543615,0.40235468582013956 l -2.5168128877767053 0.19481723495107975" fill="#ff0701" stroke="none" /><path d="M 120.93736805541906 98.37931529534042 l 10.023831705122571 -0.77590796911884 a31.053816948262117,31.053816948262117 0 0,0 0.036578496285959085,0.5318433081214313 l -10.035674162573596 0.6037212368430745" fill="#ff730a" stroke="none" /><path d="M 120.96210409425399 98.7389718711861 l 23.900254662943585 -1.4377799709547858 a44.94346224334391,44.94346224334391 0 0,0 0.03971805826452389,0.770519719567225 l -23.92141431066468 1.0272884580108301" fill="#d9ff1c" stroke="none" /><path d="M 120.98066250479742 99.09900007780936 l 20.5521399008682 -0.8825973177586381 a41.57108243457727,41.57108243457727 0 0,0 0.024497864619415347,0.7132285988793687 l -20.564262452484463 0.5296624543151495" fill="#fffc17" stroke="none" /><path d="M 120.99303781780057 99.45929381324524 l 5.252693907202876 -0.135290762461514 a26.254435923405445,26.254435923405445 0 0,0 0.007737017740496878,0.45064249514685834 l -5.254242356542039 0.04510135134558926" fill="#ff2f04" stroke="none" /><line stroke="#e1ed5e" stroke-width="0.3" x1="184.99686870605535" x2="189.99668451229388" y1="99.2704041080226" y2="99.22748670261217" /><path d="M 185.99683186730306 99.26182062694052 a86.0,86.0 0 0,1 -10.086455211305974,41.156179273409016" fill="none" id="id52" stroke="none" /><text fill="#e1ed5e" style="font-size:6.75px; font-family:Arial;" text-anchor="middle"><textPath startOffset="21.40746469413373" xlink:href="#id52">April</textPath></text><path d="M 120.99922638620191 99.81974689727618 l 2.4890166121996375 -0.02136521407164481 a23.489108307844013,23.489108307844013 0 0,0 0.0,0.4032366335909431 l -2.4890166121996375 -0.021365214071644507" fill="#ff0601" stroke="none" /><path d="M 120.99922638620191 100.18025310272382 l 6.228394085785302 0.05346327232736617 a27.22862354050502,27.22862354050502 0 0,0 -0.008024104726405915,0.4673638728139136 l -6.226558549460228 -0.16037406111035085" fill="#ff3d05" stroke="none" /><path d="M 120.99303781780057 100.54070618675476 l 18.958373353626616 0.4883004476093673 a39.964660754746845,39.964660754746845 0 0,0 -0.02355119932880309,0.6856674718455156 l -18.947197467300967 -0.8136741840189936" fill="#ffe815" stroke="none" /><path d="M 120.98066250479742 100.90099992219065 l 4.880054927697163 0.20957055617933007 a25.884552785604704,25.884552785604704 0 0,0 -0.022875055110869884,0.4437699580307911 l -4.87573828312972 -0.2933123075868518" fill="#ff2904" stroke="none" /><path d="M 120.96210409425399 101.26102812881392 l 27.288690657332896 1.6416198661484072 a48.338023951568644,48.338023951568644 0 0,0 -0.05693767798428418,0.8278613417888814 l -27.256489018183547 -2.109824632091632" fill="#b1ff20" stroke="none" /><path d="M 120.93736805541906 101.62068470465957 l 5.884532157624727 0.455500005382548 a26.902135119515904,26.902135119515904 0 0,0 -0.039592739916196024,0.4601276531231556 l -5.87584579501079 -0.556448705881361" fill="#ff3805" stroke="none" /><path d="M 120.9064616781168 101.97986365728391 l 11.739572372912022 1.1117497093021445 a32.79209679891463,32.79209679891463 0 0,0 -0.05788212256406581,0.559957029378626 l -11.71875785786629 -1.313111260963702" fill="#ff8a0c" stroke="none" /><path d="M 120.86939407059847 102.33845913500097 l 24.45782766300928 2.7405506037868217 a45.61089091449918,45.61089091449918 0 0,0 -0.09386702615060553,0.7773536314026624 l -24.40717855059901 -3.1599979121128925" fill="#d1ff1c" stroke="none" /><path d="M 120.82617615685814 102.69636545807757 l 24.893910522451044 3.2230151105826956 a46.10168535184128,46.10168535184128 0 0,0 -0.10835099848379574,0.7839738500392094 l -24.83491500741204 -3.64987726882199" fill="#cbff1d" stroke="none" /><path d="M 120.77682067341334 103.0534771498775 l 19.037031753176606 2.79778809152455 a40.24152270940455,40.24152270940455 0 0,0 -0.1063114111429422,0.6825955221982768 l -18.986198849895395 -3.1241717956542776" fill="#ffec16" stroke="none" /><path d="M 120.7213421655516 103.40968896794604 l 26.34936280410801 4.3357776223074636 a47.70370550640141,47.70370550640141 0 0,0 -0.13989720999563987,0.8068899310180139 l -26.27105077662014 -4.787460586246065" fill="#b8ff1f" stroke="none" /><path d="M 120.65975698304385 103.76489593502545 l 23.33414099116452 4.252257789723662 a44.718428112035795,44.718428112035795 0 0,0 -0.14410770636453257,0.754032413819714 l -23.25770699251783 -4.652192768576691" fill="#dcff1b" stroke="none" /><path d="M 120.592083275326 104.11899336999214 l 7.955005672036337 1.5912239273347029 a29.112589526720352,29.112589526720352 0 0,0 -0.1022299521681424,0.48920732878382434 l -7.926518009043829 -1.7275477074039363" fill="#ff5708" stroke="none" /><path d="M 120.51834098615036 104.47187691870673 l 26.575407133233558 5.791986293850857 a48.19925310601887,48.19925310601887 0 0,0 -0.1831322323282538,0.80691440580283 l -26.47206403934764 -6.247335033592704" fill="#b3ff20" stroke="none" /><path d="M 120.43855184770803 104.8234425847677 l 11.29729554142143 2.6661309868345286 a32.60763287622329,32.60763287622329 0 0,0 -0.13324483959796526,0.5436844154727155 l -11.24986317530717 -2.859671226915344" fill="#ff880c" stroke="none" /><path d="M 120.35273937422433 105.17358676015961 l 9.57684487355296 2.434396516896601 a30.881409015599743,30.881409015599743 0 0,0 -0.13501134262874742,0.5126600588226452 l -9.53364405011948 -2.5984370800920495" fill="#ff700a" stroke="none" /><path d="M 120.26092885502905 105.52220625578681 l 22.337948267838787 6.088307132843169 a44.15278420753044,44.15278420753044 0 0,0 -0.20558694375800043,0.7295555360777831 l -22.230142832006205 -6.47087059282396" fill="#e2ff1b" stroke="none" /><path d="M 120.16314734710363 105.8691983318838 l 9.901832799045389 2.88227921694465 a31.31279914788813,31.31279914788813 0 0,0 -0.15466089326696028,0.5148158129562956 l -9.850895585774799 -3.051832633491669" fill="#ff760a" stroke="none" /><path d="M 120.05942366710727 106.21446072829308 l 12.95003426509587 4.011953718413758 a34.55725488828218,34.55725488828218 0 0,0 -0.18041402198260315,0.5651443542502814 l -12.879255527336012 -4.233667106355423" fill="#ffa20f" stroke="none" /><path d="M 119.94978838288452 106.5578916946017 l 34.832516918020204 11.450140172651263 a57.66619621419061,57.66619621419061 0 0,0 -0.31720411167654816,0.9377575926947905 l -34.630827384771294 -12.046399439820215" fill="#4cff2c" stroke="none" /><path d="M 119.83427380445688 106.89939002012753 l 1.9701475973713076 0.6853196041101055 a23.085939719935734,23.085939719935734 0 0,0 -0.13341455803748464,0.3731842635245429 l -1.9580928692898798 -0.71903882401557" fill="#ff0000" stroke="none" /><path d="M 119.71291397450082 107.23885506374661 l 4.6915320859370615 1.7227955664466978 a25.997849325174315,25.997849325174315 0 0,0 -0.15743470099893447,0.41761424876734177 l -4.661266701123687 -1.8030780954081984" fill="#ff2b04" stroke="none" /><path d="M 119.58574465831526 107.57618678355244 l 16.47408585928697 6.3725303140439395 a38.66365328867638,38.66365328867638 0 0,0 -0.24476177613557135,0.6169595660877567 l -16.362265408185273 -6.654390897345261" fill="#ffd814" stroke="none" /><path d="M 119.4528033332814 107.91128576633889 l 2.4660940425446323 1.002938978150119 a23.662237108254434,23.662237108254434 0 0,0 -0.15625432130307698,0.3749534887390144 l -2.4485138767050696 -1.0451249763304111" fill="#ff0901" stroke="none" /><path d="M 119.31412917781788 108.2440532568976 l 10.856699649777696 4.63407950122352 a32.8043475088267,32.8043475088267 0 0,0 -0.22551601441979685,0.5160247742104637 l -10.775549753340933 -4.819766345209828" fill="#ff8a0c" stroke="none" /><path d="M 119.16976305983485 108.57439118712176 l 4.8265546593791555 2.1588565078434856 a26.287370925273997,26.287370925273997 0 0,0 -0.18778638175755324,0.410347134186384 l -4.788783812766546 -2.2413926242445585" fill="#ff2f04" stroke="none" /><path d="M 119.0197475246899 108.90220220490707 l 26.252958750635667 12.28771028489526 a49.98630137164965,49.98630137164965 0 0,0 -0.3704240624426471,0.7740438225745921 l -26.038155430233108 -12.736566609534956" fill="#9eff22" stroke="none" /><path d="M 118.8641267826498 109.22738970284198 l 9.524134891208236 4.658731635775617 a31.60249620986052,31.60249620986052 0 0,0 -0.24255681342053423,0.4852761092088562 l -9.44275816457597 -4.82153960114822" fill="#ff7a0b" stroke="none" /><path d="M 118.70294669586154 109.54985784667822 l 1.8413801745402545 0.9402218374734519 a23.067534292545556,23.067534292545556 0 0,0 -0.1831034207243332,0.35112495232990004 l -1.824968684840972 -0.9716930329078548" fill="#ff0000" stroke="none" /><path d="M 118.5362547648365 109.86951160357373 l 15.374510860162928 8.1860610602687 a38.418013086219545,38.418013086219545 0 0,0 -0.3149447433967361,0.579462854884261 l -15.231720767150852 -8.448778748627566" fill="#ffd413" stroke="none" /><line stroke="#e1ed5e" stroke-width="0.3" x1="174.33088141563837" x2="178.70328620479359" y1="141.23008692659167" y2="143.65538615756765" /><path d="M 175.20536237346943 141.71514677278685 a86.0,86.0 0 0,1 -30.301960400862466,31.631185727798858" fill="none" id="id53" stroke="none" /><text fill="#e1ed5e" style="font-size:6.75px; font-family:Arial;" text-anchor="middle"><textPath startOffset="22.145653131862474" xlink:href="#id53">May</textPath></text><path d="M 118.36410011445183 110.18625677009912 l 22.399587528951315 12.4246736127652 a46.61472302897096,46.61472302897096 0 0,0 -0.3941533099388017,0.6964311316211501 l -22.183000853991135 -12.807361514485473" fill="#c5ff1e" stroke="none" /><path d="M 118.18653347947321 110.5 l 13.205131494455328 7.623986223008185 a36.24797244601638,36.24797244601638 0 0,0 -0.31574795785086995,0.5362090615277427 l -13.072309826474692 -7.849546452829477" fill="#ffb811" stroke="none" /><path d="M 118.00360718960297 110.81064883170644 l 4.450253410123556 2.672249306613026 a26.190922054029528,26.190922054029528 0 0,0 -0.2347605033818958,0.3834636393375647 l -4.403724942286256 -2.7482500620751473" fill="#ff2e04" stroke="none" /><path d="M 117.81537515405839 111.11811171558189 l 18.844880756099016 11.76059935316036 a43.2135370406684,43.2135370406684 0 0,0 -0.39814547141136336,0.6259508112637151 l -18.640217593061763 -12.082363839102747" fill="#eeff19" stroke="none" /><path d="M 117.62189284568427 111.42229804090321 l 1.9027955020381628 1.2333690554980787 a23.267560351928232,23.267560351928232 0 0,0 -0.22012836227929503,0.33330239694382335 l -1.8813427008381411 -1.2658513307809631" fill="#ff0300" stroke="none" /><path d="M 117.423217284605 111.72311816256416 l 4.01743848111538 2.703111902677256 a25.84217161074885,25.84217161074885 0 0,0 -0.2508047522500181,0.36593162892360565 l -3.9704439920500416 -2.7716782666709054" fill="#ff2904" stroke="none" /><path d="M 117.21940702142032 112.02048342749411 l 10.188750885180124 7.11253941612628 a33.42573384336751,33.42573384336751 0 0,0 -0.3324824343064563,0.467678181768011 l -10.065153352343707 -7.286394824603795" fill="#ff930d" stroke="none" /><path d="M 117.01052211995028 112.31430620078461 l 4.031895503171331 2.918781413381062 a25.977495985693203,25.977495985693203 0 0,0 -0.26459685369566616,0.3589764493352969 l -3.9811966298918366 -2.987564171985236" fill="#ff2b04" stroke="none" /><path d="M 116.79662413953412 112.60449989151573 l 4.614406269387318 3.4627364903049624 a26.769167116685953,26.769167116685953 0 0,0 -0.27897044244566177,0.3651812642328824 l -4.554283849587351 -3.541438667778722" fill="#ff3605" stroke="none" /><path d="M 116.57777611688842 112.89097897827486 l 3.8117804622822002 2.9640635428186486 a25.828596377675705,25.828596377675705 0 0,0 -0.27517733614741985,0.34767757488792317 l -3.7603366954932187 -3.0290610616212543" fill="#ff2903" stroke="none" /><path d="M 116.1254893667686 113.45245675266167 l 26.0270593504722 21.712698594606955 a54.894676553896325,54.894676553896325 0 0,0 -0.609867927359169,0.71842288493801 l -25.65049685960592 -22.156288261994522" fill="#69ff28" stroke="none" /><path d="M 115.89218393027572 113.72728997021213 l 19.906762533456728 17.19498735125538 a47.30488138299181,47.30488138299181 0 0,0 -0.5360970661858826,0.6099800513384436 l -19.60865440331226 -17.534179680405117" fill="#bdff1f" stroke="none" /><path d="M 115.6541949942343 113.99807769240083 l 3.6113673987156454 3.229306996727988 a25.844625699434637,25.844625699434637 0 0,0 -0.29856979121732774,0.3281805022769402 l -3.555399906656438 -3.2908250745626" fill="#ff2904" stroke="none" /><path d="M 115.41159269507618 114.26474011684316 l 11.416718963449053 10.567144630850933 a36.55654259595296,36.55654259595296 0 0,0 -0.4302255353029378,0.45688460948621984 l -11.233637594409856 -10.76157070028165" fill="#ffbc11" stroke="none" /><path d="M 115.16444852881244 114.52719865689866 l 13.181090052082766 12.627186101575468 a39.253409648746064,39.253409648746064 0 0,0 -0.47031790321232236,0.4825876014416935 l -12.962385347719637 -12.851596395084899" fill="#ffdf14" stroke="none" /><path d="M 114.91283532996324 114.78537596483092 l 3.6834617704960197 3.6519793804361425 a26.186987951580033,26.186987951580033 0 0,0 -0.3192419287173214,0.31651338161962866 l -3.6202279216487336 -3.714672772284433" fill="#ff2e04" stroke="none" /><path d="M 114.65682725009322 115.03919595460226 l 9.460085944410787 9.706881567050441 a34.554216164440575,34.554216164440575 0 0,0 -0.4283530093791174,0.4103524932481106 l -9.292060449166359 -9.867846190604132" fill="#ffa20f" stroke="none" /><path d="M 114.39649973595853 115.28858382429668 l 8.215189672919056 8.724246744033785 a32.98339779081125,32.98339779081125 0 0,0 -0.41554405220749147,0.3846213710107691 l -8.064215849397598 -8.863985861176934" fill="#ff8d0d" stroke="none" /><path d="M 114.13192950727249 115.5334660781643 l 3.243619052347236 3.56530553695407 a25.820007067275455,25.820007067275455 0 0,0 -0.3304161384116411,0.2954601484147063 l -3.181937887112217 -3.6204612152521634" fill="#ff2803" stroke="none" /><path d="M 113.86319453409587 115.77377054828091 l 8.699409932644295 9.898331574694042 a34.17788682372008,34.17788682372008 0 0,0 -0.4440204220882646,0.38353426523649764 l -8.528210030793176 -10.046209972395259" fill="#ff9d0e" stroke="none" /><path d="M 113.59037401385872 116.0094264158162 l 6.223991308079489 7.331846110914101 a30.6173819305035,30.6173819305035 0 0,0 -0.4036036732919617,0.33670053892222124 l -6.097213300625632 -7.437608833748192" fill="#ff6c0a" stroke="none" /><path d="M 113.31354834802062 116.24036423190432 l 16.771868437676417 20.458952426303476 a47.45494859704844,47.45494859704844 0 0,0 -0.6344257267358304,0.5110484568175635 l -16.418191940585334 -20.743849176914445" fill="#bbff1f" stroke="none" /><path d="M 113.03279911837588 116.46651593811092 l 3.2422777019956075 4.096511959615439 a26.22434444998894,26.22434444998894 0 0,0 -0.35538988756795875,0.27635332612936386 l -3.171477869792418 -4.151566337365597" fill="#ff2e04" stroke="none" /><path d="M 112.7482090630111 116.68781488649013 l 4.902273251398417 6.417233051166003 a29.075466739721843,29.075466739721843 0 0,0 -0.39922971097253424,0.2995894178997045 l -4.791390551515116 -6.5004414963297235" fill="#ff5708" stroke="none" /><path d="M 112.45986205192187 116.90419585922612 l 10.453254019866232 14.1818466835117 a38.618038907849005,38.618038907849005 0 0,0 -0.5370095572956601,0.3887535064858942 l -10.208263452196604 -14.359200961370671" fill="#ffd714" stroke="none" /><path d="M 112.16784306229584 117.11559508785304 l 11.431097850610831 16.07927068248748 a40.72848052311533,40.72848052311533 0 0,0 -0.5733113700793744,0.4002158619202364 l -11.153391389357699 -16.273131360212837" fill="#fff216" stroke="none" /><path d="M 111.8722381534696 117.32195027204791 l 10.93453528897981 15.953813769167695 a40.341360752729614,40.341360752729614 0 0,0 -0.5745833687790141,0.3866053333555283 l -10.659055632103792 -16.139168776580345" fill="#ffed16" stroke="none" /><path d="M 111.5731344415666 117.5232005979908 l 7.206732918193423 10.91191217204527 a34.07695784976775,34.07695784976775 0 0,0 -0.49089377897747727,0.3181914167228223 l -7.0183535069589364 -11.034017430471986" fill="#ff9c0e" stroke="none" /><path d="M 111.27062007382361 117.71928675628689 l 4.802694984155517 7.55063422152617 a29.948628736187164,29.948628736187164 0 0,0 -0.4361602362421515,0.27219624568669953 l -4.672370619123651 -7.631966264054418" fill="#ff6309" stroke="none" /><path d="M 110.96478420261333 117.91015095944535 l 2.7348885235903118 4.467234868432956 a26.237919683062085,26.237919683062085 0 0,0 -0.386156262386256,0.23187574039234501 l -2.657799504646619 -4.513524609361225" fill="#ff2e04" stroke="none" /><line stroke="#e1ed5e" stroke-width="0.3" x1="143.1302829299769" x2="145.66735839644613" y1="173.24464959558577" y2="177.55315839532614" /><path d="M 143.63769802327073 174.10635135553383 a86.0,86.0 0 0,1 -40.68552437913181,11.842963189579606" fill="none" id="id54" stroke="none" /><text fill="#e1ed5e" style="font-size:6.75px; font-family:Arial;" text-anchor="middle"><textPath startOffset="21.407464694133747" xlink:href="#id54">June</textPath></text><path d="M 110.65571695917076 118.09573695890943 l 9.469910300236112 16.081978009941007 a39.66304417309095,39.66304417309095 0 0,0 -0.5896714827821298,0.3404469893177097 l -9.192446349593583 -16.24217189653489" fill="#ffe415" stroke="none" /><path d="M 110.34350942703117 118.27599006163325 l 28.799737823330997 50.88637719624665 a79.47091826584642,79.47091826584642 0 0,0 -1.1930318502800037,0.6617546564285471 l -27.9219617848949 -51.373264768108335" fill="#47fdff" stroke="none" /><path d="M 110.02825361518725 118.45085714620011 l 5.45661915261711 10.039564648991762 a32.42661589964382,32.42661589964382 0 0,0 -0.49135770692667746,0.2616203031055513 l -5.283472629903879 -10.131755419819882" fill="#ff850c" stroke="none" /><path d="M 109.71004243097381 118.62028667847754 l 10.073936367768047 19.318101283494563 a42.78699683621389,42.78699683621389 0 0,0 -0.6541780927969217,0.33402799538556094 l -9.740831053257542 -19.48818723055296" fill="#f3ff19" stroke="none" /><path d="M 109.3889696526874 118.78422872680471 l 2.349922363997495 4.701418878580359 a26.255994157976907,26.255994157976907 0 0,0 -0.4048921239759906,0.19805302723973 l -2.2688699907594354 -4.741065655917312" fill="#ff2f04" stroke="none" /><path d="M 109.06512990194946 118.94263497670748 l 2.169610035835659 4.533650526265261 a26.026051611544005,26.026051611544005 0 0,0 -0.40465712307294244,0.1893999659340925 l -2.0914641988912104 -4.5702267237698875" fill="#ff2b04" stroke="none" /><path d="M 108.73861861582097 119.09545874513695 l 6.4645301037735 14.126164938679572 a36.53507918671076,36.53507918671076 0 0,0 -0.5725335659978501,0.25608698173787725 l -6.221083134920023 -14.235055671327299" fill="#ffbc11" stroke="none" /><path d="M 108.4095320186766 119.2426549942271 l 9.733332088064945 22.271768619099497 a45.305748928170466,45.305748928170466 0 0,0 -0.7153236779864838,0.30532914235725767 l -9.34957333490803 -22.43557241111616" fill="#d5ff1c" stroke="none" /><path d="M 108.07796709384702 119.3841803445677 l 12.966984908244935 31.116043314680457 a54.709803457921886,54.709803457921886 0 0,0 -0.8700045139962288,0.3538232618870546 l -12.430925933058266 -31.3340538331468" fill="#6bff28" stroke="none" /><path d="M 107.407793817531 119.65005319985036 l 4.1227855267642175 10.936178426128421 a32.687487286316646,32.687487286316646 0 0,0 -0.5267523953741597,0.19343077586232224 l -3.9344439797359305 -11.005340050999466" fill="#ff890c" stroke="none" /><path d="M 107.06938296918513 119.77432235084164 l 2.6348803158274174 7.3702291908885815 a28.82706027860786,28.82706027860786 0 0,0 -0.4674022682750572,0.16258677161133525 l -2.5079722755073384 -7.414374395068507" fill="#ff5307" stroke="none" /><path d="M 106.72888874123015 119.89276391827305 l 3.8788642799611988 11.46717301469069 a33.105438655877336,33.105438655877336 0 0,0 -0.5398980952302734,0.1774752276409831 l -3.681443447083191 -11.532069163733693" fill="#ff8f0d" stroke="none" /><path d="M 106.38641147887787 120.00534299687104 l 5.395986864656107 16.902851999292597 a38.7432544915957,38.7432544915957 0 0,0 -0.6353144093914045,0.1968220280304277 l -5.105031822393078 -16.992990615129667" fill="#ffd914" stroke="none" /><path d="M 106.0420521117495 120.11202640906438 l 5.177998624923762 17.235873369587935 a38.99686085327613,38.99686085327613 0 0,0 -0.6427796634718668,0.18710379206546895 l -4.881358949070289 -17.322220855955923" fill="#ffdc14" stroke="none" /><path d="M 105.3480935250658 120.30758222061773 l 8.063183046392078 30.61721937117457 a52.66115984707844,52.66115984707844 0 0,0 -0.876168119199069,0.22271850967162188 l -7.536409633967611 -30.751123112681462" fill="#81ff25" stroke="none" /><path d="M 104.9986988182912 120.39639698878246 l 3.324004999704598 13.563074718282238 a34.96445505745813,34.96445505745813 0 0,0 -0.5841858591271012,0.13786627209837046 l -3.0906869868376177 -13.618137134026833" fill="#ffa70f" stroke="none" /><path d="M 104.64783097203109 120.47920084513623 l 1.102675977148726 4.858593812689237 a25.98215095589074,25.98215095589074 0 0,0 -0.43580428874951255,0.09498151635396845 l -1.0191092717800776 -4.876806787176924" fill="#ff2b04" stroke="none" /><path d="M 104.29559338865022 120.5559693870025 l 1.0443240746025628 4.997468746543888 a26.105419340806144,26.105419340806144 0 0,0 -0.4394455944601455,0.08790142628368607 l -0.9583819946114587 -5.014659569490435" fill="#ff2d04" stroke="none" /><path d="M 103.94208987418118 120.62667999033965 l 2.9763444722779413 15.573491962418894 a36.855354878437296,36.855354878437296 0 0,0 -0.622443536096729,0.11342994696195374 l -2.708566202630155 -15.622290083312212" fill="#ffc011" stroke="none" /><path d="M 103.58742460773223 120.69131181640829 l 1.664585126067659 9.600884660874813 a30.74411770830725,30.74411770830725 0 0,0 -0.5207797294109197,0.08569410629463493 l -1.4995278936036671 -9.628044765665118" fill="#ff6e0a" stroke="none" /><path d="M 102.875027216393 120.80226474461374 l 0.6659623929156434 4.818572126342625 a25.8643749079963,25.8643749079963 0 0,0 -0.4403375072638292,0.057010506179319624 l -0.5831470637610389 -4.829294228722339" fill="#ff2904" stroke="none" /><path d="M 102.51750503828377 120.84855314841334 l 1.3150713877537994 10.890677597306311 a31.969789026383246,31.969789026383246 0 0,0 -0.5454108400738026,0.061114422248416386 l -1.1279246460791976 -10.911647780061699" fill="#ff7f0b" stroke="none" /><path d="M 102.15924093988457 120.88869738790638 l 1.3053665659183715 12.62823739217224 a33.69552525516273,33.69552525516273 0 0,0 -0.575873272669007,0.05453579765493944 l -1.0883937298643493 -12.648784945332363" fill="#ff960d" stroke="none" /><path d="M 101.80034050326958 120.92268563240118 l 0.9311566540951228 10.82145178246514 a31.861439655712477,31.861439655712477 0 0,0 -0.5453328230171857,0.0422122094273462 l -0.7452548363027013 -10.83584175888754" fill="#ff7e0b" stroke="none" /><path d="M 101.44090949804482 120.95050786540614 l 1.358994003862296 19.759474557972037 a40.80615307195413,40.80615307195413 0 0,0 -0.6992535547947548,0.042065357456699336 l -1.0195960969350761 -19.779891893253428" fill="#fff316" stroke="none" /><path d="M 101.08105385017728 120.97215588758144 l 0.3866655287627306 7.501207959470536 a28.511167091894407,28.511167091894407 0 0,0 -0.4889994248431298,0.020999739337789425 l -0.2578403433187712 -7.506740267234156" fill="#ff4f07" stroke="none" /><path d="M 100.72087961077811 120.9876233191556 l 0.2597652161545258 7.562780839626662 a28.567240712158426,28.567240712158426 0 0,0 -0.4902501526856238,0.012627104896169208 l -0.12990174939815818 -7.566125661872876" fill="#ff5007" stroke="none" /><line stroke="#e1ed5e" stroke-width="0.3" x1="101.45913802915013" x2="101.54496967792366" y1="184.9874750549273" y2="189.98673829345242" /><path d="M 101.47630435890484 185.9873277026323 a86.0,86.0 0 0,1 -42.54439059252881,-10.42667462771756" fill="none" id="id55" stroke="none" /><text fill="#e1ed5e" style="font-size:6.75px; font-family:Arial;" text-anchor="middle"><textPath startOffset="22.145653131862474" xlink:href="#id55">July</textPath></text><path d="M 100.36049292484886 120.99690560180557 l 0.08540454843034367 4.97438678472986 a25.975119880061953,25.975119880061953 0 0,0 -0.4458974732791953,0.003827493526528289 l -6.092764636492235e-16 -4.975119880061953" fill="#ff2b04" stroke="none" /><path d="M 100.0 121.0 l 9.368377671723646e-16 7.649860905402502 a28.6498609054025,28.6498609054025 0 0,0 -0.4918129597286348,-0.004221622755070897 l 0.13132003487978175 -7.648733680841866" fill="#ff5107" stroke="none" /><path d="M 99.63950707515114 120.99690560180557 l -0.17604325285287165 10.253636915443973 a31.255148035042225,31.255148035042225 0 0,0 -0.5363780580274842,-0.013815196110827214 l 0.3520346249510998 -10.249104001983099" fill="#ff750a" stroke="none" /><path d="M 99.27912038922189 120.98762331915562 l -0.4134238820969136 12.036385242228512 a33.04348325882609,33.04348325882609 0 0,0 -0.5667338785641242,-0.02433799125134148 l 0.6199835212618765 -12.027514682551342" fill="#ff8e0d" stroke="none" /><path d="M 98.91894614982273 120.97215588758144 l -0.6555641286028152 12.717768959529895 a33.734653966036646,33.734653966036646 0 0,0 -0.5780764646921837,-0.034775644625386286 l 0.8737849454274451 -12.704641337079817" fill="#ff970d" stroke="none" /><path d="M 98.55909050195518 120.95050786540614 l -0.5133761877247862 7.464377098932684 a28.48201046411949,28.48201046411949 0 0,0 -0.4874913167590815,-0.03773491102771679 l 0.6414364992591038 -7.454464420909914" fill="#ff4f07" stroke="none" /><path d="M 98.19965949673042 120.92268563240118 l -0.5950457955388613 6.915334123923445 a27.940887950708362,27.940887950708362 0 0,0 -0.47752366118664746,-0.04522198719385441 l 0.713669020110524 -6.904100381224407" fill="#ff4706" stroke="none" /><path d="M 97.84075906011543 120.88869738790638 l -0.5373424989465485 5.1983012394883055 a26.225999687872147,26.225999687872147 0 0,0 -0.447420672990154,-0.050134419638764145 l 0.6264990735375018 -5.1883110593425705" fill="#ff2e04" stroke="none" /><path d="M 97.48249496171623 120.84855314841334 l -1.3548509394413364 11.22010935015913 a32.301613818284245,32.301613818284245 0 0,0 -0.5499306347026385,-0.07119953065712269 l 1.547259396034769 -11.19519822330161" fill="#ff840c" stroke="none" /><path d="M 97.12497278360702 120.80226474461374 l -0.7263022733194687 5.255161442666929 a26.30511420996025,26.30511420996025 0 0,0 -0.44677970632454095,-0.06566123112554444 l 0.8164070852516946 -5.241919138242502" fill="#ff2f04" stroke="none" /><path d="M 96.76829788921471 120.74984581791261 l -0.3420684099756553 2.196324575363976 a23.222802833687915,23.222802833687915 0 0,0 -0.3933749242907551,-0.06472969409532787 l 0.37972083731947387 -2.19012888277298" fill="#ff0200" stroke="none" /><path d="M 96.41257539226777 120.69131181640829 l -1.4205676702005179 8.193456820548619 a29.31569282596547,29.31569282596547 0 0,0 -0.4951075241550669,-0.09022508380044302 l 1.561009927906642 -8.167863562816809" fill="#ff5a08" stroke="none" /><path d="M 96.05791012581884 120.62667999033965 l -1.8701809717540403 9.78557710747418 a30.962685189919114,30.962685189919114 0 0,0 -0.5212103824778553,-0.10425667384366971 l 2.037887839762854 -9.75203103696765" fill="#ff710a" stroke="none" /><path d="M 95.70440661134978 120.55596938700252 l -2.189296099128083 10.476574368437152 a31.702879421307696,31.702879421307696 0 0,0 -0.5317593158845872,-0.1158944679112536 l 2.368817831631807 -10.43744844239218" fill="#ff7b0b" stroke="none" /><path d="M 95.35216902796893 120.47920084513623 l -1.1723713294595797 5.1656843946263855 a26.297051047424915,26.297051047424915 0 0,0 -0.4393709363810574,-0.10369034464089504 l 1.2608744195805248 -5.144797906339264" fill="#ff2f04" stroke="none" /><path d="M 95.00130118170881 120.39639698878247 l -1.1974987201960785 4.886203425840277 a26.0308038228065,26.0308038228065 0 0,0 -0.43309643184653185,-0.11009141936496708 l 1.281200445267989 -4.864926774640047" fill="#ff2b04" stroke="none" /><path d="M 94.6519064749342 120.30758222061772 l -7.961108113682752 30.22962422555054 a52.26034905780384,52.26034905780384 0 0,0 -0.8655772093309123,-0.2359169174540159 l 8.47886672394836 -30.08850681395238" fill="#85ff25" stroke="none" /><path d="M 94.30408787586889 120.21278271476187 l -4.262389607595136 15.125717024140734 a36.71481086940965,36.71481086940965 0 0,0 -0.6051649609404336,-0.1761547003611214 l 4.521414580917177 -15.050318629477095" fill="#ffbe11" stroke="none" /><path d="M 93.95794788825049 120.11202640906438 l -1.4219437785241802 4.73318837655678 a25.942165144676554,25.942165144676554 0 0,0 -0.4254013129123992,-0.13179041415797674 l 1.502985724308213 -4.708081374592154" fill="#ff2a04" stroke="none" /><path d="M 93.61358852112213 120.00534299687104 l -2.409253921718131 7.546953595134856 a28.922184864444475,28.922184864444475 0 0,0 -0.4716757473152767,-0.15504918681331223 l 2.538452406681151 -7.504483486919523" fill="#ff5507" stroke="none" /><path d="M 92.93061703081489 119.77432235084164 l -1.787951538671668 5.001218667525707 a26.31121067790066,26.31121067790066 0 0,0 -0.4239999584055033,-0.1556986577378775 l 1.87354064873129 -4.9697891607791105" fill="#ff3004" stroke="none" /><path d="M 92.59220618246901 119.65005319985036 l -4.626768290454607 12.27305258357151 a34.116203891853296,34.116203891853296 0 0,0 -0.5462292403270153,-0.2112932044990407 l 4.836769793275151 -12.191819490934428" fill="#ff9c0e" stroke="none" /><path d="M 92.25597844496254 119.51999308798841 l -7.248600840270427 18.27120925401159 a40.656533309448236,40.656533309448236 0 0,0 -0.6465270439120229,-0.26293692032055194 l 7.561182345372891 -18.14408507711175" fill="#fff116" stroke="none" /><path d="M 91.92203290615298 119.3841803445677 l -6.969282588248947 16.723741133555 a39.117792837347196,39.117792837347196 0 0,0 -0.6176232400768414,-0.26362663504078204 l 7.2553409034962195 -16.601639848854813" fill="#ffdd14" stroke="none" /><path d="M 91.59046798132341 119.24265499422711 l -2.0286129791080096 4.641863493365919 a26.065783977830947,26.065783977830947 0 0,0 -0.40847143576973777,-0.18270407767289124 l 2.1079978177333825 -4.606355664783173" fill="#ff2c04" stroke="none" /><path d="M 90.93487009805054 118.94263497670748 l -4.766039478896655 9.959189455619539 a32.04085988169965,32.04085988169965 0 0,0 -0.49410019416755124,-0.2416891646438303 l 4.936299922326275 -9.875906540878487" fill="#ff800b" stroke="none" /><path d="M 90.6110303473126 118.78422872680471 l -2.3607985614019795 4.72317855906513 a26.280320591434787,26.280320591434787 0 0,0 -0.40180454983570085,-0.20516426611687422 l 2.4415303329512628 -4.68195634127542" fill="#ff2f04" stroke="none" /><path d="M 90.28995756902619 118.62028667847754 l -6.930752700749281 13.290632157684762 a35.9892039865307,35.9892039865307 0 0,0 -0.5453412961644248,-0.29036352373689533 l 7.157882812700267 -13.169698166225293" fill="#ffb510" stroke="none" /><path d="M 89.97174638481275 118.45085714620012 l -2.496690633080796 4.593629556742072 a26.228278552438436,26.228278552438436 0 0,0 -0.3937436784912791,-0.21840298112724726 l 2.5751784997281773 -4.550093660181676" fill="#ff2e04" stroke="none" /><line stroke="#e1ed5e" stroke-width="0.3" x1="58.13341422392154" x2="55.67067388415222" y1="173.97424548756322" y2="178.32567169271397" /><path d="M 57.64086615596768 174.84453072859336 a86.0,86.0 0 0,1 -31.369924170532247,-30.572349798747897" fill="none" id="id56" stroke="none" /><text fill="#e1ed5e" style="font-size:6.75px; font-family:Arial;" text-anchor="middle"><textPath startOffset="22.145653131862474" xlink:href="#id56">August</textPath></text><path d="M 89.65649057296885 118.27599006163327 l -11.600107597015969 20.496278623085352 a44.551219366680215,44.551219366680215 0 0,0 -0.6623441072514855,-0.3824045486178104 l 11.950244172127855 -20.29412717719137" fill="#deff1b" stroke="none" /><path d="M 89.34428304082925 118.09573695890944 l -4.0196385644678525 6.826225059393773 a28.921795424678216,28.921795424678216 0 0,0 -0.4256561708245385,-0.25559430048498094 l 4.1362274918498185 -6.756216758372874" fill="#ff5507" stroke="none" /><path d="M 89.03521579738668 117.91015095944536 l -8.07760837010242 13.194166216726186 a36.470416256046484,36.470416256046484 0 0,0 -0.5311410251938002,-0.3314712827413037 l 8.302913524085932 -13.053559137143335" fill="#ffbb11" stroke="none" /><path d="M 88.4268655584334 117.5232005979908 l -7.918192599240675 11.989152808220405 a35.367935102078135,35.367935102078135 0 0,0 -0.5037466986369419,-0.3389432603438005 l 8.122835585974622 -11.851459873819485" fill="#ffad10" stroke="none" /><path d="M 88.1277618465304 117.32195027204791 l -8.822611192923258 12.872453397404923 a36.60572089747399,36.60572089747399 0 0,0 -0.5152776565912566,-0.3597038227802039 l 9.042283940688279 -12.71910475881959" fill="#ffbd11" stroke="none" /><path d="M 87.83215693770417 117.11559508785305 l -2.983410156235723 4.196540007435344 a26.148949814703567,26.148949814703567 0 0,0 -0.3636185668891391,-0.2632318009634647 l 3.055009733498816 -4.144707435098813" fill="#ff2d04" stroke="none" /><path d="M 87.54013794807813 116.9041958592261 l -8.926974094047152 12.111154833590996 a36.04562853054014,36.04562853054014 0 0,0 -0.49493567855305026,-0.37140896020563113 l 9.133562761510968 -11.95612684612135" fill="#ffb610" stroke="none" /><path d="M 87.2517909369889 116.68781488649013 l -10.342728992666379 13.538964257461254 a38.037476226852235,38.037476226852235 0 0,0 -0.5154803554921935,-0.40084064228578475 l 10.5736192927938 -13.359422563554677" fill="#ffd013" stroke="none" /><path d="M 86.96720088162412 116.46651593811092 l -8.634876453431643 10.909884319752317 a34.9135425839865,34.9135425839865 0 0,0 -0.46675953260109376,-0.37598843928976017 l 8.820886756387997 -10.760047586669145" fill="#ffa70f" stroke="none" /><path d="M 86.68645165197938 116.24036423190432 l -12.422590260075351 15.153540232369794 a40.594655657698326,40.594655657698326 0 0,0 -0.5351258372338585,-0.44642100583040445 l 12.680890431471102 -14.93805704262752" fill="#fff016" stroke="none" /><path d="M 86.40962598614128 116.0094264158162 l -7.85544045366137 9.253689102189034 a33.13831564596141,33.13831564596141 0 0,0 -0.430514881633984,-0.37186850105747155 l 8.013134815058216 -9.11747646866684" fill="#ff8f0d" stroke="none" /><path d="M 86.13680546590413 115.77377054828092 l -26.172133922318213 29.779084051239675 a60.64561061427301,60.64561061427301 0 0,0 -0.776076025795569,-0.6939719677886478 l 26.679474974937154 -29.325416553567642" fill="#2fff31" stroke="none" /><path d="M 85.86807049272751 115.53346607816431 l -10.912702248918327 11.99497139562201 a37.216239057048256,37.216239057048256 0 0,0 -0.4688718513408248,-0.43398078575077276 l 11.11700387157312 -11.805872863738859" fill="#ffc512" stroke="none" /><path d="M 85.60350026404147 115.28858382429668 l -8.307907513163391 8.822709877335745 a33.11864418270107,33.11864418270107 0 0,0 -0.41055687198065405,-0.3933041961852968 l 8.45813687100936 -8.678793550844865" fill="#ff8f0d" stroke="none" /><path d="M 85.34317274990678 115.03919595460226 l -3.538747322271841 3.6310664992747195 a26.070244228145356,26.070244228145356 0 0,0 -0.3178187222185914,-0.3151023392059145 l 3.600557964620395 -3.569784149840146" fill="#ff2c04" stroke="none" /><path d="M 85.08716467003676 114.78537596483092 l -13.2714270799506 13.157996760860863 a39.68859693763208,39.68859693763208 0 0,0 -0.4755321349197045,-0.487937862522214 l 13.495346016021113 -12.928236206270912" fill="#ffe515" stroke="none" /><path d="M 84.83555147118756 114.52719865689866 l -2.2980937386307017 2.2015218166247155 a24.18244138054548,24.18244138054548 0 0,0 -0.28459758634365945,-0.3022327742721864 l 2.335547158710614 -2.1617475824080388" fill="#ff1101" stroke="none" /><path d="M 84.58840730492382 114.26474011684316 l -10.799259521540552 9.99563338955464 a35.71518579807825,35.71518579807825 0 0,0 -0.4125993423558678,-0.45351895401541303 l 10.9692565647383 -9.808776859981553" fill="#ffb110" stroke="none" /><path d="M 84.3458050057657 113.99807769240083 l -13.062389204320624 11.68046897319242 a38.52310951740195,38.52310951740195 0 0,0 -0.43657494509776706,-0.49674214656395704 l 13.260975213376982 -11.454514548817162" fill="#ffd614" stroke="none" /><path d="M 84.1078160697243 113.72728997021213 l -3.4624539305105206 2.990785238904168 a25.575301472706997,25.575301472706997 0 0,0 -0.28413604159652867,-0.33471154255079594 l 3.5132845356141615 -2.9309069139038173" fill="#ff2503" stroke="none" /><path d="M 83.8745106332314 113.45245675266167 l -4.005001530926675 3.341114719914475 a26.215657660770518,26.215657660770518 0 0,0 -0.28531771162477526,-0.3480412161712469 l 4.06176606179008 -3.271871222044733" fill="#ff2e04" stroke="none" /><path d="M 83.64595745247003 113.17365903436017 l -4.064723705848926 3.2742536907379014 a26.219455530627787,26.219455530627787 0 0,0 -0.2793415415477239,-0.3529389123773525 l 4.1203316780382115 -3.203994834445868" fill="#ff2e04" stroke="none" /><path d="M 83.4222238831116 112.89097897827486 l -15.961995509873317 12.412144253744216 a41.219956123418555,41.219956123418555 0 0,0 -0.42956694719775557,-0.5623169231661116 l 16.172714434425366 -12.136306417337234" fill="#fff817" stroke="none" /><path d="M 82.98947788004972 112.3143062007846 l -14.431088143740212 10.44699492228453 a38.81561135405232,38.81561135405232 0 0,0 -0.3860950072947886,-0.543090979762558 l 14.60829824956496 -10.197726715812468" fill="#ffda14" stroke="none" /><path d="M 82.78059297857968 112.02048342749411 l -16.424002132724006 11.465229040927364 a41.02996063442579,41.02996063442579 0 0,0 -0.39820605120757974,-0.5809945292438763 l 16.61839792074691 -11.181599776613435" fill="#fff517" stroke="none" /><path d="M 82.576782715395 111.72311816256416 l -7.148856637053364 4.810069788744394 a29.6164332870239,29.6164332870239 0 0,0 -0.2801934047841114,-0.42424852688407677 l 7.230374480758202 -4.686641383521256" fill="#ff5f08" stroke="none" /><path d="M 82.37810715431573 111.42229804090323 l -15.160830056204619 9.827066874479586 a39.067152829060014,39.067152829060014 0 0,0 -0.35994299576050837,-0.5658901742780234 l 15.327290743591016 -9.56536302552289" fill="#ffdd14" stroke="none" /><path d="M 82.18462484594161 111.11811171558189 l -9.921389042056246 6.191680545004025 a32.6949078019117,32.6949078019117 0 0,0 -0.2930585260712719,-0.47868907813416617 l 10.026215532582922 -6.020454350745302" fill="#ff890c" stroke="none" /><path d="M 81.99639281039703 110.81064883170644 l -54.01082156880893 32.43194649511935 a84.0,84.0 0 0,0 -0.7317051594809199,-1.2425953268257648 l 54.559600438419615 -31.50000000000003" fill="#4dd2ff" stroke="none" /><line stroke="#e1ed5e" stroke-width="0.3" x1="26.387840678322732" x2="22.057713659400548" y1="142.50000000000003" y2="145.00000000000006" /><path d="M 25.521815274538298 143.00000000000003 a86.0,86.0 0 0,1 -11.493303480769221,-40.785679425670985" fill="none" id="id57" stroke="none" /><text fill="#e1ed5e" style="font-size:6.75px; font-family:Arial;" text-anchor="middle"><textPath startOffset="21.40746469413373" xlink:href="#id57">September</textPath></text><path d="M 81.4637452351635 109.86951160357371 l -4.572685111674472 2.4346972644534683 a26.18046329009931,26.18046329009931 0 0,0 -0.207812951474148,-0.3985087356164234 l 4.613806132123569 -2.355842285732542" fill="#ff2e04" stroke="none" /><path d="M 81.29705330413844 109.54985784667822 l -3.821756121420362 1.9514159066877204 a25.29113550152962,25.29113550152962 0 0,0 -0.19411559119572686,-0.3883612152709177 l 3.854691625827826 -1.8855228352530498" fill="#ff2103" stroke="none" /><path d="M 81.1358732173502 109.22738970284198 l -4.7501091360667775 2.3235164094545637 a26.287935826912964,26.287935826912964 0 0,0 -0.1948070514326862,-0.4070718132108057 l 4.789295445459375 -2.2416320941786534" fill="#ff2f04" stroke="none" /><path d="M 80.9802524753101 108.90220220490708 l -7.474864063475048 3.4986138097189685 a29.25311403998436,29.25311403998436 0 0,0 -0.20897245511258697,-0.45664252794462135 l 7.533820983442691 -3.3697822995596582" fill="#ff5908" stroke="none" /><path d="M 80.83023694016515 108.57439118712176 l -19.429554472234486 8.690592581474766 a42.28459504915965,42.28459504915965 0 0,0 -0.290688706558653,-0.6651526480431317 l 19.575877060810107 -8.355777863655785" fill="#f9ff18" stroke="none" /><path d="M 80.5471966667186 107.91128576633889 l -13.053476475184352 5.308735243453755 a35.09169677410351,35.09169677410351 0 0,0 -0.22214936508744274,-0.5599615187262904 l 13.142684515237919 -5.0838727075139" fill="#ffa90f" stroke="none" /><path d="M 80.41425534168474 107.57618678355246 l -4.752491642015434 1.8383658622800625 a26.095661473353903,26.095661473353903 0 0,0 -0.15802702023697068,-0.4191854459179936 l 4.78334934606684 -1.7565121361679241" fill="#ff2c04" stroke="none" /><path d="M 80.28708602549918 107.23885506374661 l -15.789085773931447 5.797970997813749 a37.81997911021455,37.81997911021455 0 0,0 -0.21856315398844078,-0.6113600408724581 l 15.88628909796383 -5.52607600056037" fill="#ffcd13" stroke="none" /><path d="M 80.16572619554312 106.89939002012753 l -14.168326366228372 4.928479383555757 a36.0010459986661,36.0010459986661 0 0,0 -0.19803074530903464,-0.5854427107487218 l 14.250842533109775 -4.6845349983328735" fill="#ffb510" stroke="none" /><path d="M 80.05021161711548 106.5578916946017 l -13.279450035338819 4.3652189900089065 a34.978516733609275,34.978516733609275 0 0,0 -0.18261331541806192,-0.5720336096126314 l 13.352428066534134 -4.136616346704883" fill="#ffa80f" stroke="none" /><path d="M 79.94057633289273 106.21446072829308 l -14.782901472515858 4.579780664477281 a36.47606432142331,36.47606432142331 0 0,0 -0.1801634106286825,-0.5997053990092154 l 14.85934120314817 -4.325337661877342" fill="#ffbb11" stroke="none" /><path d="M 79.83685265289637 105.86919833188381 l -20.698564746993515 6.025050533734955 a42.557639400443236,42.557639400443236 0 0,0 -0.19815953115818177,-0.7031982690165461 l 20.798942770226272 -5.668844340815413" fill="#f6ff19" stroke="none" /><path d="M 79.73907114497094 105.5222062557868 l -16.731230623956908 4.560171307037248 a38.34154665944071,38.34154665944071 0 0,0 -0.16762653835965818,-0.6365052694276606 l 16.8070466431213 -4.272285533236785" fill="#ffd313" stroke="none" /><path d="M 79.64726062577567 105.17358676015961 l -15.577739025675486 3.9598003440521032 a37.073144431529514,37.073144431529514 0 0,0 -0.15149229635658315,-0.6181402660077489 l 15.643418848548363 -3.6918042534362545" fill="#ffc312" stroke="none" /><path d="M 79.56144815229197 104.8234425847677 l -5.12153769631989 1.2086689511073492 a26.26222662075633,26.26222662075633 0 0,0 -0.09978287788797455,-0.43966177115097305 l 5.141531435765531 -1.1205728460173499" fill="#ff2f04" stroke="none" /><path d="M 79.48165901384964 104.47187691870673 l -18.504070470961057 4.032876035010208 a39.938445371995364,39.938445371995364 0 0,0 -0.14024535180223388,-0.6711247777625502 l 18.57057353358766 -3.7146348059622487" fill="#ffe815" stroke="none" /><path d="M 79.407916724674 104.11899336999214 l -11.442796417224157 2.2888797576489956 a32.66947129869273,32.66947129869273 0 0,0 -0.10527925009353312,-0.5508655232659451 l 11.480401959599847 -2.092111669349736" fill="#ff890c" stroke="none" /><path d="M 79.34024301695615 103.76489593502545 l -32.33598487611585 5.8926936127588805 a53.86852226556957,53.86852226556957 0 0,0 -0.1579763226261305,-0.9111654483334519 l 32.432376016234215 -5.3367351315048355" fill="#74ff27" stroke="none" /><path d="M 79.2786578344484 103.40968896794605 l -32.8508945775086 5.405602201497545 a54.292669008408126,54.292669008408126 0 0,0 -0.14343220306749568,-0.9209376350132895 l 32.93884827271436 -4.840876384552805" fill="#6fff27" stroke="none" /><path d="M 79.22317932658666 103.0534771498775 l -4.799536472788001 0.7053665803842232 a25.851091873624455,25.851091873624455 0 0,0 -0.060756816047540546,-0.4396060549459546 l 4.810937805390755 -0.6228722172381829" fill="#ff2904" stroke="none" /><path d="M 79.17382384314188 102.69636545807758 l -18.675314943419487 2.4178934122562956 a39.83118681307526,39.83118681307526 0 0,0 -0.08197241885060963,-0.6788492198116645 l 18.71406944852976 -2.096950515521232" fill="#ffe615" stroke="none" /><path d="M 79.13060592940153 102.33845913500099 l -22.53711239343122 2.5253304516019304 a43.678155324539496,43.678155324539496 0 0,0 -0.07709736755689799,-0.7458470940192173 l 22.577142153469783 -2.1380788352997815" fill="#e8ff1a" stroke="none" /><path d="M 79.0935383218832 101.97986365728391 l -20.085043694655248 1.9020745202250466 a41.17490688198337,41.17490688198337 0 0,0 -0.060598438451427,-0.7042457108702587 l 20.114735755804418 -1.5570077619791258" fill="#fff717" stroke="none" /><path d="M 79.06263194458094 101.62068470465958 l -9.85958857360918 0.7631945119935415 a30.889082500615604,30.889082500615604 0 0,0 -0.036384454490985964,-0.5290219830088286 l 9.871236989265233 -0.5938291048303695" fill="#ff700a" stroke="none" /><path d="M 79.03789590574601 101.26102812881392 l -29.17197853443415 1.7549137882184753 a50.22471649165422,50.22471649165422 0 0,0 -0.04438528133711258,-0.8610626003167811 l 29.197805405227836 -1.2538793945249636" fill="#9cff22" stroke="none" /><path d="M 79.00696218219943 100.54070618675478 l -26.596976144459646 0.6850437595117445 a47.605796830416516,47.605796830416516 0 0,0 -0.014029129999287647,-0.8171264897749688 l 26.604816706057598 -0.22837035376772336" fill="#baff1f" stroke="none" /><line stroke="#e1ed5e" stroke-width="0.3" x1="15.003131293944662" x2="10.003315487706104" y1="100.72959589197737" y2="100.7725132973878" /><path d="M 14.003168132696942 100.73817937305945 a86.0,86.0 0 0,1 10.791469493833604,-42.45332614584628" fill="none" id="id58" stroke="none" /><text fill="#e1ed5e" style="font-size:6.75px; font-family:Arial;" text-anchor="middle"><textPath startOffset="22.145653131862435" xlink:href="#id58">October</textPath></text><line stroke="#e1ed5e" stroke-width="0.3" x1="26.387840678322718" x2="22.05771365940052" y1="57.49999999999999" y2="54.99999999999999" /><path d="M 25.521815274538284 56.99999999999999 a86.0,86.0 0 0,1 29.574782752854787,-30.34633250058573" fill="none" id="id59" stroke="none" /><text fill="#e1ed5e" style="font-size:6.75px; font-family:Arial;" text-anchor="middle"><textPath startOffset="21.40746469413373" xlink:href="#id59">November</textPath></text><line stroke="#e1ed5e" stroke-width="0.3" x1="56.869717070023135" x2="54.33264160355391" y1="26.7553504044142" y2="22.446841604673864" /><path d="M 56.362301976729285 25.89364864446614 a86.0,86.0 0 0,1 42.16139366436587,-11.88097634709845" fill="none" id="id60" stroke="none" /><text fill="#e1ed5e" style="font-size:6.75px; font-family:Arial;" text-anchor="middle"><textPath startOffset="22.145653131862474" xlink:href="#id60">December</textPath></text></svg>