<?xml version="1.0" encoding="utf-8" ?>
<svg baseProfile="full" height="200mm" version="1.1" viewBox="0,0,200,200" width="200mm" xmlns="http://www.w3.org/2000/svg" xmlns:ev="http://www.w3.org/2001/xml-events" xmlns:xlink="http://www.w3.org/1999/xlink"><defs /><rect fill="#1a1a1a" height="200" width="200" x="0" y="0" /><text alignment-baseline="middle" fill="#e1ed5e" style="dominant-baseline: central; font-size:9.0px; font-family:Arial;" text-anchor="middle" x="100.0" y="100.0">2024</text><line stroke="#e1ed5e" stroke-width="0.3" x1="100.0" x2="100.0" y1="15.0" y2="10.0" /><path d="M 100.0 14.0 a86.0,86.0 0 0,1 42.35913384403234,11.155469271406648" fill="none" id="id49" stroke="none" /><text fill="#e1ed5e" style="font-size:6.75px; font-family:Arial;" text-anchor="middle"><textPath startOffset="22.145653131862478" xlink:href="#id49">January</textPath></text><line stroke="#e1ed5e" stroke-width="0.3" x1="143.13028292997686" x2="145.6673583964461" y1="26.7553504044142" y2="22.446841604673864" /><path d="M 143.63769802327073 25.89364864446614 a86.0,86.0 0 0,1 29.32050498858742,28.57503671076993" fill="none" id="id50" stroke="none" /><text fill="#e1ed5e" style="font-size:6.75px; font-family:Arial;" text-anchor="middle"><textPath startOffset="20.669276256404974" xlink:href="#id50">February</textPath></text><line stroke="#e1ed5e" stroke-width="0.3" x1="172.87174338648825" x2="177.1583165268699" y1="56.24261187166439" y2="53.66864786411523" /><path d="M 173.72905801456457 55.72781907015455 a86.0,86.0 0 0,1 12.242430191666344,42.057860355516425" fill="none" id="id51" stroke="none" /><text fill="#e1ed5e" style="font-size:6.75px; font-family:Arial;" text-anchor="middle"><textPath startOffset="22.145653131862474" xlink:href="#id51">March</textPath></text><path d="M 120.16314734710363 94.1308016681162 l 10.739479055018446 -3.1261058340710686 a32.18521113162345,32.18521113162345 0 0,0 0.14986278463562325,0.5318101538181843 l -10.791560331728652 2.941287756349871" fill="#ff800b" stroke="none" /><path d="M 120.26092885502905 94.47779374421319 l 19.983621102094144 -5.446624794591599 a41.712576710904955,41.712576710904955 0 0,0 0.18236444403812857,0.6924674978222207 l -20.074175026937002 5.10277679239658" fill="#fffd17" stroke="none" /><path d="M 120.35273937422433 94.82641323984039 l 14.21666498868183 -3.6138206462869396 a35.668785330215364,35.668785330215364 0 0,0 0.1457536521592956,0.5947246393656733 l -14.276606167357416 3.3692401823131717" fill="#ffaf10" stroke="none" /><path d="M 120.43855184770803 95.1765574152323 l 2.2262518916193974 -0.5253893846525548 a23.287407154497103,23.287407154497103 0 0,0 0.08848010254348378,0.38985965748113616 l -2.2349428557205475 0.48709539323239237" fill="#ff0100" stroke="none" /><path d="M 120.51834098615036 95.52812308129327 l 12.117901171842602 -2.6410401596361823 a33.40236356245677,33.40236356245677 0 0,0 0.11729365490344383,0.5612925994940403 l -12.161452537570412 2.4326311088567376" fill="#ff910d" stroke="none" /><path d="M 120.77682067341334 96.94652285012252 l 3.8217280036866423 -0.5616624081102449 a24.862780034489006,24.862780034489006 0 0,0 0.058434025161124496,0.4227994971888334 l -3.8308065454029796 0.4959746027213259" fill="#ff1802" stroke="none" /><path d="M 120.82617615685814 97.30363454192243 l 5.079965626770373 -0.6577032548403945 a26.12236511199623,26.12236511199623 0 0,0 0.05375972010018213,0.44520760225231854 l -5.090507433130219 0.570401975664663" fill="#ff2b04" stroke="none" /><path d="M 120.86939407059847 97.66154086499901 l 7.561142484964689 -0.8472417864742859 a28.60846202084798,28.60846202084798 0 0,0 0.05049748770914073,0.4885173859579331 l -7.574572365155496 0.7173198782334215" fill="#ff4e07" stroke="none" /><path d="M 120.9064616781168 98.02013634271609 l 2.7077590340175974 -0.2564275957679198 a23.71987391218329,23.71987391218329 0 0,0 0.03490930346152151,0.40569902229330246 l -2.71176196017686 0.20990752609895533" fill="#ff0701" stroke="none" /><path d="M 120.93736805541906 98.37931529534042 l 10.800264749589022 -0.836008797266309 a31.832572610895433,31.832572610895433 0 0,0 0.03749579772947444,0.5451806697901513 l -10.813024508483563 0.6504847033218234" fill="#ff7b0b" stroke="none" /><path d="M 120.96210409425399 98.7389718711861 l 25.751537489448886 -1.5491485486565457 a46.79809187316566,46.79809187316566 0 0,0 0.04135705722053516,0.8023158614517537 l -25.774336136125992 1.1068608938280615" fill="#c4ff1e" stroke="none" /><path d="M 120.98066250479742 99.09900007780936 l 22.14408208654723 -0.950962164917341 a43.164491884427356,43.164491884427356 0 0,0 0.02543686179484748,0.7405664771062886 l -22.157143635338922 0.5706894232469324" fill="#f0ff19" stroke="none" /><path d="M 120.99303781780057 99.45929381324524 l 5.659560786256295 -0.14577021000975043 a26.661437736781732,26.661437736781732 0 0,0 0.007856958624380026,0.4576284503296043 l -5.661229176479341 0.04859484371107974" fill="#ff3204" stroke="none" /><line stroke="#e1ed5e" stroke-width="0.3" x1="184.99686870605535" x2="189.99668451229388" y1="99.2704041080226" y2="99.22748670261217" /><path d="M 185.99683186730306 99.26182062694052 a86.0,86.0 0 0,1 -10.086455211305974,41.156179273409016" fill="none" id="id52" stroke="none" /><text fill="#e1ed5e" style="font-size:6.75px; font-family:Arial;" text-anchor="middle"><textPath startOffset="21.40746469413373" xlink:href="#id52">April</textPath></text><path d="M 120.99922638620191 99.81974689727618 l 2.6818126210302857 -0.023020135931401016 a23.681911419300725,23.681911419300725 0 0,0 0.0,0.40654647731045546 l -2.6818126210302857 -0.02302013593140069" fill="#ff0701" stroke="none" /><path d="M 120.99922638620191 100.18025310272382 l 6.710837439227856 0.057604468281310835 a27.71108466721351,27.71108466721351 0 0,0 -0.00816628299705444,0.47564504429234755 l -6.708859724632132 -0.17279642854272942" fill="#ff4206" stroke="none" /><path d="M 120.99303781780057 100.54070618675476 l 20.42686444307353 0.5261235689770096 a41.4336388581558,41.4336388581558 0 0,0 -0.024416869034730025,0.7108705008050747 l -20.414822887041954 -0.876700334346195" fill="#fff917" stroke="none" /><path d="M 120.98066250479742 100.90099992219065 l 5.258057673168146 0.22580362051556485 a26.262903929334104,26.262903929334104 0 0,0 -0.023209416818246335,0.45025648582844624 l -5.253406666893327 -0.31603189972074175" fill="#ff2d04" stroke="none" /><path d="M 120.96210409425399 101.26102812881392 l 29.402437355189797 1.7687776185953918 a50.455591942615996,50.455591942615996 0 0,0 -0.05943197532057753,0.8641278776355699 l -29.367741418704153 -2.273248920385305" fill="#9aff22" stroke="none" /><path d="M 120.93736805541906 101.62068470465957 l 6.340340410677341 0.49078244690168504 a27.359306875238442,27.359306875238442 0 0,0 -0.04026557433401969,0.46794700895124386 l -6.330981213645581 -0.5995505032285862" fill="#ff3c05" stroke="none" /><path d="M 120.9064616781168 101.97986365728391 l 12.648904471292742 1.1978644044478166 a33.70549737142677,33.70549737142677 0 0,0 -0.05949438798925161,0.5755542348380087 l -12.626477690821824 -1.4148231615687568" fill="#ff950d" stroke="none" /><path d="M 120.86939407059847 102.33845913500097 l 26.352299373235777 2.9528301104075445 a47.51721870629671,47.51721870629671 0 0,0 -0.09779024091568704,0.8098434776188992 l -26.297727046060427 -3.4047672649498524" fill="#bcff1f" stroke="none" /><path d="M 120.82617615685814 102.69636545807757 l 26.822160647175753 3.4726656941407024 a48.04602944622677,48.04602944622677 0 0,0 -0.11292071480576801,0.8170380409433605 l -26.758595415814778 -3.9325920432841484" fill="#b6ff1f" stroke="none" /><path d="M 120.77682067341334 103.0534771498775 l 20.511615620558363 3.0145011399453723 a41.73194618187752,41.73194618187752 0 0,0 -0.11024886211127087,0.7078767819516881 l -20.456845266308825 -3.366166103828511" fill="#fffd17" stroke="none" /><path d="M 120.7213421655516 103.40968896794604 l 28.390350380873652 4.671621351377388 a49.772140010771146,49.772140010771146 0 0,0 -0.14596315839835275,0.8418767094418034 l -28.305972404983063 -5.158291093739779" fill="#a2ff22" stroke="none" /><path d="M 120.65975698304385 103.76489593502545 l 25.14157338455961 4.5816321805411055 a46.55562688898408,46.55562688898408 0 0,0 -0.15002818508123603,0.7850108602216815 l -25.059218907196218 -5.0125456057961015" fill="#c7ff1e" stroke="none" /><path d="M 120.592083275326 104.11899336999214 l 8.57119012668262 1.7144780755160787 a29.740980223016578,29.740980223016578 0 0,0 -0.10443656971297836,0.4997667925404074 l -8.540495846145278 -1.8613613193418952" fill="#ff5e08" stroke="none" /><path d="M 120.51834098615036 104.47187691870673 l 28.633903811489553 6.240626063944402 a50.306072086781235,50.306072086781235 0 0,0 -0.19113705477249138,0.8421851304810034 l -28.5225558951594 -6.731245528364422" fill="#9cff22" stroke="none" /><path d="M 120.43855184770803 104.8234425847677 l 12.172369448236978 2.8726460461402827 a33.506745111769824,33.506745111769824 0 0,0 -0.136918889353761,0.558675792248916 l -12.12126303236692 -3.0811776629972982" fill="#ff920d" stroke="none" /><path d="M 120.35273937422433 105.17358676015961 l 10.31865489593748 2.6229617237612186 a31.64681018266837,31.64681018266837 0 0,0 -0.13835762255928247,0.525366428766261 l -10.272107792573467 -2.799708656900283" fill="#ff790b" stroke="none" /><path d="M 120.26092885502905 105.52220625578681 l 24.068216860822922 6.559899532023661 a45.94616893893419,45.94616893893419 0 0,0 -0.21393741344024253,0.7591884070868514 l -23.952060955308102 -6.9720958630135215" fill="#ceff1d" stroke="none" /><path d="M 120.16314734710363 105.8691983318838 l 10.668815965974623 3.105536838705305 a32.111615236876716,32.111615236876716 0 0,0 -0.15860642395220811,0.5279492013931758 l -10.613933222018787 -3.288223643689204" fill="#ff7f0b" stroke="none" /><path d="M 120.05942366710727 106.21446072829308 l 13.953127176687238 4.322714466547089 a35.60738232429423,35.60738232429423 0 0,0 -0.1858964515024738,0.5823179866358437 l -13.87686600940751 -4.561601486874316" fill="#ffae10" stroke="none" /><path d="M 119.94978838288452 106.5578916946017 l 37.53059864491777 12.337053226995142 a60.506312368678685,60.506312368678685 0 0,0 -0.3328267221656532,0.9839430646498649 l -37.313286501179746 -12.979497966119167" fill="#30ff2f" stroke="none" /><path d="M 119.83427380445688 106.89939002012753 l 2.1227526831384145 0.7384035746220833 a23.247513913813663,23.247513913813663 0 0,0 -0.13434830168959475,0.3757961107041852 l -2.1097642114048765 -0.77473464170719" fill="#ff0000" stroke="none" /><path d="M 119.71291397450082 107.23885506374661 l 5.054932095818974 1.856241083689963 a26.3849762723822,26.3849762723822 0 0,0 -0.15977901857766924,0.42383282966661895 l -5.022322393426864 -1.942742193550741" fill="#ff2e04" stroke="none" /><path d="M 119.58574465831526 107.57618678355244 l 17.750147251258586 6.866138273379426 a40.0318570357842,40.0318570357842 0 0,0 -0.253423243709706,0.6387921224639671 l -17.629665332582753 -7.169831413056957" fill="#ffe715" stroke="none" /><path d="M 119.4528033332814 107.91128576633889 l 2.657114498765481 1.0806253347378119 a23.868450552759615,23.868450552759615 0 0,0 -0.15761605822031405,0.3782211616174649 l -2.6381725960086815 -1.1260790057965546" fill="#ff0a01" stroke="none" /><path d="M 119.31412917781788 108.2440532568976 l 11.697645568455375 4.993029308171677 a33.718697005490185,33.718697005490185 0 0,0 -0.23180178048232297,0.5304078370785262 l -11.610209905956086 -5.193099215026047" fill="#ff950d" stroke="none" /><path d="M 119.16976305983485 108.57439118712176 l 5.200413343234588 2.32607874184154 a26.696923841314668,26.696923841314668 0 0,0 -0.19071206270374438,0.4167402750551571 l -5.159716815675788 -2.415007999111386" fill="#ff3304" stroke="none" /><path d="M 119.0197475246899 108.90220220490707 l 28.28647899405629 13.239500437272554 a52.23154280066433,52.23154280066433 0 0,0 -0.38706244993038097,0.8088116531727375 l -28.055037286165998 -13.723124592510395" fill="#86ff25" stroke="none" /><path d="M 118.8641267826498 109.22738970284198 l 10.26186206650697 5.019590965194417 a32.423751858731706,32.423751858731706 0 0,0 -0.24886014945674437,0.497887003718691 l -10.174182003838492 -5.195009825076854" fill="#ff830c" stroke="none" /><path d="M 118.70294669586154 109.54985784667822 l 1.9840111022131315 1.0130502054288189 a23.22768282581348,23.22768282581348 0 0,0 -0.18437463349867889,0.3535626704403951 l -1.9663283997395034 -1.0469591189737166" fill="#ff0000" stroke="none" /><path d="M 118.5362547648365 109.86951160357373 l 16.565400594299064 8.820142766565162 a39.76718986082348,39.76718986082348 0 0,0 -0.3260050793938335,0.5998126273673142 l -16.411550165289892 -9.10321022740708" fill="#ffe415" stroke="none" /><line stroke="#e1ed5e" stroke-width="0.3" x1="174.33088141563837" x2="178.70328620479359" y1="141.23008692659167" y2="143.65538615756765" /><path d="M 175.20536237346943 141.71514677278685 a86.0,86.0 0 0,1 -30.301960400862466,31.631185727798858" fill="none" id="id53" stroke="none" /><text fill="#e1ed5e" style="font-size:6.75px; font-family:Arial;" text-anchor="middle"><textPath startOffset="22.145653131862474" xlink:href="#id53">May</textPath></text><path d="M 118.36410011445183 110.18625677009912 l 24.134630619410284 13.387072767444876 a48.598806358540955,48.598806358540955 0 0,0 -0.41092983376494097,0.7260736417264729 l -23.901267420623967 -13.799403179270472" fill="#afff20" stroke="none" /><path d="M 118.18653347947321 110.5 l 14.227983907627848 8.214530339094598 a37.4290606781892,37.4290606781892 0 0,0 -0.3260361525328114,0.5536806653118725 l -14.084874044965272 -8.457562172700019" fill="#ffc612" stroke="none" /><path d="M 118.00360718960297 110.81064883170644 l 4.794964285716533 2.8792382830586902 a26.593004165198504,26.593004165198504 0 0,0 -0.23836453834577223,0.38935055959731424 l -4.744831782915356 -2.9611259587805616" fill="#ff3104" stroke="none" /><path d="M 117.81537515405839 111.11811171558189 l 20.304580855671496 12.671560174246173 a44.934168900842224,44.934168900842224 0 0,0 -0.4139984154193858,0.6508742723483378 l -20.08406474862622 -13.018248121273182" fill="#daff1c" stroke="none" /><path d="M 117.62189284568427 111.42229804090321 l 2.0501835815776026 1.328904227963285 a23.443202645150226,23.443202645150226 0 0,0 -0.2217900685247774,0.335818431992197 l -2.0270690741320987 -1.3639025382945429" fill="#ff0300" stroke="none" /><path d="M 117.423217284605 111.72311816256416 l 4.328624071876547 2.9124914559130346 a26.217239963466845,26.217239963466845 0 0,0 -0.254444884615718,0.3712426908318356 l -4.277989450445509 -2.986368881814914" fill="#ff2c04" stroke="none" /><path d="M 117.21940702142032 112.02048342749411 l 10.977958356116396 7.663467523780796 a34.3882151221389,34.3882151221389 0 0,0 -0.34205613940564294,0.4811447969379536 l -10.844787118180793 -7.8507895474282545" fill="#ff9e0e" stroke="none" /><path d="M 117.01052211995028 112.31430620078461 l 4.344200916170046 3.1448664480854474 a26.3630463895389,26.3630463895389 0 0,0 -0.268523922873344,0.3643042728902901 l -4.289574973712874 -3.218977030244615" fill="#ff2e04" stroke="none" /><path d="M 116.79662413953412 112.60449989151573 l 4.971832213232179 3.730955582010042 a27.21603934281831,27.21603934281831 0 0,0 -0.28362744735348777,0.37127743314909256 l -4.907052788524386 -3.8157539284000124" fill="#ff3a05" stroke="none" /><path d="M 116.57777611688842 112.89097897827486 l 4.107036048791603 3.193656072725809 a26.202613210390734,26.202613210390734 0 0,0 -0.2791621038132994,0.3527121986616725 l -4.051607514336742 -3.2636882153021647" fill="#ff2c04" stroke="none" /><path d="M 116.1254893667686 113.45245675266167 l 28.043081718412488 23.39453615626292 a57.52011437868526,57.52011437868526 0 0,0 -0.6390359710590411,0.7527827670744566 l -27.63735118384633 -23.872485705786932" fill="#4eff2b" stroke="none" /><path d="M 115.89218393027572 113.72728997021213 l 21.448714622638725 18.526888840770074 a49.34242348638604,49.34242348638604 0 0,0 -0.5591881365347579,0.6362534506261441 l -21.127515422145382 -18.89235456920751" fill="#a7ff21" stroke="none" /><path d="M 115.6541949942343 113.99807769240083 l 3.8910992484272384 3.479444941652278 a26.219884142689438,26.219884142689438 0 0,0 -0.30290496079409496,0.33294561305173914 l -3.8307965867912634 -3.5457281302616885" fill="#ff2c04" stroke="none" /><path d="M 115.41159269507618 114.26474011684316 l 12.301043254137072 11.385661992116681 a37.76153227300182,37.76153227300182 0 0,0 -0.44440678145011175,0.47194460145861006 l -12.1037806389507 -11.595148053519788" fill="#ffca12" stroke="none" /><path d="M 115.16444852881244 114.52719865689866 l 14.202080246211326 13.605271611818065 a40.6672951610324,40.6672951610324 0 0,0 -0.4872584868576983,0.49997013264581325 l -13.96643495820282 -13.847064436531616" fill="#ffef16" stroke="none" /><path d="M 114.91283532996324 114.78537596483092 l 3.968777957037786 3.9348569817461976 a26.588765332259516,26.588765332259516 0 0,0 -0.32413994089651027,0.3213695306984106 l -3.900646096011311 -4.00240652267327" fill="#ff3104" stroke="none" /><path d="M 114.65682725009322 115.03919595460226 l 10.192851971096925 10.458764063594026 a35.6041082248325,35.6041082248325 0 0,0 -0.44136804700728766,0.4228206048838357 l -10.011811438224326 -10.632196798783442" fill="#ffae10" stroke="none" /><path d="M 114.39649973595853 115.28858382429668 l 8.851527643892197 9.400015617595884 a33.911616290830295,33.911616290830295 0 0,0 -0.4272382893894269,0.3954453823615446 l -8.688859583188803 -9.550578746089807" fill="#ff980e" stroke="none" /><path d="M 114.13192950727249 115.5334660781643 l 3.494865590596309 3.8414694944051586 a26.193358583111657,26.193358583111657 0 0,0 -0.3351938817256264,0.2997324359470993 l -3.4284066820473047 -3.9008974602356448" fill="#ff2c04" stroke="none" /><path d="M 113.86319453409587 115.77377054828091 l 9.373254978906683 10.665043541311617 a35.19862889992099,35.19862889992099 0 0,0 -0.4572813451481253,0.3949887347363496 l -9.188794153995703 -10.824376408512684" fill="#ffa90f" stroke="none" /><path d="M 113.59037401385872 116.0094264158162 l 6.706093628053126 7.899761431614005 a31.362331900910668,31.362331900910668 0 0,0 -0.4134237338431065,0.34489278269654255 l -6.569495560048124 -8.013716398222417" fill="#ff750a" stroke="none" /><path d="M 113.31354834802062 116.24036423190432 l 18.070995683178854 22.04367643068109 a49.50411471282758,49.50411471282758 0 0,0 -0.6618210509462644,0.5331161907882395 l -17.689923861877336 -22.35064091526273" fill="#a5ff21" stroke="none" /><path d="M 113.03279911837588 116.46651593811092 l 3.493420340980621 4.413822479790273 a26.629015416738447,26.629015416738447 0 0,0 -0.3608739510361377,0.28061776705228114 l -3.4171364453092528 -4.473141298463347" fill="#ff3204" stroke="none" /><path d="M 112.7482090630111 116.68781488649013 l 5.281996999498114 6.914303626724578 a29.700981952931734,29.700981952931734 0 0,0 -0.4078185415496731,0.3060346364852051 l -5.162525469037675 -7.003957290473798" fill="#ff5e08" stroke="none" /><path d="M 112.45986205192187 116.90419585922612 l 11.262949561649743 15.2803541924724 a39.982709423990954,39.982709423990954 0 0,0 -0.5559862099288129,0.40249113955457577 l -10.998982341346961 -15.471446103400053" fill="#ffe715" stroke="none" /><path d="M 112.16784306229584 117.11559508785304 l 12.316535911308513 17.324750201305 a42.256623118269985,42.256623118269985 0 0,0 -0.594822153532431,0.415232059382102 l -12.017318666602325 -17.533627076492227" fill="#fbff18" stroke="none" /><path d="M 111.8722381534696 117.32195027204791 l 11.781510255639489 17.18957555767771 a41.83951755096191,41.83951755096191 0 0,0 -0.5959216668439659,0.4009626925916135 l -11.48469230069852 -17.389287924326446" fill="#fffe18" stroke="none" /><path d="M 111.5731344415666 117.5232005979908 l 7.764957132739041 11.757134781315726 a35.08988209813336,35.08988209813336 0 0,0 -0.5054854046234709,0.3276495321755357 l -7.56198609585856 -11.888698155195156" fill="#ffa70f" stroke="none" /><path d="M 111.27062007382361 117.71928675628689 l 5.17470552841535 8.135496586411659 a30.641777948766926,30.641777948766926 0 0,0 -0.44625499306634453,0.27849612054998263 l -5.034286406559291 -8.22312850380319" fill="#ff6b09" stroke="none" /><path d="M 110.96478420261333 117.91015095944535 l 2.9467294527992904 4.81326110583193 a26.643642169814562,26.643642169814562 0 0,0 -0.3921274781283155,0.2354612838784883 l -2.8636692181135386 -4.863136390246341" fill="#ff3204" stroke="none" /><line stroke="#e1ed5e" stroke-width="0.3" x1="143.1302829299769" x2="145.66735839644613" y1="173.24464959558577" y2="177.55315839532614" /><path d="M 143.63769802327073 174.10635135553383 a86.0,86.0 0 0,1 -40.68552437913181,11.842963189579606" fill="none" id="id54" stroke="none" /><text fill="#e1ed5e" style="font-size:6.75px; font-family:Arial;" text-anchor="middle"><textPath startOffset="21.407464694133747" xlink:href="#id54">June</textPath></text><path d="M 110.65571695917076 118.09573695890943 l 10.203437308822952 17.32766723484288 a41.10865944603289,41.10865944603289 0 0,0 -0.6111634816768211,0.35285540066498294 l -9.904481359285732 -17.500269532784035" fill="#fff517" stroke="none" /><path d="M 110.34350942703117 118.27599006163325 l 31.03052828109348 54.82797018489977 a84.0,84.0 0 0,0 -1.2610232473756222,0.6994683382674252 l -30.084760845561767 -55.352571438600336" fill="#4dd2ff" stroke="none" /><path d="M 110.02825361518725 118.45085714620011 l 5.879281817533493 10.817216346949824 a33.31170679421413,33.31170679421413 0 0,0 -0.5047694127218088,0.2687612810241256 l -5.692723589025131 -10.916548095696518" fill="#ff900d" stroke="none" /><path d="M 109.71004243097381 118.62028667847754 l 10.8542504546247 20.814456433311157 a44.4745894436075,44.4745894436075 0 0,0 -0.6799799998003259,0.3472026329473651 l -10.495343233110791 -20.997717017931357" fill="#e0ff1b" stroke="none" /><path d="M 109.3889696526874 118.78422872680471 l 2.531944312191813 5.06558470663818 a26.66311667018852,26.66311667018852 0 0,0 -0.41117033601762915,0.2011240153545128 l -2.4446137269121144 -5.108302472089917" fill="#ff3204" stroke="none" /><path d="M 109.06512990194946 118.94263497670748 l 2.33766522420918 4.884821234653768 a26.415363071392473,26.415363071392473 0 0,0 -0.4107101985710227,0.19223311090489345 l -2.253466311766651 -4.924230577129196" fill="#ff2f04" stroke="none" /><path d="M 108.73861861582097 119.09545874513695 l 6.965264247878576 15.220359411674277 a37.738406335828905,37.738406335828905 0 0,0 -0.5913906534623611,0.26452151710828364 l -6.702960191560588 -15.33768467969241" fill="#ffca12" stroke="none" /><path d="M 108.4095320186766 119.2426549942271 l 10.487263407769484 23.99691102205331 a47.188440816212875,47.188440816212875 0 0,0 -0.7450491348596276,0.31801717231147675 l -10.073779197739425 -24.173402844024192" fill="#c0ff1e" stroke="none" /><path d="M 108.07796709384702 119.3841803445677 l 13.971390794739818 33.52625180114386 a57.320921251711695,57.320921251711695 0 0,0 -0.9115269491649128,0.3707100747903509 l -13.393809384384465 -33.761149132513495" fill="#50ff2b" stroke="none" /><path d="M 107.407793817531 119.65005319985036 l 4.442131163482349 11.783280668067288 a33.59278494122842,33.59278494122842 0 0,0 -0.5413410881076942,0.1987879459085261 l -4.239200923720528 -11.857799462984536" fill="#ff930d" stroke="none" /><path d="M 107.06938296918513 119.77432235084164 l 2.8389747385597053 7.941117615339352 a29.433334248494667,29.433334248494667 0 0,0 -0.47723240100390524,0.16600620205353794 l -2.7022365655107783 -7.988682249961481" fill="#ff5a08" stroke="none" /><path d="M 106.72888874123015 119.89276391827305 l 4.1793160922580235 12.355405410957859 a34.04311028352262,34.04311028352262 0 0,0 -0.5551900577074806,0.18250199944421053 l -3.966603296902808 -12.425328331804089" fill="#ff990e" stroke="none" /><path d="M 106.38641147887787 120.00534299687104 l 5.813953030936099 18.212125062134394 a40.11762404496842,40.11762404496842 0 0,0 -0.6578514108009254,0.20380404867654484 l -5.500460987263549 -18.309245698617584" fill="#ffe915" stroke="none" /><path d="M 106.0420521117495 120.11202640906438 l 5.57907970398239 18.570941837222758 a40.39087442754707,40.39087442754707 0 0,0 -0.6657569892498675,0.19379215672431094 l -5.259462702350916 -18.663977688249588" fill="#ffec16" stroke="none" /><path d="M 105.3480935250658 120.30758222061773 l 8.68774678059774 32.98878959988359 a55.113592355381954,55.113592355381954 0 0,0 -0.9169713066811267,0.23309052036993733 l -8.120170180691217 -33.1330653520888" fill="#67ff28" stroke="none" /><path d="M 104.9986988182912 120.39639698878246 l 3.581478129508186 14.61365295080186 a36.04612369212168,36.04612369212168 0 0,0 -0.6022583707562215,0.14213133563394495 l -3.3300876050120856 -14.672980430082031" fill="#ffb410" stroke="none" /><path d="M 104.64783097203109 120.47920084513623 l 1.188087832732861 5.234934207937925 a26.368061927709714,26.368061927709714 0 0,0 -0.44227725770730664,0.09639226981095617 l -1.0980481584064186 -5.254557935882599" fill="#ff2e04" stroke="none" /><path d="M 104.29559338865022 120.5559693870025 l 1.12521606725632 5.384566214623092 a26.500878522351883,26.500878522351883 0 0,0 -0.44610255686516787,0.08923300520379608 l -1.0326170248601936 -5.403088616489749" fill="#ff3004" stroke="none" /><path d="M 103.94208987418118 120.62667999033965 l 3.2068882671034946 16.779794515481044 a38.08349016856491,38.08349016856491 0 0,0 -0.6431852946637985,0.11720978631720526 l -2.9183682388886387 -16.832372475729613" fill="#ffcf13" stroke="none" /><path d="M 103.58742460773223 120.69131181640829 l 1.79352173785712 10.344556774105198 a31.498884468211457,31.498884468211457 0 0,0 -0.5335648492416657,0.08779789289747544 l -1.6156793855623819 -10.373820665498345" fill="#ff770a" stroke="none" /><path d="M 102.875027216393 120.80226474461374 l 0.7175469788746641 5.191812493509345 a26.241163099413324,26.241163099413324 0 0,0 -0.44675227559150776,0.05784102636747363 l -0.6283168813923811 -5.203365116077213" fill="#ff2c04" stroke="none" /><path d="M 102.51750503828377 120.84855314841334 l 1.416935117245846 11.734255403870826 a32.81949470196405,32.81949470196405 0 0,0 -0.5599069847293568,0.06273874549313552 l -1.2152922309156897 -11.756849909870931" fill="#ff890c" stroke="none" /><path d="M 102.15924093988457 120.88869738790638 l 1.406478572458023 13.60640433402529 a34.67890422788923,34.67890422788923 0 0,0 -0.592679708034223,0.05612738455761037 l -1.172699301038785 -13.628543474088085" fill="#ffa20f" stroke="none" /><path d="M 101.80034050326958 120.92268563240118 l 1.0032828446660198 11.65966744691135 a32.7027527291217,32.7027527291217 0 0,0 -0.5597325374783386,0.043326838396798524 l -0.8029813124124452 -11.675172052303202" fill="#ff870c" stroke="none" /><path d="M 101.44090949804482 120.95050786540614 l 1.4642599224123078 21.290017910995747 a42.3403120823221,42.3403120823221 0 0,0 -0.7255428778713159,0.04364685785083719 l -1.0985726924085268 -21.312016746671276" fill="#faff18" stroke="none" /><path d="M 101.08105385017728 120.97215588758144 l 0.4166161407162466 8.08224182999844 a29.092972383944097,29.092972383944097 0 0,0 -0.49897805715467314,0.02142826474465933 l -0.2778123229607439 -8.088202663168929" fill="#ff5507" stroke="none" /><path d="M 100.72087961077811 120.9876233191556 l 0.2798862939577647 8.148584065846338 a29.153389394338422,29.153389394338422 0 0,0 -0.5003092089252738,0.012886190502973651 l -0.13996377096174717 -8.152187973699357" fill="#ff5608" stroke="none" /><line stroke="#e1ed5e" stroke-width="0.3" x1="101.45913802915013" x2="101.54496967792366" y1="184.9874750549273" y2="189.98673829345242" /><path d="M 101.47630435890484 185.9873277026323 a86.0,86.0 0 0,1 -42.54439059252881,-10.42667462771756" fill="none" id="id55" stroke="none" /><text fill="#e1ed5e" style="font-size:6.75px; font-family:Arial;" text-anchor="middle"><textPath startOffset="22.145653131862474" xlink:href="#id55">July</textPath></text><path d="M 100.36049292484886 120.99690560180557 l 0.09201987433562268 5.3596963538887 a26.360486233837428,26.360486233837428 0 0,0 -0.4525127991844743,0.003884278143162517 l -6.564702308142456e-16 -5.3604862338374275" fill="#ff2e04" stroke="none" /><path d="M 100.0 121.0 l 1.0094040094173401e-15 8.242409240934826 a29.242409240934826,29.242409240934826 0 0,0 -0.5019848398519856,-0.00430893611219407 l 0.14149191500313246 -8.241194703017067" fill="#ff5708" stroke="none" /><path d="M 99.63950707515114 120.99690560180557 l -0.18967933561955264 11.047870374395925 a32.04949854336459,32.04949854336459 0 0,0 -0.5500101221779851,-0.014166309727083487 l 0.3793027718682816 -11.042986347318795" fill="#ff7e0b" stroke="none" /><path d="M 99.27912038922189 120.98762331915562 l -0.4454471615048874 12.968708081728966 a33.976355901515454,33.976355901515454 0 0,0 -0.5827337211611207,-0.02502509333554215 l 0.6680066432668468 -12.959150419967596" fill="#ff980e" stroke="none" /><path d="M 98.91894614982273 120.97215588758144 l -0.706343278451666 13.702870900838676 a34.72106379811949,34.72106379811949 0 0,0 -0.5949795670344262,-0.03579249328818969 l 0.9414671976185386 -13.688726429725794" fill="#ffa20f" stroke="none" /><path d="M 98.55909050195518 120.95050786540614 l -0.5531416435023445 8.04255809862048 a29.06155732147718,29.06155732147718 0 0,0 -0.49741070292645906,-0.038502734251654416 l 0.6911213412040397 -8.031877597373771" fill="#ff5507" stroke="none" /><path d="M 98.19965949673042 120.92268563240118 l -0.6411372735503181 7.450986964602796 a28.478520157772948,28.478520157772948 0 0,0 -0.4867120627987312,-0.046092138379663875 l 0.7689488997340647 -7.4388830707179485" fill="#ff4c07" stroke="none" /><path d="M 97.84075906011543 120.88869738790638 l -0.578964354206256 5.600954932822662 a26.630798867208096,26.630798867208096 0 0,0 -0.4543266259909888,-0.05090824607694719 l 0.6750268817980442 -5.590190926238744" fill="#ff3204" stroke="none" /><path d="M 97.48249496171623 120.84855314841334 l -1.4597959415777026 12.089204514390442 a33.17702221324265,33.17702221324265 0 0,0 -0.5648343449931439,-0.0731291143369035 l 1.6671081084616406 -12.06236380385314" fill="#ff8e0d" stroke="none" /><path d="M 97.12497278360702 120.80226474461374 l -0.7825607084035444 5.662219453827211 a26.716041497893134,26.716041497893134 0 0,0 -0.4537591085638924,-0.06668696290581314 l 0.8796449225751217 -5.647951417622515" fill="#ff3304" stroke="none" /><path d="M 96.76829788921471 120.74984581791261 l -0.3685645867657611 2.3664490374311975 a23.394978267412224,23.394978267412224 0 0,0 -0.39629143263348526,-0.06520960443326253 l 0.4091335224523099 -2.3597734345022667" fill="#ff0200" stroke="none" /><path d="M 96.41257539226777 120.69131181640829 l -1.53060300533895 8.82811139287468 a29.959815641237064,29.959815641237064 0 0,0 -0.505985999864788,-0.09220750445584647 l 1.6819237387547952 -8.800535714487467" fill="#ff6109" stroke="none" /><path d="M 96.05791012581884 120.62667999033965 l -2.0150427719436985 10.543555258836662 a31.7343819043718,31.7343819043718 0 0,0 -0.5342007396522952,-0.10685510909472862 l 2.195739997126952 -10.507410753079073" fill="#ff7a0b" stroke="none" /><path d="M 95.70440661134978 120.55596938700252 l -2.358876144512909 11.288076274271013 a32.53191062395613,32.53191062395613 0 0,0 -0.5456648371878356,-0.11892511155834741 l 2.5523033983198813 -11.245919704578947" fill="#ff850c" stroke="none" /><path d="M 95.35216902796893 120.47920084513623 l -1.2631816969273708 5.565811629326754 a26.70735377321235,26.70735377321235 0 0,0 -0.4462262713197093,-0.10530818502030762 l 1.358540121986968 -5.54330730066022" fill="#ff3304" stroke="none" /><path d="M 95.00130118170881 120.39639698878247 l -1.2902554228641179 5.264682426028278 a26.420483382795418,26.420483382795418 0 0,0 -0.43957985925597903,-0.11173948125920291 l 1.3804405753454756 -5.241757712933811" fill="#ff2f04" stroke="none" /><path d="M 94.6519064749342 120.30758222061772 l -8.577765255569362 32.57117183538584 a54.68173528056244,54.68173528056244 0 0,0 -0.9056821218926231,-0.24684768971133456 l 9.135628778396681 -32.41912365153036" fill="#6cff28" stroke="none" /><path d="M 94.30408787586889 120.21278271476187 l -4.592548795925881 16.297335509394223 a37.93205980230173,37.93205980230173 0 0,0 -0.6252287004908986,-0.18199496253218855 l 4.871637508798386 -16.21609685255952" fill="#ffcd13" stroke="none" /><path d="M 93.95794788825049 120.11202640906438 l -1.5320857052342474 5.099815028854336 a26.324978867254938,26.324978867254938 0 0,0 -0.43167871725692997,-0.13373517007031488 l 1.619405055362811 -5.072763270977373" fill="#ff2e04" stroke="none" /><path d="M 93.61358852112213 120.00534299687104 l -2.5958716156660837 8.131530863458613 a29.535827061767407,29.535827061767407 0 0,0 -0.4816832949249425,-0.15833886648776246 l 2.7350776482387698 -8.085771075568827" fill="#ff5b08" stroke="none" /><path d="M 92.93061703081489 119.77432235084164 l -1.9264439532859197 5.388606599636041 a26.722610190358328,26.722610190358328 0 0,0 -0.4306295802159738,-0.1581331466965128 l 2.0186626851560123 -5.354742603930808" fill="#ff3304" stroke="none" /><path d="M 92.59220618246901 119.65005319985036 l -4.985151780468977 13.223707369354624 a35.13216808789921,35.13216808789921 0 0,0 -0.5624956852329248,-0.2175854148316825 l 5.2114197281954295 -13.136182066384901" fill="#ffa80f" stroke="none" /><path d="M 92.25597844496254 119.51999308798841 l -7.810068089930764 19.686473500709397 a42.179102966449925,42.179102966449925 0 0,0 -0.670739203173095,-0.27278379470943415 l 8.146861754294301 -19.549502449420668" fill="#fcff18" stroke="none" /><path d="M 91.92203290615298 119.3841803445677 l -7.50911420722713 18.01914050030206 a40.52117364675614,40.52117364675614 0 0,0 -0.639780947342505,-0.27308444269377585 l 7.817330229740066 -17.887581407948883" fill="#ffee16" stroke="none" /><path d="M 91.59046798132341 119.24265499422711 l -2.185746717756879 5.001416238281809 a26.458173055403606,26.458173055403606 0 0,0 -0.4146204827361665,-0.18545446816825492 l 2.2712806033486803 -4.963158019203699" fill="#ff2f04" stroke="none" /><path d="M 90.93487009805054 118.94263497670748 l -5.1352107351095775 10.73061539501287 a32.896070613848586,32.896070613848586 0 0,0 -0.507288347992671,-0.2481401515465123 l 5.3186593323643185 -10.640881493369138" fill="#ff8a0c" stroke="none" /><path d="M 90.6110303473126 118.78422872680471 l -2.5436629657858476 5.0890298638410805 a26.689327397731372,26.689327397731372 0 0,0 -0.40805792848501987,-0.20835728581230342 l 2.63064811598445 -5.044614626355941" fill="#ff3304" stroke="none" /><line stroke="#e1ed5e" stroke-width="0.3" x1="58.13341422392154" x2="55.67067388415222" y1="173.97424548756322" y2="178.32567169271397" /><path d="M 57.64086615596768 174.84453072859336 a86.0,86.0 0 0,1 -31.369924170532247,-30.572349798747897" fill="none" id="id56" stroke="none" /><text fill="#e1ed5e" style="font-size:6.75px; font-family:Arial;" text-anchor="middle"><textPath startOffset="22.145653131862474" xlink:href="#id56">August</textPath></text><line stroke="#e1ed5e" stroke-width="0.3" x1="26.387840678322732" x2="22.057713659400548" y1="142.50000000000003" y2="145.00000000000006" /><path d="M 25.521815274538298 143.00000000000003 a86.0,86.0 0 0,1 -11.493303480769221,-40.785679425670985" fill="none" id="id57" stroke="none" /><text fill="#e1ed5e" style="font-size:6.75px; font-family:Arial;" text-anchor="middle"><textPath startOffset="21.40746469413373" xlink:href="#id57">September</textPath></text><line stroke="#e1ed5e" stroke-width="0.3" x1="15.003131293944662" x2="10.003315487706104" y1="100.72959589197737" y2="100.7725132973878" /><path d="M 14.003168132696942 100.73817937305945 a86.0,86.0 0 0,1 10.791469493833604,-42.45332614584628" fill="none" id="id58" stroke="none" /><text fill="#e1ed5e" style="font-size:6.75px; font-family:Arial;" text-anchor="middle"><textPath startOffset="22.145653131862435" xlink:href="#id58">October</textPath></text><line stroke="#e1ed5e" stroke-width="0.3" x1="26.387840678322718" x2="22.05771365940052" y1="57.49999999999999" y2="54.99999999999999" /><path d="M 25.521815274538284 56.99999999999999 a86.0,86.0 0 0,1 29.574782752854787,-30.34633250058573" fill="none" id="id59" stroke="none" /><text fill="#e1ed5e" style="font-size:6.75px; font-family:Arial;" text-anchor="middle"><textPath startOffset="21.40746469413373" xlink:href="#id59">November</textPath></text><line stroke="#e1ed5e" stroke-width="0.3" x1="56.869717070023135" x2="54.33264160355391" y1="26.7553504044142" y2="22.446841604673864" /><path d="M 56.362301976729285 25.89364864446614 a86.0,86.0 0 0,1 42.16139366436587,-11.88097634709845" fill="none" id="id60" stroke="none" /><text fill="#e1ed5e" style="font-size:6.75px; font-family:Arial;" text-anchor="middle"><textPath startOffset="22.145653131862474" xlink:href="#id60">December</textPath></text></svg>